<svg width="122" height="80" viewBox="0 0 122 80" fill="none" xmlns="http://www.w3.org/2000/svg">
<path d="M80.7853 34.0567C80.3737 34.6371 79.962 35.2298 79.5957 35.8267C79.2293 36.4236 78.8465 37.0369 78.4884 37.6502C78.3128 37.9156 78.2491 38.2396 78.3114 38.5517C78.3474 38.6887 78.4104 38.8171 78.4966 38.9295C78.5828 39.0419 78.6906 39.1359 78.8136 39.2062C78.9382 39.2847 79.0789 39.3339 79.2252 39.3503C79.4477 39.3628 79.669 39.3114 79.8631 39.2019C80.0572 39.0925 80.2158 38.9297 80.3201 38.7328C80.4025 38.6135 80.4807 38.49 80.5589 38.3665C80.7935 37.9878 81.0076 37.6008 81.2587 37.2386C83.0781 34.6728 84.8961 32.1097 86.7128 29.5493C86.8414 29.3563 86.9556 29.154 87.0545 28.9442C87.0874 28.8866 87.1121 28.8331 87.1368 28.7919C87.1368 27.9439 86.4329 27.4541 85.7907 27.7505C85.5864 27.854 85.4024 27.9934 85.2474 28.1621C85.1516 28.2591 85.0622 28.3622 84.9798 28.4708C83.5638 30.3067 82.1396 32.1591 80.7853 34.0567Z" fill="white"/>
<path d="M77.023 34.6167C77.2112 34.7201 77.428 34.7592 77.6405 34.7278C77.833 34.6814 78.0125 34.5921 78.1657 34.4666C78.3189 34.3412 78.4419 34.1829 78.5255 34.0034C79.1718 32.8384 79.8221 31.6776 80.4519 30.5127C80.5919 30.2575 80.6824 29.9735 80.8636 29.5536C80.8137 29.4972 80.767 29.4381 80.7236 29.3766C80.6577 29.2819 80.5919 29.1872 80.5219 29.0967C80.4139 28.9409 80.2735 28.8103 80.1103 28.7139C79.9183 28.6128 79.6953 28.5875 79.4856 28.6432C79.2759 28.6989 79.0948 28.8314 78.9783 29.0144C78.9366 29.0645 78.8994 29.1182 78.8671 29.1749C78.2867 30.1381 77.7146 31.1055 77.1671 32.0893C76.9819 32.4186 76.8008 32.7438 76.6238 33.0772C76.5826 33.1536 76.5481 33.2335 76.5208 33.3159C76.428 33.5564 76.4279 33.8228 76.5208 34.0633C76.6136 34.3037 76.7927 34.501 77.023 34.6167Z" fill="white"/>
<path d="M13.8034 34.913C13.7359 35.0326 13.6912 35.1639 13.6717 35.2999C13.637 35.5513 13.6972 35.8067 13.8405 36.0161C13.9163 36.1203 14.008 36.212 14.1122 36.2878C14.3195 36.446 14.579 36.5199 14.8386 36.4947C15.0982 36.4695 15.3386 36.3471 15.5117 36.152C15.6694 35.9933 15.8076 35.8164 15.9233 35.6251C16.4832 34.8018 17.0142 33.925 17.5699 33.1018C18.7307 31.4141 19.9121 29.7552 21.0688 28.0757C21.1484 27.9579 21.2212 27.8356 21.2869 27.7094C21.3939 27.5036 21.4886 27.2978 21.5586 27.1743C21.5624 26.9274 21.4922 26.6851 21.3569 26.4786C21.2337 26.2745 21.0352 26.1269 20.8043 26.0676C20.5733 26.0083 20.3283 26.0421 20.122 26.1617C20.0592 26.1976 19.9987 26.2375 19.9409 26.281C19.7664 26.4143 19.6125 26.5724 19.484 26.7503C17.9664 28.8414 16.4571 30.938 14.956 33.04C14.5377 33.6427 14.1529 34.2679 13.8034 34.913V34.913Z" fill="white"/>
<path d="M12.2091 31.5664C12.3453 31.776 12.4147 32.022 12.4081 32.2719C12.4015 32.5218 12.3192 32.7638 12.1721 32.9659C12.2363 33.1148 12.2873 33.2691 12.3244 33.4269L12.4067 33.3734C12.542 33.2731 12.6674 33.1601 12.7813 33.0359C12.8963 32.9072 13.0009 32.7696 13.0941 32.6243C13.5057 31.9821 13.8556 31.3029 14.2549 30.6525C14.7818 29.8005 15.3457 28.9648 15.8726 28.1045C15.9848 27.9556 16.0544 27.7789 16.0739 27.5935C16.0935 27.408 16.0623 27.2207 15.9837 27.0516C15.905 26.8825 15.7819 26.738 15.6275 26.6334C15.4731 26.5289 15.2932 26.4682 15.107 26.458H14.9176C14.8312 26.5239 14.6995 26.6021 14.5595 26.6968L14.4154 26.7955C14.3591 26.8374 14.3055 26.8827 14.2549 26.9314C14.1744 27.001 14.1037 27.0813 14.045 27.1701C13.444 28.0716 12.8677 28.9937 12.2914 29.9198C12.2914 30.2532 12.2503 30.5867 12.2256 30.9242C12.2091 31.1259 12.1185 31.4017 12.2091 31.5664Z" fill="white"/>
<path d="M12.1436 30.1961H12.2015C12.2015 30.1548 12.2015 30.1092 12.1767 30.0679L12.1973 30.1589L12.1436 30.1961Z" fill="white"/>
<path d="M11.314 33.308C11.3634 33.3409 11.4128 33.3738 11.4664 33.4026C11.5931 33.4849 11.74 33.5307 11.891 33.5351C12.042 33.5395 12.1913 33.5022 12.3225 33.4273C12.2855 33.2695 12.2345 33.1152 12.1702 32.9663C12.3173 32.7642 12.3996 32.5222 12.4063 32.2723C12.4129 32.0224 12.3435 31.7764 12.2073 31.5667C12.1167 31.4021 12.2073 31.1263 12.2073 30.8999C12.232 30.5624 12.2567 30.2289 12.2731 29.8955C12.2402 29.9614 12.1949 30.0231 12.1579 30.089C12.1208 30.1548 12.1785 30.1754 12.1826 30.2166H12.125H12.1661L12.1455 30.126L11.2441 31.5956C11.1172 31.8061 11.0202 32.0333 10.9559 32.2706C10.9277 32.3698 10.9125 32.4722 10.9106 32.5752C10.9133 32.7209 10.9515 32.8638 11.0218 32.9915C11.092 33.1191 11.1924 33.2278 11.314 33.308V33.308Z" fill="white"/>
<path d="M116.497 27.7964C116.497 27.7758 116.497 27.7594 116.497 27.7388C116.467 27.7488 116.439 27.7641 116.415 27.784L116.452 27.8211C116.497 27.7964 116.497 27.7964 116.497 27.7964Z" fill="#4A4641"/>
<path d="M70.57 40.4746C70.7141 40.8862 70.8788 41.3225 71.0599 41.7342C71.6165 42.977 72.3067 44.1558 73.118 45.2495C74.5299 47.1801 75.8595 49.1806 77.399 51.0124C78.6984 52.5093 80.1103 53.9047 81.6224 55.1863C83.0641 56.4752 84.598 57.657 86.2121 58.7222C88.3443 60.0971 90.5671 61.3197 93.0946 61.8959C93.3471 61.9585 93.6047 61.9985 93.8643 62.0153C94.2015 62.0444 94.5412 62.0081 94.8646 61.9083C96.9133 61.2335 98.848 60.2523 100.603 58.998C101.591 58.3147 102.496 57.5079 103.418 56.7258C104.513 55.7955 105.604 54.8364 106.666 53.8444C106.868 53.6592 107.078 53.4739 107.255 53.2804C107.695 52.8441 108.127 52.3954 108.539 51.9262C109.353 51.0805 110.109 50.1796 110.799 49.23C110.828 49.1888 110.852 49.1477 110.885 49.1065C112.157 47.1101 113.293 45.0314 114.483 42.9855C114.634 42.758 114.772 42.5216 114.895 42.2775C114.93 42.1966 114.958 42.1126 114.977 42.0264C115.224 40.7915 115.936 39.6596 115.928 38.3547C116.475 37.7619 116.142 36.9881 116.339 36.2965C116.607 35.4156 116.57 34.4524 116.751 33.5427C116.988 32.0639 116.919 30.5524 116.549 29.1012C116.294 28.2405 115.915 27.4212 115.426 26.6684C114.676 25.3142 113.878 23.9887 113.104 22.655C112.684 21.9629 112.107 21.3791 111.42 20.9508C111.025 20.6979 110.613 20.4736 110.186 20.2799C109.532 19.9953 108.853 19.7761 108.156 19.6254C107.452 19.4649 106.744 19.3372 106.049 19.1767C105.51 19.0398 104.95 19.0174 104.402 19.1109C102.001 19.6068 99.6867 20.4528 97.532 21.6218C96.1818 22.3833 94.8687 23.1942 93.8931 24.458C93.4815 24.989 93.1398 24.9766 92.7406 24.425C91.7851 23.1323 90.4858 22.1339 88.9906 21.5436C86.7884 20.6421 84.5491 20.0205 82.1369 20.461C81.6349 20.5336 81.1291 20.5776 80.6221 20.5927C80.6201 20.5694 80.6201 20.546 80.6221 20.5228C80.054 20.601 79.4119 20.5228 78.9262 20.7821C77.7199 21.3363 76.5748 22.0151 75.5096 22.8073C74.3688 23.7404 73.3123 24.7721 72.3524 25.8904C70.6194 27.8292 70.0184 30.2578 69.7344 32.7565C69.5918 33.9552 69.5849 35.1662 69.7138 36.3665C69.8531 37.7623 70.1401 39.1393 70.57 40.4746V40.4746ZM84.9772 28.4549C85.0595 28.3463 85.1489 28.2431 85.2447 28.1462C85.3997 27.9775 85.5837 27.8381 85.7881 27.7345C86.4302 27.4382 87.1259 27.928 87.1341 28.776C87.1094 28.8171 87.0847 28.8707 87.0518 28.9283C86.9529 29.1381 86.8387 29.3403 86.7102 29.5334C84.899 32.102 83.0809 34.6651 81.256 37.2227C81.0049 37.5849 80.7909 37.9719 80.5562 38.3506C80.478 38.474 80.3998 38.5975 80.3175 38.7169C80.2131 38.9138 80.0545 39.0765 79.8605 39.186C79.6664 39.2954 79.445 39.3469 79.2226 39.3344C79.0762 39.318 78.9355 39.2687 78.8109 39.1903C78.6879 39.12 78.5802 39.026 78.494 38.9136C78.4077 38.8012 78.3448 38.6728 78.3087 38.5358C78.2465 38.2237 78.3101 37.8997 78.4857 37.6343C78.8438 37.021 79.2102 36.3994 79.593 35.8108C79.9758 35.2221 80.371 34.6212 80.7826 34.0407C82.141 32.1596 83.5653 30.3072 84.9731 28.4549H84.9772ZM76.6375 33.0775C76.8145 32.7441 76.9956 32.4189 77.1808 32.0896C77.7283 31.1058 78.3005 30.1385 78.8809 29.1752C78.9132 29.1186 78.9504 29.0649 78.992 29.0147C79.1086 28.8317 79.2897 28.6992 79.4994 28.6435C79.7091 28.5879 79.9321 28.6131 80.124 28.7142C80.2873 28.8106 80.4277 28.9412 80.5357 29.097C80.6056 29.1876 80.6715 29.2823 80.7374 29.377C80.7807 29.4385 80.8275 29.4976 80.8773 29.554V29.554C80.6962 29.9656 80.6056 30.2578 80.4657 30.5131C79.8359 31.678 79.1855 32.8388 78.5392 34.0037C78.4557 34.1832 78.3327 34.3416 78.1795 34.467C78.0262 34.5924 77.8467 34.6817 77.6542 34.7282C77.4418 34.7595 77.225 34.7205 77.0368 34.617C76.8079 34.5 76.6306 34.3021 76.5394 34.0618C76.4481 33.8214 76.4493 33.5558 76.5428 33.3163C76.5661 33.2343 76.5964 33.1544 76.6334 33.0775H76.6375Z" fill="#4A4641"/>
<path d="M25.6804 21.0532C25.6804 21.0532 25.6557 21.0985 25.6804 21.1067C25.7 21.1219 25.7224 21.1331 25.7463 21.1397C25.7092 21.1067 25.6969 21.0779 25.6804 21.0532Z" fill="#4A4641"/>
<path d="M19.6084 18.4813C19.6332 18.5102 19.6581 18.5599 19.6829 18.564C19.7077 18.5682 19.7491 18.5268 19.7863 18.5103C19.7615 18.4813 19.7367 18.4316 19.7077 18.4234C19.6787 18.4151 19.6456 18.4606 19.6084 18.4813Z" fill="#4A4641"/>
<path d="M16.4688 18.0115L16.6951 18.0444C16.6951 17.9991 16.6951 17.9333 16.6951 17.9291C16.6344 17.9125 16.5725 17.9001 16.5099 17.8921C16.4688 17.9168 16.4688 17.9703 16.4688 18.0115Z" fill="#4A4641"/>
<path d="M9.9433 44.5982C10.0243 44.7169 10.1151 44.8284 10.215 44.9317C10.7254 45.5615 11.4211 46.1213 11.6969 46.8416C11.7974 47.1329 11.9358 47.4097 12.1085 47.6649C12.3468 48.017 12.6433 48.326 12.9853 48.5787C13.4216 48.9121 13.6768 49.472 14.0349 49.9083C14.5083 50.4846 14.9776 51.065 15.5003 51.6001C15.7144 51.8142 15.9326 52.0117 16.1548 52.2423C16.6817 52.7486 17.221 53.2384 17.719 53.7776C19.4239 55.5604 21.3576 57.1093 23.4695 58.3838C24.7044 59.1618 25.9599 59.8574 27.2072 60.5902C27.2818 60.6365 27.3588 60.6791 27.4377 60.7178C27.8817 61.0016 28.3933 61.1622 28.9199 61.1832C29.4464 61.2041 29.9691 61.0847 30.4344 60.8371C32.3814 59.8081 34.3902 58.886 36.3084 57.8034C37.3022 57.1742 38.2462 56.4696 39.1322 55.6959C40.0789 54.9426 41.0133 54.181 41.9189 53.3866C42.9434 52.5499 43.9064 51.6406 44.8003 50.6657C46.1008 49.1102 47.3168 47.486 48.4433 45.8002C49.1401 44.6699 49.779 43.5048 50.3574 42.3096C50.6373 41.8606 50.8889 41.3945 51.1107 40.9141C51.6971 39.3284 52.0399 37.663 52.1274 35.9745C52.2509 34.5873 52.4073 33.1507 51.9627 31.7882C51.4441 30.2035 50.8307 28.6557 50.2421 27.0915C50.145 26.7988 50.0064 26.5216 49.8305 26.2682C49.4008 25.6891 48.9333 25.1391 48.4309 24.6217C47.6791 23.8125 46.8521 23.0765 45.9611 22.4236C44.888 21.7138 43.7062 21.184 42.4623 20.8553C41.1533 20.5095 39.8525 20.1514 38.4694 20.2296C37.4321 20.2913 36.3907 20.3572 35.3575 20.3531C34.5964 20.3448 33.8403 20.476 33.1264 20.74C32.0068 21.1516 30.9036 21.6374 29.8128 22.1313C28.4709 22.7529 28.4791 22.7694 27.8534 22.5635C27.3224 22.9505 27.0713 22.3824 26.6185 22.2466V21.1434L25.7541 21.5551C25.2519 21.2628 24.7621 21.0117 24.2928 20.7071C23.831 20.4613 23.4136 20.1399 23.0579 19.7562C22.7533 19.3446 22.4775 19.2458 22.1359 19.394C21.9424 19.1964 21.8024 19.0606 21.5596 18.8095V19.4516C21.2385 19.2993 20.9833 19.1758 20.7116 19.04C20.7363 18.9247 20.7528 18.8095 20.7733 18.686C20.6087 18.686 20.3617 18.6201 20.2835 18.686C19.7113 19.1717 19.2832 18.8012 18.7975 18.5295C18.342 18.305 17.8733 18.1084 17.3939 17.9409C17.3609 18.1056 17.3239 18.262 17.2868 18.4431C16.6364 18.5049 15.9819 18.509 15.3439 18.6242C14.4853 18.7775 13.6432 19.0118 12.8288 19.324C12.1672 19.5739 11.5305 19.8854 10.9271 20.2543C9.88621 20.8978 8.95511 21.7038 8.16917 22.6418C6.31769 24.8044 5.24257 27.5241 5.11485 30.3681C4.95432 33.1754 5.75288 35.8099 6.76138 38.3497C7.67932 40.5149 8.88952 42.5277 9.9433 44.5982ZM19.5055 26.7499C19.634 26.5719 19.788 26.4138 19.9624 26.2806C20.0202 26.237 20.0807 26.1972 20.1436 26.1612C20.3499 26.0417 20.5949 26.0079 20.8258 26.0672C21.0568 26.1265 21.2552 26.274 21.3784 26.4782C21.5137 26.6847 21.584 26.927 21.5802 27.1738C21.5102 27.3097 21.4155 27.5031 21.3085 27.7089C21.2428 27.8351 21.1699 27.9574 21.0903 28.0753C19.9336 29.7548 18.7522 31.4137 17.5914 33.1013C17.0234 33.9246 16.4924 34.7849 15.9449 35.6247C15.8291 35.816 15.6909 35.9929 15.5333 36.1515C15.3602 36.3466 15.1197 36.4691 14.8602 36.4943C14.6006 36.5195 14.3411 36.4456 14.1337 36.2874C14.0295 36.2115 13.9379 36.1199 13.862 36.0157C13.7187 35.8062 13.6585 35.5509 13.6933 35.2995C13.7128 35.1634 13.7575 35.0322 13.825 34.9125C14.1838 34.2668 14.5782 33.6415 15.0064 33.0396C16.4828 30.9375 17.9825 28.841 19.5055 26.7499V26.7499ZM10.9765 32.2493C11.0408 32.012 11.1378 31.7848 11.2646 31.5742L12.1661 30.1047C12.2155 30.0223 12.2608 29.9606 12.2937 29.8947C12.87 28.9685 13.4463 28.0465 14.0473 27.145C14.106 27.0562 14.1766 26.9759 14.2572 26.9063C14.3078 26.8576 14.3614 26.8123 14.4177 26.7704L14.5618 26.6717C14.7018 26.577 14.8335 26.4988 14.9199 26.4329H15.1093C15.2955 26.4431 15.4754 26.5038 15.6298 26.6083C15.7842 26.7129 15.9073 26.8574 15.986 27.0265C16.0646 27.1956 16.0958 27.3829 16.0762 27.5684C16.0567 27.7538 15.9871 27.9305 15.8749 28.0794C15.348 28.9397 14.7841 29.7754 14.2572 30.6274C13.8456 31.2778 13.508 31.957 13.0964 32.5991C13.0032 32.7444 12.8986 32.8821 12.7836 33.0108C12.6697 33.135 12.5443 33.248 12.409 33.3483V33.3483L12.3266 33.4018C12.1954 33.4767 12.0461 33.514 11.8951 33.5096C11.7441 33.5053 11.5972 33.4594 11.4705 33.3771C11.4169 33.3483 11.3675 33.3154 11.3182 33.2825C11.1966 33.1985 11.0977 33.0857 11.0302 32.9543C10.9627 32.8229 10.9287 32.6769 10.9312 32.5292C10.9351 32.4344 10.9503 32.3404 10.9765 32.2493V32.2493Z" fill="#4A4641"/>
<path d="M6.85403 49.3573C7.61143 50.8351 8.78458 52 9.87541 53.1937C11.2118 54.6514 12.6359 56.026 14.1399 57.31C14.8726 57.9398 15.6259 58.5449 16.3833 59.1336C17.3507 59.891 18.3468 60.6278 19.3347 61.3605C19.7193 61.6346 20.1238 61.8795 20.5449 62.0932C20.8907 62.2784 21.2447 62.4637 21.574 62.6695C22.95 63.5667 24.4252 64.3016 25.9702 64.8594C26.53 65.0575 27.1056 65.2076 27.6909 65.3081C28.0324 65.364 28.3797 65.3751 28.7241 65.341C30.4814 65.127 32.1918 64.6264 33.7871 63.8591C34.6392 63.4475 35.4707 63.0359 36.2981 62.5625L37.3189 62.0109C38.3357 61.4634 39.3565 60.9118 40.328 60.282C40.9784 59.8704 41.5999 59.4176 42.205 58.9442C43.7198 57.7669 45.1276 56.4744 46.5478 55.1654C46.8318 54.9061 47.1199 54.6509 47.4081 54.3957C48.0531 53.8131 48.6633 53.1932 49.2357 52.5392C50.059 51.6171 50.8822 50.6869 51.6561 49.7401C51.9196 49.4232 52.1789 49.1062 52.4341 48.7851C53.2121 47.8096 53.8995 46.764 54.6034 45.7431C54.7598 45.5168 54.9039 45.2862 55.048 45.0557C55.2579 44.7182 55.4596 44.3765 55.6695 44.039C55.8832 43.5131 56.1307 43.0016 56.4105 42.5077C56.8674 41.6845 57.3984 40.9024 57.9376 40.1203C58.4769 39.3811 59.2524 38.8481 60.1357 38.6096C60.2263 38.5766 60.3169 38.5519 60.4033 38.5272C60.5845 38.4798 60.7688 38.4454 60.9549 38.4243C61.1187 38.4039 61.2838 38.3956 61.4488 38.3996C62.3839 38.4671 63.2909 38.7488 64.0998 39.2229C64.7007 39.5316 65.1371 40.2726 65.4993 40.8983C66.6354 42.87 67.6563 44.8993 68.7924 46.871C70.5207 49.8332 72.538 52.617 74.8145 55.1819C75.9493 56.4716 77.1573 57.6948 78.4328 58.8454C80.5683 60.7461 82.8336 62.4957 85.2124 64.0814C85.5664 64.3201 85.941 64.5218 86.3073 64.74L86.5049 64.8594C86.6119 64.9252 86.719 64.9911 86.8219 65.0611C87.3887 65.4482 87.9943 65.7751 88.6289 66.0367L88.9871 66.1725C89.2952 66.2885 89.61 66.3861 89.9297 66.4647C90.2969 66.5586 90.6694 66.6301 91.0452 66.6788C91.9306 66.7878 92.8254 66.7961 93.7126 66.7035C95.1848 66.531 96.6322 66.1898 98.0265 65.6867C98.2776 65.6003 98.5246 65.5098 98.7716 65.4151C100.214 64.8215 101.6 64.0996 102.913 63.2581L103.575 62.8465C103.863 62.6654 104.152 62.476 104.44 62.2908C104.476 62.2606 104.515 62.2331 104.555 62.2084C104.901 61.9862 105.247 61.7557 105.592 61.5252C105.864 61.344 106.132 61.1629 106.391 60.9612C106.688 60.7498 106.974 60.5231 107.247 60.282C107.515 60.0597 107.766 59.8251 108.017 59.574C108.268 59.3229 108.585 58.9936 108.84 58.6767C109.556 57.8534 110.552 57.2524 111.215 56.3015C111.804 55.4412 112.561 54.6962 113.232 53.8894C113.566 53.4777 113.87 53.0661 114.191 52.6545C114.665 52.1148 115.107 51.5471 115.513 50.9544C116.385 49.4602 117.159 47.9125 118.032 46.4265C119.151 44.5124 119.818 42.4172 120.547 40.3425C120.666 39.9844 120.654 39.5934 120.765 39.227C120.905 38.7495 121.09 38.2844 121.259 37.811C121.508 37.1679 121.555 36.4646 121.395 35.794C121.502 35.477 121.65 35.193 121.728 34.8843C121.783 34.5756 121.814 34.2633 121.823 33.9499C121.885 33.1266 121.963 32.2704 122 31.4225C122.002 30.0022 121.825 28.5875 121.473 27.2115C121.399 26.8657 121.473 26.4541 121.308 26.17C120.732 25.1574 120.074 24.1901 119.559 23.3668C119.593 23.1417 119.593 22.9128 119.559 22.6876C119.379 22.3921 119.23 22.079 119.114 21.7532C119.079 21.5143 118.977 21.2903 118.818 21.108C118.66 20.9256 118.453 20.7924 118.221 20.7241C117.88 20.5677 117.6 20.3907 117.674 19.9009C117.676 19.7807 117.654 19.6614 117.609 19.5497C117.565 19.4381 117.498 19.3364 117.414 19.2505C116.912 18.7359 116.352 18.2749 115.834 17.7768C115.22 17.1923 114.142 17.2952 113.755 16.3732C113.755 16.3444 113.664 16.3485 113.619 16.332C112.977 16.0768 112.343 15.8051 111.693 15.5664C111.013 15.2764 110.305 15.0557 109.581 14.9078C109.195 14.844 108.802 14.844 108.416 14.9078C108.28 14.9314 108.141 14.9314 108.004 14.9078C107.909 14.8996 107.814 14.8858 107.72 14.8666V14.8666C107.556 14.8337 107.387 14.7925 107.222 14.7678C107.135 14.7561 107.049 14.734 106.967 14.702C106.871 14.6605 106.766 14.6463 106.663 14.6608C105.156 15.0066 103.588 14.7678 102.081 15.1589L101.781 15.2494C101.308 15.3925 100.829 15.5107 100.344 15.6034C99.8583 15.7063 99.3725 15.801 98.895 15.9204C98.5846 15.998 98.2816 16.1027 97.9895 16.2332C97.8948 16.2744 97.8001 16.3197 97.7095 16.3691C96.8575 16.8177 96.0424 17.3199 95.1986 17.7727C95.0751 17.8427 94.9475 17.9086 94.824 17.9703L94.4453 18.1391C94.2 18.2388 93.9447 18.312 93.6838 18.3573C93.4883 18.382 93.2906 18.382 93.0951 18.3573C92.8066 18.3247 92.527 18.2366 92.2719 18.0979L92.062 17.9744C91.8026 17.8057 91.391 17.8674 91.0246 17.8098C91.0269 17.7824 91.0269 17.7548 91.0246 17.7274C91.0287 17.6752 91.02 17.6228 90.9992 17.5747C90.9784 17.5267 90.9461 17.4844 90.9053 17.4517C90.8124 17.4043 90.705 17.394 90.6048 17.4228C90.459 17.4649 90.3056 17.4733 90.1561 17.4475C90.0326 17.4105 89.9379 17.3117 89.8968 17.0853C89.8968 17.0194 89.7897 16.9618 89.6992 16.9207L89.6127 16.8836C89.0118 16.649 88.4108 16.3938 87.8016 16.1921C87.4558 16.085 87.1059 15.9904 86.756 15.8998C86.4061 15.8092 86.1468 15.7516 85.8422 15.6858C85.5376 15.6199 85.1877 15.4594 84.8625 15.4223C84.6878 15.4017 84.5107 15.4291 84.3504 15.5017C84.1901 15.5742 84.0527 15.6891 83.9528 15.8339L83.7717 15.5623C83.6153 15.6652 83.5041 15.7434 83.4012 15.8175L82.9525 15.2618L82.7549 15.7063C82.7549 15.7516 82.7179 15.7969 82.6973 15.8422C82.2157 15.6405 81.7794 15.4594 81.2607 15.2536V15.8298L80.952 15.6899L80.6803 15.5746C80.6433 15.624 80.6062 15.6734 80.5651 15.7187L80.3675 15.9821C80.281 15.7187 80.2275 15.5458 80.1658 15.3688L79.9147 15.4717L79.6553 15.5746L79.5401 15.6405C79.4578 15.6899 79.3754 15.7393 79.3466 15.7187C79.2621 15.656 79.1629 15.6163 79.0585 15.6034C78.8115 15.6034 78.6921 15.8339 78.6016 16.0151C78.4698 15.9821 78.3505 15.9286 78.2435 15.8957C78.1579 15.8589 78.0632 15.8488 77.9718 15.8669C77.4984 16.0356 77.0333 16.225 76.5558 16.4267L75.7531 16.7601L76.1235 17.4146L74.8887 17.2417L74.8434 17.2747L74.724 17.357L74.6746 17.3858L74.5799 17.4434C74.3988 17.5422 74.2136 17.6287 74.0283 17.7192C73.4648 17.9443 72.9366 18.2492 72.46 18.6248C71.9825 19.0611 71.435 19.4481 70.9411 19.8597C70.5789 20.1553 70.2662 20.5069 70.0149 20.9011C69.9281 21.0432 69.8524 21.1919 69.7885 21.3457C69.7679 21.3951 69.665 21.4074 69.628 21.4568C69.0846 22.1319 68.5001 22.7946 68.0185 23.515C67.6069 24.1283 67.3187 24.8116 66.9688 25.4579C66.516 26.2812 66.0715 27.1456 65.5858 27.9689C65.4664 28.1747 65.3511 28.3805 65.2359 28.5946C64.9109 29.2318 64.516 29.831 64.0586 30.381C63.954 30.4988 63.8397 30.6076 63.7169 30.7062C63.122 31.1623 62.3874 31.398 61.6382 31.3731C61.4071 31.3749 61.1762 31.3625 60.9466 31.336L60.7161 31.3072C60.0739 31.2477 59.454 31.0406 58.905 30.7021C58.5735 30.4797 58.3009 30.1803 58.1105 29.8294C57.8676 29.3931 57.6412 28.9444 57.4107 28.4999C57.2996 28.2776 57.1843 28.0553 57.0691 27.8371C56.7974 27.3267 56.5216 26.8245 56.2458 26.3141C56.1913 26.1358 56.1253 25.9612 56.0482 25.7913L55.4884 24.684C55.1756 24.0666 54.8586 23.4491 54.5499 22.8317C54.4616 22.6089 54.3062 22.419 54.1053 22.2883C53.969 22.2164 53.8126 22.1918 53.6608 22.2184C53.6809 22.0918 53.6892 21.9636 53.6855 21.8356C53.6791 21.6615 53.6371 21.4905 53.562 21.3333C53.4802 21.18 53.3595 21.0508 53.2121 20.9588C52.6399 20.6007 52.2283 20.0655 51.7096 19.6868C50.7629 18.9994 49.7955 18.3367 48.7953 17.7274C48.4618 17.5216 48.1284 17.3158 47.7868 17.1347C46.1161 16.2378 44.3075 15.6257 42.4355 15.3235C40.278 14.879 38.0645 14.772 35.8741 15.0066C34.3749 15.1822 32.9139 15.5992 31.5479 16.2415C30.597 16.6984 29.6008 17.0647 28.6335 17.4764C28.5119 17.5314 28.38 17.5598 28.2466 17.5598C28.1131 17.5598 27.9812 17.5314 27.8596 17.4764C27.7731 17.4381 27.6892 17.3941 27.6085 17.3446C27.0487 17.0112 26.4889 16.6696 25.9167 16.3567C25.7274 16.2497 25.538 16.1468 25.3404 16.048C24.2949 15.517 23.2452 14.9983 22.1832 14.5085L21.4876 14.1957C21.3641 14.1421 21.2365 14.0927 21.1089 14.0474C20.0134 13.7148 18.8863 13.4968 17.7458 13.3971C17.0381 13.2955 16.3244 13.2405 15.6095 13.2324C15.2554 13.2324 14.9014 13.2324 14.5516 13.2612C14.2017 13.2901 13.8435 13.3189 13.4895 13.3641L12.9873 13.4424C12.4598 13.5435 11.9399 13.681 11.4314 13.854C10.5885 14.1433 9.7638 14.4828 8.96158 14.8707C8.45798 15.1027 7.97938 15.3854 7.53322 15.7146C6.96108 16.1398 6.42546 16.6121 5.93197 17.1265C5.17045 17.9209 4.45009 18.773 3.7462 19.5963C3.64741 19.7115 3.7462 20.0079 3.7462 20.1849C3.80394 20.3597 3.87982 20.528 3.9726 20.6871C3.7462 20.7324 3.58978 20.7571 3.43336 20.7818C3.35515 20.6583 3.25636 20.5389 3.06701 20.2754C2.89824 20.8353 2.77886 21.2222 2.71712 21.4239C2.38962 21.8269 2.09635 22.2565 1.84035 22.7082C1.37851 23.6258 0.993011 24.5799 0.687773 25.5608C0.66779 25.6139 0.653976 25.6692 0.646607 25.7255C0.364256 26.7775 0.171475 27.8516 0.070324 28.9362C-0.00452175 30.0089 -0.0196385 31.0849 0.0250442 32.1593C0.00659799 33.1217 0.0519747 34.0843 0.16088 35.0407C0.575938 37.546 1.36259 39.9753 2.49484 42.2484C3.49059 44.4688 4.72595 46.5737 6.17895 48.5258C6.42822 48.7824 6.65414 49.0606 6.85403 49.3573V49.3573ZM120.329 39.8362C120.343 39.8546 120.352 39.8756 120.358 39.898C120.358 39.898 120.333 39.9268 120.316 39.9474C120.318 39.9101 120.323 39.873 120.329 39.8362ZM118.497 36.8766L118.452 36.8437L118.505 36.819L118.497 36.8766ZM118.612 26.0301C118.76 26.1495 118.896 26.273 119.024 26.3923L118.88 26.5817L118.427 26.2729L118.612 26.0301ZM117.789 40.112L117.818 40.1573C117.818 40.1573 117.797 40.1944 117.785 40.1944C117.767 40.1904 117.75 40.1819 117.735 40.1697L117.789 40.112ZM117.612 41.915L117.505 41.9932C117.503 41.9548 117.503 41.9163 117.505 41.8779L117.612 41.915ZM117.48 22.9511C117.491 22.9677 117.499 22.9857 117.505 23.0046C117.505 23.0046 117.468 23.0046 117.456 23.0046C117.443 23.0046 117.456 22.9758 117.431 22.9552C117.406 22.9346 117.456 22.9469 117.468 22.9511H117.48ZM87.1471 62.1055C87.1471 62.1055 87.11 62.1055 87.0894 62.1055C87.0689 62.1055 87.1182 62.0438 87.1306 62.0191C87.1463 62.0323 87.1602 62.0475 87.1718 62.0644C87.1662 62.0795 87.1578 62.0935 87.1471 62.1055ZM101.085 60.9736C101.085 60.9736 101.052 60.9736 101.036 60.953L101.114 60.9118C101.101 60.9406 101.101 60.9653 101.085 60.9736ZM115.698 46.2618C115.698 46.2412 115.698 46.2248 115.698 46.2042C115.698 46.1836 115.735 46.1836 115.751 46.2042C115.768 46.2248 115.776 46.2289 115.788 46.2454C115.758 46.2474 115.727 46.253 115.698 46.2618V46.2618ZM117.069 27.866C117.069 27.866 117.069 27.903 117.069 27.9195C117.069 27.9359 117.027 27.9483 117.015 27.9442C117.003 27.9254 116.995 27.9044 116.99 27.8824C117.027 27.8783 117.056 27.8577 117.069 27.866V27.866ZM116.624 23.2351C116.669 23.3215 116.706 23.4039 116.748 23.4903L116.534 23.3133L116.624 23.2351ZM116.501 27.7301C116.501 27.7301 116.501 27.7672 116.501 27.7877C116.501 27.8083 116.472 27.7877 116.451 27.8124L116.414 27.7754C116.439 27.7555 116.467 27.7402 116.496 27.7301H116.501ZM116.336 22.7905C116.309 22.8101 116.28 22.8266 116.249 22.8399C116.249 22.7864 116.212 22.7247 116.196 22.6629L116.336 22.7905ZM115.924 22.1895C115.99 22.3295 116.064 22.4695 116.138 22.6012C116.015 22.5024 115.883 22.4118 115.76 22.3172L115.924 22.1895ZM93.0334 19.2299V19.2711C93.0334 19.2711 92.9964 19.2711 92.9717 19.2711C92.947 19.2711 92.9717 19.2299 92.9717 19.2258C92.9922 19.2208 93.0137 19.2222 93.0334 19.2299ZM92.7988 22.0372C92.7988 22.0661 92.737 22.0743 92.7 22.0949C92.6629 22.1155 92.6506 22.0167 92.6588 21.9796C92.6671 21.9426 92.7247 21.9467 92.7535 21.9261C92.7823 21.9055 92.7905 22.0331 92.7782 22.0331L92.7988 22.0372ZM91.5639 19.835C91.5639 19.8556 91.5392 19.8679 91.5268 19.8803C91.5286 19.8501 91.5286 19.8199 91.5268 19.7897C91.5268 19.7897 91.5639 19.8226 91.5598 19.835H91.5639ZM87.25 18.4437C87.25 18.4437 87.287 18.4437 87.3035 18.4437C87.2757 18.4643 87.2452 18.4809 87.2129 18.4931C87.2253 18.4807 87.2335 18.4478 87.2459 18.4437H87.25ZM84.669 15.9039H84.7596C84.9819 15.9615 85.2083 16.0151 85.4306 16.0645C85.4306 16.1344 85.3935 16.2044 85.377 16.2703L84.632 16.0192C84.6402 15.9945 84.6526 15.9533 84.6649 15.9039H84.669ZM75.6337 20.3207C75.4114 20.4895 75.2509 20.6048 75.0945 20.7324C75.0522 20.685 75.0124 20.6356 74.9751 20.5842C75.0245 20.3084 75.0656 20.0079 75.6296 20.3207H75.6337ZM74.8475 19.6374C74.7775 19.7403 74.7199 19.8309 74.654 19.9338L74.5388 19.7897C74.6376 19.7403 74.7446 19.6909 74.8434 19.6374H74.8475ZM73.7608 21.4198L73.7237 21.3745L73.8143 21.3045L73.8513 21.3457L73.7608 21.4198ZM73.839 21.9755C73.8062 21.9927 73.7717 22.0065 73.7361 22.0167C73.7361 22.0167 73.6826 21.9796 73.6908 21.9796C73.708 21.9462 73.7302 21.9157 73.7567 21.8891L73.839 21.9755ZM73.6661 18.4231C73.6167 18.2955 73.5673 18.2379 73.5796 18.1844C73.592 18.1309 73.6579 18.0979 73.7114 18.0815C73.7649 18.065 73.8143 18.135 73.8143 18.1514C73.7712 18.2461 73.7203 18.337 73.662 18.4231H73.6661ZM70.3278 22.7164L70.3977 22.807C70.3977 22.807 70.3483 22.8317 70.3401 22.807C70.3131 22.7803 70.2883 22.7513 70.266 22.7205L70.3278 22.7164ZM69.7268 32.7561C70.0108 30.2575 70.6118 27.8166 72.3448 25.8901C73.3046 24.7717 74.3611 23.7401 75.502 22.807C76.5672 22.0148 77.7122 21.336 78.9185 20.7818C79.4043 20.5348 80.0464 20.6007 80.6144 20.5224C80.6125 20.5457 80.6125 20.5691 80.6144 20.5924C81.1215 20.5773 81.6272 20.5333 82.1293 20.4607C84.5414 20.0202 86.7807 20.6418 88.9829 21.5433C90.4781 22.1336 91.7774 23.132 92.7329 24.4247C93.1445 24.9763 93.478 24.9887 93.8855 24.4576C94.8611 23.1939 96.1742 22.3995 97.5243 21.6215C99.6784 20.4572 101.992 19.6153 104.39 19.1229C104.938 19.0294 105.499 19.0518 106.037 19.1888C106.733 19.3493 107.441 19.4769 108.144 19.6374C108.834 19.7872 109.508 20.0022 110.157 20.2796C110.592 20.4764 111.012 20.7048 111.413 20.9629C112.1 21.3912 112.676 21.9749 113.096 22.667C113.87 24.0007 114.669 25.3262 115.418 26.6804C115.907 27.4332 116.286 28.2526 116.542 29.1132C116.911 30.5644 116.98 32.076 116.743 33.5547C116.566 34.4644 116.603 35.4276 116.332 36.3085C116.122 36.9877 116.455 37.7616 115.92 38.3667C115.92 39.6716 115.216 40.7953 114.969 42.0385C114.95 42.1246 114.922 42.2087 114.887 42.2896C114.764 42.5336 114.627 42.77 114.475 42.9976C113.286 45.0557 112.15 47.1139 110.878 49.1185C110.845 49.1597 110.82 49.2009 110.791 49.242C110.101 50.1917 109.346 51.0926 108.531 51.9382C108.12 52.4075 107.708 52.8562 107.247 53.2925C107.054 53.486 106.86 53.6712 106.658 53.8564C105.596 54.8361 104.506 55.7952 103.411 56.7379C102.489 57.52 101.583 58.3268 100.595 59.0101C98.8403 60.2644 96.9056 61.2456 94.8569 61.9203C94.5335 62.0201 94.1939 62.0564 93.8567 62.0273C93.597 62.0105 93.3394 61.9706 93.0869 61.908C90.5595 61.3317 88.3367 60.1091 86.2044 58.7343C84.5904 57.669 83.0564 56.4873 81.6147 55.1984C80.1018 53.9101 78.6899 52.5079 77.3914 51.0038C75.8519 49.1803 74.5099 47.1798 73.1104 45.241C72.299 44.1472 71.6089 42.9685 71.0522 41.7256C70.8711 41.314 70.7065 40.9024 70.5624 40.466C70.1277 39.1286 69.8366 37.7487 69.6938 36.3497C69.5689 35.1546 69.5786 33.9491 69.7227 32.7561H69.7268ZM68.78 39.8362C68.8047 39.8362 68.8582 39.9062 68.8459 39.9227C68.8177 39.9758 68.7816 40.0244 68.7389 40.0667C68.6648 40.0091 68.5865 39.9474 68.5125 39.8815C68.603 39.8692 68.6853 39.8445 68.7759 39.8362H68.78ZM66.6889 35.4565L66.6642 35.4935V35.4523L66.6889 35.4565ZM62.4573 32.7356V32.4392H62.5726L62.6261 32.7479L62.4573 32.7356ZM54.5663 32.7356H54.3482C54.3811 32.5503 54.4099 32.3527 54.447 32.1593H54.6157C54.6034 32.3651 54.5869 32.5627 54.5663 32.7561V32.7356ZM54.8833 29.9653L54.6693 29.7348L54.8092 29.6195C54.8668 29.7101 54.9204 29.8006 54.9821 29.8912L54.8833 29.9653ZM54.0148 23.7908C54.0477 23.8937 54.0765 23.9884 54.1012 24.0913L54.023 24.1283C53.9818 24.0296 53.9324 23.9266 53.8913 23.832C53.9283 23.8361 53.9736 23.8155 54.0148 23.8073V23.7908ZM53.8336 26.9151H54.0106C54.0125 26.9329 54.0125 26.9508 54.0106 26.9686C53.9517 26.9726 53.8926 26.9726 53.8336 26.9686C53.8344 26.9563 53.8344 26.9439 53.8336 26.9316V26.9151ZM2.12437 26.7257C2.09869 26.6917 2.07531 26.6559 2.05439 26.6187L2.16142 26.6846L2.12437 26.7257ZM2.21081 26.1289H2.09144C2.09144 26.1289 2.09144 26.0836 2.09144 26.0754C2.13513 26.0691 2.17948 26.0691 2.22316 26.0754C2.21237 26.0985 2.2081 26.1241 2.21081 26.1495V26.1289ZM3.33045 20.9217L3.28517 20.8394C3.34025 20.8191 3.39664 20.8026 3.45394 20.79C3.40866 20.8476 3.37573 20.897 3.33045 20.9382V20.9217ZM34.6763 61.3317C34.6763 61.3317 34.6475 61.3317 34.6269 61.3317V61.2741H34.6804C34.6833 61.2988 34.6819 61.3239 34.6763 61.3482V61.3317ZM49.4004 45.4138C49.3715 45.4138 49.3345 45.3686 49.3016 45.3439L49.3757 45.2615C49.4045 45.2862 49.4415 45.3027 49.4745 45.3274C49.5074 45.3521 49.4004 45.4138 49.4004 45.4138ZM52.7634 22.2801C52.7256 22.2702 52.6884 22.2579 52.6523 22.2431C52.6466 22.2229 52.6466 22.2015 52.6523 22.1813C52.6918 22.1899 52.7304 22.2023 52.7675 22.2184L52.7634 22.2801ZM52.1995 21.7944C52.1721 21.7665 52.1473 21.7362 52.1254 21.7038C52.1254 21.6832 52.1748 21.6585 52.1995 21.638C52.2309 21.6636 52.2562 21.6959 52.2736 21.7326C52.2818 21.7532 52.2118 21.7738 52.1871 21.7944H52.1995ZM52.253 23.5932C52.253 23.5932 52.2118 23.655 52.1871 23.6838C52.1624 23.7126 52.1089 23.6344 52.1007 23.6056C52.0924 23.5768 52.1377 23.5438 52.1583 23.5068C52.1789 23.5397 52.2283 23.5562 52.2406 23.5932H52.253ZM50.6311 19.8885L50.5282 19.9338C50.5282 19.9338 50.483 19.905 50.483 19.8926L50.5447 19.8062C50.5722 19.8415 50.6024 19.8746 50.6353 19.905L50.6311 19.8885ZM49.565 18.9953C49.528 19.0611 49.495 19.1352 49.4662 19.2011L48.9517 18.9541C48.9805 18.8883 49.0134 18.8183 49.0422 18.7606L49.565 18.9953ZM46.4613 17.2705C46.4613 17.2705 46.4243 17.2705 46.4078 17.2994L46.3625 17.2582C46.389 17.2414 46.4165 17.2262 46.4448 17.2129C46.4448 17.2129 46.449 17.2746 46.449 17.287L46.4613 17.2705ZM43.7034 18.633L43.6416 18.6619C43.6416 18.6619 43.6005 18.6372 43.6005 18.6207C43.6005 18.6042 43.6005 18.5837 43.6252 18.5672L43.7034 18.633ZM42.7937 18.4931C42.7492 18.5484 42.7011 18.6007 42.6496 18.6495C42.5981 18.6007 42.55 18.5484 42.5055 18.4931C42.5549 18.4519 42.6002 18.3778 42.6496 18.3778C42.699 18.3778 42.736 18.4684 42.7813 18.5096L42.7937 18.4931ZM41.7646 18.8018C41.6699 18.8883 41.5999 18.9418 41.5423 18.9912C41.5458 18.9218 41.5555 18.853 41.5711 18.7853C41.6324 18.7902 41.6931 18.8012 41.7522 18.8183L41.7646 18.8018ZM40.6738 15.7228V15.7722C40.6738 15.7722 40.6367 15.7722 40.612 15.7722C40.5873 15.7722 40.612 15.7228 40.612 15.7187L40.6738 15.7228ZM27.7156 19.9832L28.0531 20.4154C27.9913 20.4613 27.9322 20.5108 27.8761 20.5636C27.7485 20.4195 27.625 20.2755 27.4974 20.152C27.555 20.0985 27.6291 20.0491 27.7032 19.9997L27.7156 19.9832ZM27.2093 19.728C27.2093 19.765 27.1887 19.8062 27.1763 19.8515L26.8964 19.7527L26.9335 19.6333L27.2093 19.728ZM25.6903 21.037C25.6903 21.0617 25.7191 21.0905 25.7397 21.1234C25.7158 21.1168 25.6935 21.1057 25.6739 21.0905C25.6739 21.0905 25.6739 21.074 25.678 21.0534L25.6903 21.037ZM23.9532 16.4555C23.9532 16.4802 23.8915 16.5008 23.8544 16.5255C23.8235 16.4702 23.8013 16.4105 23.7886 16.3485C23.7886 16.3485 23.8545 16.2991 23.908 16.262C23.928 16.3303 23.939 16.4009 23.9409 16.472L23.9532 16.4555ZM19.7958 18.5137C19.7587 18.5137 19.7217 18.5672 19.6928 18.5672C19.664 18.5672 19.6434 18.5137 19.6187 18.4849C19.6558 18.4849 19.6928 18.4231 19.7175 18.4272C19.7422 18.4313 19.7628 18.4807 19.7834 18.5096L19.7958 18.5137ZM16.6879 18.0485L16.4615 18.0156C16.4615 17.9744 16.4862 17.9374 16.5027 17.8962C16.5652 17.9042 16.6271 17.9166 16.6879 17.9333C16.6879 17.9333 16.6756 17.9991 16.6756 18.0444L16.6879 18.0485ZM5.19103 30.3975C5.31371 27.5502 6.38605 24.8258 8.23711 22.6588C9.02306 21.7208 9.95416 20.9148 10.995 20.2713C11.5985 19.9024 12.2352 19.591 12.8968 19.3411C13.7112 19.0289 14.5533 18.7946 15.4119 18.6413C16.0499 18.526 16.7044 18.5219 17.3548 18.4602C17.3918 18.279 17.4289 18.1226 17.4618 17.958C17.9412 18.1255 18.41 18.3221 18.8655 18.5466C19.3512 18.8183 19.7793 19.1887 20.3515 18.703C20.4461 18.6248 20.6766 18.703 20.8413 18.703C20.8207 18.8265 20.8043 18.9418 20.7796 19.057C21.0512 19.1723 21.3064 19.2958 21.6275 19.4687V18.8265C21.8704 19.0776 22.0103 19.2134 22.2038 19.411C22.5455 19.2628 22.8213 19.3658 23.1259 19.7733C23.4815 20.157 23.8989 20.4784 24.3608 20.7241C24.83 21.0287 25.3199 21.2798 25.8221 21.5721L26.6865 21.1605V22.2636C27.1228 22.3995 27.3739 22.9675 27.9214 22.5806C28.5471 22.7864 28.5388 22.77 29.8808 22.1484C30.9716 21.6544 32.0748 21.1728 33.1944 20.7571C33.9082 20.493 34.6644 20.3619 35.4254 20.3701C36.4586 20.3701 37.4836 20.3084 38.5374 20.2466C39.9205 20.1684 41.2212 20.5265 42.5302 20.8723C43.7741 21.2011 44.956 21.7308 46.0291 22.4406C46.9201 23.0935 47.7471 23.8295 48.4989 24.6388C49.0012 25.1561 49.4688 25.7062 49.8984 26.2853C50.0743 26.5386 50.213 26.8159 50.3101 27.1086C50.8987 28.6728 51.512 30.2205 52.0307 31.8053C52.4753 33.1678 52.3188 34.6044 52.1953 35.9916C52.1078 37.68 51.765 39.3454 51.1786 40.9312C50.9568 41.4115 50.7053 41.8776 50.4253 42.3266C49.8469 43.5219 49.2081 44.6869 48.5112 45.8173C47.3848 47.5031 46.1687 49.1272 44.8683 50.6827C43.9743 51.6576 43.0113 52.567 41.9869 53.4036C41.0813 54.1981 40.1469 54.9596 39.2001 55.7129C38.3142 56.4866 37.3701 57.1912 36.3763 57.8205C34.4581 58.9031 32.4493 59.8251 30.5023 60.8542C30.0371 61.1018 29.5144 61.2212 28.9878 61.2002C28.4612 61.1792 27.9497 61.0186 27.5056 60.7348C27.4267 60.6962 27.3498 60.6536 27.2751 60.6072C26.0402 59.8745 24.7559 59.1788 23.5375 58.4008C21.4284 57.1257 19.4976 55.5768 17.7952 53.7947C17.2971 53.2554 16.7579 52.7656 16.231 52.2593C16.0087 52.0494 15.7906 51.8477 15.5765 51.6172C15.0537 51.082 14.5845 50.5016 14.1111 49.9253C13.753 49.489 13.4978 48.9292 13.0614 48.5958C12.7195 48.3431 12.423 48.0341 12.1847 47.6819C12.012 47.4267 11.8736 47.1499 11.773 46.8587C11.4972 46.1383 10.8016 45.5785 10.2912 44.9487C10.1913 44.8455 10.1004 44.7339 10.0195 44.6153C8.9657 42.5571 7.7555 40.5319 6.89931 38.3832C5.81671 35.8269 5.01815 33.1925 5.17868 30.3851L5.19103 30.3975Z" fill="#76C2BC"/>
</svg>
