<svg width="51" height="29" viewBox="0 0 51 29" fill="none" xmlns="http://www.w3.org/2000/svg">
<path d="M17.6423 18.9563C15.1413 19.3565 12.0901 19.8067 9.53906 19.6566V16.9555C9.53906 11.0531 13.4406 6.05112 18.7428 4.50049C16.6419 7.5017 16.9421 13.8042 17.6423 18.9563Z" fill="#707F95"/>
<path d="M19.9931 4.7503C20.6934 4 21.2936 4 22.194 4C23.0443 4 23.8447 4.10004 24.645 4.2501C28.1964 6.75111 30.5974 11.303 31.1976 16.5051C27.4961 16.9052 23.1944 17.9556 18.7426 18.756C17.7922 11.7031 18.1924 6.60105 19.9931 4.7503Z" fill="#707F95"/>
<path d="M32.3485 16.4049C31.8482 11.9531 30.0475 7.95152 27.3965 5.15039C31.6482 7.10118 34.6494 11.3529 34.8495 16.3549C33.9991 16.3049 33.1988 16.3049 32.3485 16.4049ZM41.5522 22.1072C38.0508 22.1072 33.649 25.8087 27.7966 25.9088C24.2452 26.0088 20.4436 23.2077 17.0923 20.2065C23.795 19.106 30.9479 17.1052 35.1996 17.5054C37.2004 19.2561 39.6514 20.6567 41.5522 22.1072Z" fill="#707F95"/>
</svg>
