<svg width="51" height="29" viewBox="0 0 51 29" fill="none" xmlns="http://www.w3.org/2000/svg">
<g clip-path="url(#clip0_1072_2199)">
<path d="M34.4799 10.4808C34.3848 10.3242 34.2574 10.1903 34.1064 10.0881C33.9553 9.98593 33.7843 9.91791 33.6049 9.88864C32.3265 9.75021 32.6613 11.4267 32.844 12.1111C33.0295 12.7853 33.0295 13.4979 32.844 14.1721C32.7852 14.3835 32.6706 14.5746 32.5124 14.725C32.3542 14.8754 32.1584 14.9794 31.9461 15.0257C30.683 15.2026 31.2993 13.3416 31.2384 12.7187C31.1928 12.2419 31.0254 11.5882 30.5308 11.4036C28.7655 10.7499 29.709 14.9565 29.4959 15.7255C29.4058 16.1119 29.1713 16.4481 28.8415 16.6638C28.6265 16.7907 28.3778 16.8471 28.1297 16.825C27.8817 16.803 27.6465 16.7036 27.4567 16.5407C26.749 15.9101 27.1523 14.6643 27.3806 13.9029C27.8479 12.5153 28.4019 11.1591 29.0394 9.8425C29.6398 8.71469 29.9041 7.43522 29.8003 6.15883C29.7296 5.58425 29.512 5.03823 29.1687 4.57464C28.8415 4.15167 28.3165 3.86716 27.8676 4.3132C27.4186 4.75923 27.6545 5.68206 27.6926 6.32804C27.7306 6.97402 27.5937 8.63512 26.7186 8.63512C26.5399 8.61477 26.3702 8.5452 26.2279 8.43399C26.0857 8.32279 25.9764 8.17421 25.912 8.00451C25.6385 7.20756 25.5449 6.35884 25.6381 5.52057C25.6381 4.68233 25.7446 3.84409 25.7903 3.01354C25.9085 2.2447 25.8696 1.45955 25.6762 0.706458C25.6286 0.555948 25.547 0.418711 25.4377 0.305704C25.3285 0.192696 25.1947 0.107006 25.0469 0.0554792C24.8991 0.00395273 24.7415 -0.0119708 24.5865 0.00891705C24.4316 0.0298049 24.2836 0.0869574 24.1543 0.175827C23.8966 0.384065 23.6927 0.652411 23.5602 0.957809C23.4276 1.26321 23.3704 1.59651 23.3934 1.92918C23.3478 2.69821 24.0554 5.28214 23.2793 5.77432C22.5031 6.2665 22.1075 5.16678 21.8259 4.71306C21.5444 4.25933 20.8596 2.78281 20.0758 3.75947C19.9622 3.92436 19.8868 4.113 19.8552 4.31136C19.8236 4.50973 19.8366 4.71272 19.8932 4.90531C20.1976 6.12038 21.1792 6.78946 22.0466 7.58156C23.6275 9.08334 24.5734 11.1441 24.687 13.3339C24.8239 15.0027 25.1055 18.4402 22.8684 18.9401C22.5394 18.9943 22.2019 18.938 21.9078 18.7796C21.6136 18.6212 21.379 18.3696 21.24 18.0634C20.5248 16.8483 20.8215 15.3333 21.1487 14.0491C21.3669 13.3094 21.5397 12.5569 21.6661 11.7958C21.7559 11.491 21.7644 11.1677 21.6909 10.8585C21.6174 10.5493 21.4645 10.2651 21.2476 10.0348C21.1489 9.954 21.0338 9.8963 20.9104 9.86587C20.7871 9.83545 20.6586 9.83305 20.5342 9.85879C20.4098 9.88452 20.2925 9.93775 20.1909 10.0147C20.0893 10.0917 20.0058 10.1904 19.9465 10.3039C19.755 10.8987 19.6953 11.5288 19.7715 12.1496C19.7715 12.8186 20.0073 13.6876 19.703 14.3413C19.1019 15.5564 18.4703 14.1567 18.1812 13.6338C17.8616 12.9878 17.4202 12.3264 16.6593 12.7571C16.3879 12.9315 16.183 13.1938 16.078 13.501C15.973 13.8083 15.974 14.1424 16.081 14.449C16.393 15.6025 17.2833 15.987 18.0822 16.6791C19.6041 18.0557 19.8171 20.232 21.065 21.8316C21.6653 22.4148 22.099 23.1507 22.3205 23.9618C22.51 25.1086 22.4398 26.2839 22.1151 27.3993C21.8716 28.4375 22.3053 28.7298 23.3173 28.9374C24.0782 29.1297 25.3413 29.1835 25.6001 28.1684C26.0642 26.6303 25.1968 24.8923 25.0446 23.362C24.8696 21.6701 25.8512 19.8706 27.8067 20.3551C29.0242 20.655 30.0894 21.7393 31.383 21.8393C31.7239 21.8792 32.0692 21.8244 32.3816 21.6807C32.694 21.5371 32.9617 21.3101 33.1559 21.0241C33.4679 20.3243 32.8896 19.7783 32.2352 19.7552C31.5808 19.7321 30.3177 19.7014 30.4319 18.6863C30.5232 17.9173 31.9537 17.4866 32.5396 17.0944C33.2502 16.6089 33.8433 15.9674 34.2745 15.218C35.0354 13.8876 35.3093 11.865 34.4951 10.4885L34.4799 10.4808Z" fill="#707F95"/>
</g>
<defs>
<clipPath id="clip0_1072_2199">
<rect width="51" height="29" fill="white"/>
</clipPath>
</defs>
</svg>
