<svg width="51" height="29" viewBox="0 0 51 29" fill="none" xmlns="http://www.w3.org/2000/svg">
<path d="M32.3532 23.9471C32.6176 23.1385 31.809 22.1486 30.5471 21.7359C29.2852 21.3232 28.0479 21.644 27.7835 22.4526C27.519 23.2611 28.3276 24.2511 29.5896 24.6638C30.8515 25.0765 32.0888 24.7556 32.3532 23.9471Z" fill="#707F95"/>
<path d="M29.22 5.15588C28.7601 4.37897 27.9815 3.73436 27.0659 3.84019C26.7356 3.87787 26.0933 4.00536 25.7647 4.02701C25.3601 4.03935 24.9563 3.9829 24.5717 3.86023L22.5398 3.21882C22.263 3.12158 21.9767 3.052 21.6853 3.01116C21.3592 2.97862 21.0297 3.01747 20.7211 3.12486C20.4125 3.23226 20.1326 3.40547 19.902 3.63174C19.1961 4.33569 19.0871 5.40444 19.0169 6.385C19.0078 6.51649 19.0004 6.6584 19.0722 6.77065C19.149 6.86953 19.2568 6.94156 19.3794 6.97591C20.3759 7.34232 21.4847 7.09697 22.5497 7.09457C24.3934 7.08976 26.1825 7.82577 28.0245 7.76724C29.7467 7.71272 29.9366 6.36815 29.22 5.15588Z" fill="#707F95"/>
<path d="M36.5031 15.1913C36.5031 20.7534 30.0218 25.2625 22.0264 25.2625C14.031 25.2625 10 20.7534 10 15.1913C10 9.62918 14.0318 5.12012 22.0264 5.12012C30.0209 5.12012 36.5031 9.62918 36.5031 15.1913Z" fill="#707F95"/>
<path d="M19.7082 20.8081C20.1596 19.0571 20.1171 17.2664 19.9691 15.4781C19.8162 13.6767 19.5063 11.8736 18.8488 10.1845C18.2619 8.70856 17.4156 7.35198 16.3509 6.18018C12.1333 7.78917 10 11.2351 10 15.2394C10 19.6509 12.5847 23.3885 17.7008 24.7323C18.6513 23.5919 19.3372 22.2511 19.7082 20.8081Z" fill="#707F95"/>
<path d="M40.1714 12.0137C40.749 11.9596 40.7457 12.8154 40.7432 13.2532C40.7299 15.4364 40.4939 17.6122 40.257 19.783C40.2246 20.0806 40.1215 20.4545 39.8198 20.4897C39.6743 20.5069 39.5372 20.4323 39.4109 20.3594L36.0762 18.4451C35.6141 18.1803 35.1386 17.9032 34.8294 17.4753C34.3424 16.8055 34.3532 15.9119 34.4097 15.0896C34.4363 14.7002 34.482 14.2813 34.7422 13.9902C34.9217 13.7927 35.1777 13.6828 35.4262 13.5803C36.9342 12.9678 38.4803 12.4508 40.055 12.0325C40.0932 12.023 40.1321 12.0167 40.1714 12.0137V12.0137Z" fill="#707F95"/>
<path d="M16.1352 15.2287C16.1352 15.961 15.5747 16.6039 14.8163 16.6039C14.0579 16.6039 13.4678 15.961 13.4678 15.2287C13.4678 14.4964 14.0579 13.9365 14.8163 13.9365C15.5747 13.9365 16.1352 14.4948 16.1352 15.2287Z" fill="#707F95"/>
<path d="M15.3348 15.245C15.3348 15.6844 14.9985 16.0702 14.5435 16.0702C14.0885 16.0702 13.7344 15.6844 13.7344 15.245C13.7344 14.8057 14.0885 14.4697 14.5435 14.4697C14.9985 14.4697 15.3348 14.8047 15.3348 15.245Z" fill="#707F95"/>
<path d="M21.0596 19.922C21.3032 20.1133 21.6119 20.2244 21.9146 20.3273C22.7917 20.6297 23.683 20.939 24.6209 21.0161C24.7023 21.0276 24.7854 21.0229 24.8645 21.0025C24.9505 20.9697 25.0234 20.9143 25.0734 20.8437C25.3128 20.5413 25.3271 20.1519 25.333 19.7851C25.346 19.029 25.3581 18.2749 25.3694 17.5229C25.3764 17.4376 25.3667 17.3519 25.3407 17.2696C25.2886 17.1605 25.1999 17.0686 25.0869 17.0065C24.8255 16.845 24.511 16.7667 24.1939 16.7841C23.897 16.8008 23.6145 16.9013 23.3422 17.011C22.5751 17.3134 21.5214 17.6779 20.9201 18.2117C20.4126 18.6563 20.5488 19.5205 21.0596 19.922Z" fill="#707F95"/>
</svg>
