<?xml version="1.0" encoding="utf-8"?>
<!-- Generator: Adobe Illustrator 27.0.1, SVG Export Plug-In . SVG Version: 6.00 Build 0)  -->
<svg version="1.1" id="レイヤー_1" xmlns="http://www.w3.org/2000/svg" xmlns:xlink="http://www.w3.org/1999/xlink" x="0px"
	 y="0px" viewBox="0 0 74 54" style="enable-background:new 0 0 74 54;" xml:space="preserve">
<style type="text/css">
	.st0{fill:#B53300;}
	.st1{fill:#E54D26;}
	.st2{fill:#FFB596;}
	.st3{fill:#FFFFFF;}
	.st4{fill:#231815;}
	.st5{fill:none;stroke:#000000;stroke-miterlimit:10;}
</style>
<g id="ひれ_xFF08_濃_xFF09__00000154385127085484006840000002583164847922496694_">
	<path class="st0" d="M53.3,49.9c0.6-1.9-1.3-4.3-4.3-5.3s-6-0.2-6.6,1.7s1.3,4.3,4.3,5.3S52.6,51.8,53.3,49.9z"/>
	<path class="st0" d="M45.8,5.1c-1.1-1.9-3-3.4-5.1-3.1c-0.8,0.1-2.3,0.4-3.1,0.4c-1,0-1.9-0.1-2.8-0.4L30,0.5
		c-0.7-0.2-1.3-0.4-2-0.5c-0.8-0.1-1.6,0-2.3,0.3c-0.7,0.3-1.4,0.7-2,1.2c-1.7,1.7-1.9,4.2-2.1,6.6c0,0.3,0,0.7,0.1,0.9
		c0.2,0.2,0.4,0.4,0.7,0.5c2.4,0.9,5,0.3,7.6,0.3c4.4,0,8.7,1.7,13,1.6C47.1,11.2,47.5,8,45.8,5.1z"/>
</g>
<path id="本体_xFF08_中_xFF09_" class="st1" d="M71.9,21.5c-0.1,0-0.2,0-0.3,0c-3.1,0.8-6.1,1.8-9.1,2.9
	c-3.1-11-17-19.3-33.8-19.3C9.6,5.1,0,15.8,0,29s9.6,24,28.7,24c15.4,0,28.4-7,32.8-16.6c0.2,0.1,0.4,0.3,0.6,0.4l7.9,4.6
	c0.3,0.2,0.6,0.4,1,0.3c0.7-0.1,1-1,1-1.7c0.6-5.2,1.1-10.4,1.2-15.6C73.3,23.4,73.3,21.3,71.9,21.5z"/>
<g id="ひれ_xFF08_濃_xFF09_">
	<path class="st0" d="M26.4,40.3c0.6,0.5,1.3,0.7,2,1c2.1,0.7,4.2,1.5,6.4,1.6c0.2,0,0.4,0,0.6,0c0.2-0.1,0.4-0.2,0.5-0.4
		c0.6-0.7,0.6-1.6,0.6-2.5c0-1.8,0.1-3.6,0.1-5.4c0-0.2,0-0.4-0.1-0.6c-0.1-0.3-0.3-0.5-0.6-0.6c-0.6-0.4-1.4-0.6-2.1-0.5
		c-0.7,0-1.4,0.3-2,0.5C30,34.1,27.5,35,26,36.2C24.8,37.3,25.1,39.4,26.4,40.3z"/>
</g>
<g id="模様_xFF08_薄_xFF09_">
	<path class="st2" d="M44.4,43.1c-0.8-5.2-1.7-11.9-0.5-21.6c0.9-6.9,0.2-11.7-0.2-14c-3.4-1.2-7.2-1.9-11.1-2.2c0,0,0,0,0,0
		c2,4,5.7,12.2,5.4,18.7c-0.4,8.3-4.8,23.4-3.4,28.7h0c4.4-0.5,8.4-1.6,12.1-3.1C45.6,47.7,44.7,45.4,44.4,43.1z"/>
	<path class="st2" d="M15.5,50.9c1.5,0.5,3.1,1,4.7,1.3c2.1-4.2,9.2-19.6,4.5-30.5C21.4,14.1,20.7,8.9,20,6c-2.1,0.4-4.1,1-5.8,1.8
		C16.6,11.6,25.4,28.1,15.5,50.9z"/>
	<path class="st2" d="M62.5,24.4c-1.1-3.9-3.6-7.4-7-10.4c-0.3,3.6-1.1,18.6,1.4,28.9c2-2,3.6-4.1,4.6-6.5c0.2,0.1,0.3,0.2,0.5,0.3
		c0-2,0.1-4.6,0.7-8c0.3-1.9,0.6-3.5,0.9-4.8C63.3,24.1,62.9,24.3,62.5,24.4z"/>
</g>
<g id="色変わらん">
	<path class="st3" d="M11.6,31.3c2.2,0,4-1.8,4-4s-1.8-4-4-4s-4,1.8-4,4C7.6,29.5,9.4,31.3,11.6,31.3z"/>
	<path class="st4" d="M12.1,28.9c1.3,0,2.4-1.1,2.4-2.4s-1.1-2.4-2.4-2.4s-2.4,1.1-2.4,2.4C9.6,27.8,10.7,28.9,12.1,28.9z"/>
	<path d="M73.2,24.4c0.1-1,0.1-3.1-1.3-2.9c-0.1,0-0.2,0-0.3,0c-0.3,0.1-0.6,0.2-1,0.3c0.5,2.3,1.7,10-1,19.4l0.3,0.2
		c0.3,0.2,0.6,0.4,1,0.3c0.7-0.1,1-1,1-1.7C72.6,34.8,73.1,29.6,73.2,24.4z"/>
	<path d="M40.7,2c-0.8,0.1-2.3,0.4-3.1,0.4c-1,0-1.9-0.1-2.8-0.4L30,0.5c-0.7-0.2-1.3-0.4-2-0.5c-0.8-0.1-1.6,0-2.3,0.3
		s-1.4,0.7-2,1.2c-0.2,0.2-0.3,0.4-0.5,0.6c0.1,0,0.2,0,0.2-0.1c2.1-0.7,4.4-0.6,6.5,0.2c1.4,0.5,3.1,1,5.1,1.3c0.5,0.1,1,0.1,1.5,0
		c0.7-0.1,1.5-0.2,2-0.3c1.9-0.4,3-0.2,4.8,0.6c0.7,0.3,1.3,0.4,2,0.5C44.2,2.8,42.5,1.7,40.7,2z"/>
	<path d="M53.3,49.9c0.1-0.5,0.1-0.9,0-1.4c-0.9,2.6-4,3.2-5.9,3.3C50.1,52.5,52.7,51.7,53.3,49.9z"/>
	<path class="st5" d="M20.2,52.2c0.2-1,9.3-19.6,4.6-30.5C21.4,14.1,20.7,8.9,20,6"/>
	<path class="st5" d="M14.1,7.8c2.4,3.9,11.2,20.3,1.3,43.1"/>
	<path class="st5" d="M62,36.7c0.3-0.5,0.1-4.6,0.7-8c0.3-1.9,1.1-4.2,0.9-4.8"/>
	<path class="st5" d="M55.5,14c-1,0.9-0.9,26.4,1.4,28.9"/>
	<path class="st5" d="M46.6,49.5c-0.9-1.9-1.9-4.2-2.2-6.4c-0.8-5.2-1.7-11.9-0.5-21.6c0.9-6.9-0.6-12.5-0.1-13.9"/>
	<path class="st5" d="M32.6,5.3C32.4,5.8,38.3,17.5,38,24c-0.4,8.3-4.8,23.4-3.4,28.7h0"/>
	<path d="M35.8,33.4c-0.7-0.4-1.6-0.6-2.4-0.5c0,0-0.1,0-0.1,0c1.1,1.6,3.2,5.7,0.7,9.9c0.2,0,0.4,0,0.5,0c0.2,0,0.5,0,0.7,0
		c0.2-0.1,0.5-0.2,0.6-0.4c0.7-0.7,0.7-1.6,0.7-2.5c0-1.8,0.1-3.6,0.1-5.4c0-0.2,0-0.4-0.1-0.6C36.4,33.7,36.1,33.5,35.8,33.4z"/>
</g>
</svg>
