<?xml version="1.0" encoding="utf-8"?>
<!-- Generator: Adobe Illustrator 27.0.1, SVG Export Plug-In . SVG Version: 6.00 Build 0)  -->
<svg version="1.1" id="レイヤー_1" xmlns="http://www.w3.org/2000/svg" xmlns:xlink="http://www.w3.org/1999/xlink" x="0px"
	 y="0px" viewBox="0 0 75 63" style="enable-background:new 0 0 75 63;" xml:space="preserve">
<style type="text/css">
	.st0{fill:#0E72A2;}
	.st1{fill:#14A7FF;}
	.st2{fill:#07324B;}
	.st3{fill:#FFFFFF;}
	.st4{fill:#231815;}
</style>
<g id="ひれ_xFF08_薄_xFF09_">
	<path class="st0" d="M58.7,12.1H30.6c-1.2,0-2-1.3-1.5-2.4l4.3-8.8c0.3-0.7,1-1,1.8-0.9l25.7,9.4c0.8,0.1,1.4,0.8,1.4,1.6l-1.9-0.5
		C60.4,11.4,59.6,12.1,58.7,12.1L58.7,12.1z"/>
	<path class="st0" d="M74.5,34.6L60,43c-0.2,0.1-0.2,0.4,0,0.6L74.5,52c0.2,0.1,0.5,0,0.5-0.3V34.9C75,34.7,74.7,34.5,74.5,34.6z"/>
</g>
<path id="体_xFF08_中_xFF09_" class="st1" d="M65.1,9.5v47.8H0v-5.1c0,0,13.3,1.7,13.3-9.7s-1.6-33,10.8-33c0.2,0,4.7,0,10.7,0
	C47,9.5,65.1,9.5,65.1,9.5z"/>
<path id="顔_xFF08_濃_xFF09_" class="st2" d="M35,9.5v47.8H0v-5.1c0,0,13.3,1.7,13.3-9.7s-1.7-33,10.8-33H35z"/>
<path id="ひれ_xFF08_薄_xFF09__00000111876640649382864090000017989506066358362799_" class="st0" d="M51.6,62.6H30.3
	c-0.2,0-0.3-0.1-0.4-0.2l-6.6-7.5c-0.3-0.4-0.1-1,0.4-1h25.1c0.2,0,0.5,0.1,0.5,0.4l2.9,7.5C52.3,62.2,52,62.6,51.6,62.6L51.6,62.6z
	"/>
<g id="色変わらん">
	<path class="st3" d="M21,50.3c2.6,0,4.7-2.1,4.7-4.7s-2.1-4.7-4.7-4.7s-4.7,2.1-4.7,4.7S18.4,50.3,21,50.3z"/>
	<path class="st4" d="M21,48.4c1.6,0,2.8-1.3,2.8-2.8c0-1.6-1.3-2.8-2.8-2.8c-1.6,0-2.8,1.3-2.8,2.8C18.2,47.2,19.5,48.4,21,48.4z"
		/>
</g>
</svg>
