<svg width="36" height="26" viewBox="0 0 36 26" fill="none" xmlns="http://www.w3.org/2000/svg">
<mask id="path-1-inside-1_986_3762" fill="white">
<path fill-rule="evenodd" clip-rule="evenodd" d="M22.5061 2.51782C21.9676 1.61048 21.056 0.857643 19.9838 0.981244C19.823 0.999542 19.5991 1.03597 19.3646 1.0741C19.0352 1.12769 18.685 1.18465 18.4601 1.19943C17.9863 1.21383 17.5135 1.14791 17.0632 1.00465L14.6839 0.255558C14.3597 0.141993 14.0245 0.0607248 13.6833 0.0130305C13.3014 -0.0249713 12.9156 0.0204064 12.5542 0.145828C12.1928 0.271249 11.8651 0.473546 11.595 0.737802C11.059 1.27096 10.8169 1.98328 10.6905 2.73049C3.58129 3.85565 0 8.58039 0 14.238L2.99522e-05 14.2664L0 14.2944C0 16.5776 0.594367 18.7062 1.77767 20.5054C3.93201 23.8069 8.04061 26 14.0825 26C16.8561 26 19.4741 25.5378 21.7853 24.7185C22.1107 24.9562 22.5015 25.1578 22.9387 25.3004C24.4164 25.7824 25.8652 25.4076 26.1749 24.4634C26.3476 23.9366 26.1292 23.3438 25.6458 22.8389C27.7292 21.4898 29.322 19.7806 30.2181 17.8542C30.3232 17.9168 30.4292 17.9776 30.5347 18.0378L34.4395 20.2735C34.5874 20.3587 34.748 20.4458 34.9183 20.4257C35.2716 20.3845 35.3923 19.9479 35.4302 19.6004C35.7076 17.0651 35.984 14.524 35.9996 11.9743C36.0025 11.4631 36.0064 10.4635 35.33 10.5267C35.284 10.5302 35.2385 10.5376 35.1937 10.5487C33.6789 10.95 32.1868 11.4291 30.7234 11.9839C29.8052 8.70181 26.92 5.90685 22.9536 4.21341C23.0138 3.69752 22.8482 3.09483 22.5061 2.51782Z"/>
</mask>
<path d="M19.9838 0.981243L20.0969 1.97483L20.0983 1.97466L19.9838 0.981243ZM22.5061 2.51782L23.3664 2.00793L23.3661 2.00744L22.5061 2.51782ZM19.3646 1.0741L19.2041 0.0870747V0.0870747L19.3646 1.0741ZM18.4601 1.19942L18.4905 2.19896L18.5081 2.19843L18.5257 2.19727L18.4601 1.19942ZM17.0632 1.00465L17.3663 0.0516934L17.3635 0.050812L17.0632 1.00465ZM14.6839 0.255558L14.3533 1.19932L14.3684 1.2046L14.3836 1.2094L14.6839 0.255558ZM13.6833 0.0130298L13.8217 -0.97734L13.8021 -0.980089L13.7823 -0.982055L13.6833 0.0130298ZM12.5542 0.145827L12.8821 1.09055L12.5542 0.145827ZM11.595 0.737801L10.8956 0.0230526L10.8898 0.028781L11.595 0.737801ZM10.6905 2.73049L10.8468 3.7182L11.5567 3.60586L11.6765 2.89725L10.6905 2.73049ZM0 14.238H-1L-0.999999 14.2391L0 14.238ZM2.99522e-05 14.2664L1.00003 14.2675L1.00003 14.2653L2.99522e-05 14.2664ZM0 14.2944L-1 14.2934V14.2944H0ZM1.77882 20.5072L2.61619 19.9605L2.61421 19.9575L1.77882 20.5072ZM21.7853 24.7185L22.375 23.9109L21.9487 23.5995L21.4511 23.7759L21.7853 24.7185ZM22.9387 25.3004L23.2488 24.3497H23.2488L22.9387 25.3004ZM26.1749 24.4634L27.1251 24.775V24.775L26.1749 24.4634ZM25.6458 22.8389L25.1023 21.9995L24.087 22.6569L24.9235 23.5305L25.6458 22.8389ZM30.2181 17.8542L30.7297 16.995L29.7784 16.4287L29.3114 17.4325L30.2181 17.8542ZM30.5347 18.0378L31.0315 17.17L31.0308 17.1696L30.5347 18.0378ZM34.4395 20.2735L34.9386 19.4069L34.9363 19.4056L34.4395 20.2735ZM34.9183 20.4257L34.8026 19.4324L34.8011 19.4326L34.9183 20.4257ZM35.4302 19.6004L34.4362 19.4916L34.4362 19.4918L35.4302 19.6004ZM35.9996 11.9743L36.9996 11.9804L36.9996 11.98L35.9996 11.9743ZM35.33 10.5267L35.4071 11.5237L35.4151 11.5231L35.423 11.5223L35.33 10.5267ZM35.1937 10.5487L34.9528 9.57816L34.9452 9.58005L34.9376 9.58205L35.1937 10.5487ZM30.7234 11.9839L29.7604 12.2534L30.0551 13.3068L31.0779 12.919L30.7234 11.9839ZM22.9536 4.21341L21.9603 4.09741L21.8737 4.83966L22.5609 5.13309L22.9536 4.21341ZM20.0983 1.97466C20.5975 1.91712 21.1953 2.26852 21.6462 3.02819L23.3661 2.00744C22.74 0.952427 21.5144 -0.20183 19.8693 -0.0121772L20.0983 1.97466ZM19.5252 2.06113C19.7695 2.02139 19.9656 1.98977 20.0969 1.97483L19.8707 -0.0123431C19.6805 0.00930791 19.4286 0.0505475 19.2041 0.0870747L19.5252 2.06113ZM18.5257 2.19727C18.8102 2.17858 19.218 2.1111 19.5252 2.06113L19.2041 0.0870747C18.8523 0.144285 18.5597 0.190725 18.3946 0.201576L18.5257 2.19727ZM16.76 1.95761C17.3185 2.13524 17.904 2.2168 18.4905 2.19896L18.4298 0.199887C18.0686 0.210869 17.7086 0.160588 17.3663 0.0516975L16.76 1.95761ZM14.3836 1.2094L16.7628 1.95849L17.3635 0.050812L14.9842 -0.698283L14.3836 1.2094ZM13.5448 1.0034C13.8208 1.04197 14.0917 1.10766 14.3533 1.19932L15.0145 -0.688203C14.6278 -0.823678 14.2282 -0.920523 13.8217 -0.97734L13.5448 1.0034ZM12.8821 1.09055C13.1061 1.01282 13.3462 0.984422 13.5843 1.00811L13.7823 -0.982055C13.2566 -1.03437 12.7252 -0.972009 12.2264 -0.798894L12.8821 1.09055ZM12.2944 1.45253C12.4578 1.29269 12.6582 1.16825 12.8821 1.09055L12.2264 -0.798894C11.7275 -0.625749 11.2724 -0.345602 10.8956 0.0230761L12.2944 1.45253ZM11.6765 2.89725C11.7882 2.23686 11.9791 1.76616 12.3002 1.44682L10.8898 0.028781C10.1388 0.775746 9.84557 1.7297 9.70451 2.56374L11.6765 2.89725ZM1 14.238C1 11.6247 1.8241 9.27172 3.4303 7.44488C5.03628 5.61828 7.4839 4.25044 10.8468 3.7182L10.5342 1.74279C6.7879 2.3357 3.89026 3.8928 1.92829 6.12428C-0.0334553 8.35551 -1 11.1937 -1 14.238H1ZM1.00003 14.2653L0.999999 14.237L-0.999999 14.2391L-0.999969 14.2674L1.00003 14.2653ZM0.999999 14.2955L1.00003 14.2675L-0.999969 14.2653L-0.999999 14.2934L0.999999 14.2955ZM2.61421 19.9575C1.54782 18.3368 1 16.4026 1 14.2944H-1C-1 16.7541 -0.358313 19.0784 0.943434 21.0568L2.61421 19.9575ZM14.0825 25C8.28639 25 4.54051 22.9082 2.61618 19.9605L0.941464 21.0538C3.32643 24.7071 7.79698 27 14.0825 27V25ZM21.4511 23.7759C19.251 24.5559 16.7463 25 14.0825 25V27C16.9659 27 19.6972 26.5197 22.1194 25.661L21.4511 23.7759ZM23.2488 24.3497C22.9073 24.2383 22.6117 24.0837 22.375 23.9109L21.1955 25.526C21.6098 25.8286 22.0957 26.0773 22.6286 26.2511L23.2488 24.3497ZM25.2246 24.1518C25.2125 24.1888 25.1323 24.3483 24.7444 24.4486C24.3697 24.5455 23.8339 24.5405 23.2488 24.3497L22.6286 26.2511C23.5212 26.5423 24.4487 26.5909 25.2452 26.3849C26.0285 26.1823 26.8276 25.6822 27.1251 24.775L25.2246 24.1518ZM24.9235 23.5305C25.2701 23.8924 25.2373 24.1131 25.2246 24.1518L27.1251 24.775C27.4579 23.76 26.9884 22.7951 26.368 22.1473L24.9235 23.5305ZM29.3114 17.4325C28.5106 19.1542 27.0626 20.7301 25.1023 21.9995L26.1893 23.6783C28.3958 22.2495 30.1335 20.4071 31.1248 18.276L29.3114 17.4325ZM31.0308 17.1696C30.9254 17.1093 30.8263 17.0525 30.7297 16.995L29.7066 18.7135C29.8201 18.7811 29.9331 18.8458 30.0385 18.9061L31.0308 17.1696ZM34.9363 19.4056L31.0315 17.17L30.0378 18.9057L33.9426 21.1413L34.9363 19.4056ZM34.8011 19.4326C34.9239 19.4181 35.0071 19.4473 35.0211 19.4525C35.0286 19.4553 35.0263 19.4551 35.0106 19.447C34.9941 19.4385 34.9734 19.427 34.9386 19.4069L33.9403 21.14C34.0416 21.1983 34.4861 21.4837 35.0355 21.4188L34.8011 19.4326ZM34.4362 19.4918C34.4302 19.546 34.4221 19.5938 34.4127 19.6321C34.4028 19.6723 34.3956 19.6857 34.3986 19.6798C34.401 19.675 34.4269 19.6234 34.4958 19.5651C34.5741 19.4987 34.6822 19.4464 34.8026 19.4324L35.034 21.419C35.6713 21.3447 36.0238 20.9007 36.1865 20.5761C36.3434 20.2631 36.4001 19.9305 36.4243 19.7089L34.4362 19.4918ZM34.9996 11.9682C34.9844 14.458 34.7144 16.9482 34.4362 19.4916L36.4243 19.7091C36.7008 17.1819 36.9837 14.59 36.9996 11.9804L34.9996 11.9682ZM35.423 11.5223C35.3838 11.526 35.313 11.5248 35.2271 11.4952C35.1401 11.4651 35.0701 11.4172 35.0205 11.3686C34.9353 11.285 34.9353 11.2264 34.9546 11.2976C34.9708 11.3571 34.9853 11.4517 34.9931 11.5829C35.0007 11.7108 35.0004 11.8387 34.9996 11.9686L36.9996 11.98C37.0009 11.7531 37.0099 11.2337 36.8845 10.7726C36.8206 10.5379 36.695 10.2092 36.4203 9.94008C36.1062 9.63224 35.6856 9.48911 35.237 9.53102L35.423 11.5223ZM35.4347 11.5192C35.4255 11.5215 35.4163 11.523 35.4071 11.5237L35.2529 9.52966C35.1517 9.53749 35.0514 9.5537 34.9528 9.57816L35.4347 11.5192ZM31.0779 12.919C32.509 12.3764 33.9683 11.9079 35.4498 11.5154L34.9376 9.58205C33.3895 9.9922 31.8645 10.4818 30.3689 11.0489L31.0779 12.919ZM22.5609 5.13309C26.3499 6.75076 28.9496 9.35508 29.7604 12.2534L31.6864 11.7145C30.6608 8.04854 27.4901 5.06293 23.3463 3.29372L22.5609 5.13309ZM21.6459 3.0277C21.9158 3.4831 21.9874 3.86533 21.9603 4.09741L23.9468 4.3294C24.0402 3.5297 23.7805 2.70657 23.3664 2.00793L21.6459 3.0277Z" fill="#D3EDFB" mask="url(#path-1-inside-1_986_3762)"/>
<path d="M21.6423 10.7778C21.1961 9.66972 20.1033 8.27976 18.4958 8.00141C16.8883 7.72306 15.6128 8.63662 14.91 9.29502C14.2073 8.61342 12.916 7.68916 11.3208 7.96216C9.28104 8.31902 8.33409 10.4102 8.17246 10.8259C7.17456 13.2972 8.68195 16.2877 12.7772 19.9669C13.3596 20.4778 14.1035 20.759 14.8731 20.759C15.6427 20.759 16.3867 20.4778 16.9691 19.9669C21.1135 16.2538 22.6402 13.2472 21.6423 10.7778Z" stroke="#D3EDFB" stroke-linejoin="round"/>
</svg>
