<svg width="32" height="32" viewBox="0 0 32 32" fill="none" xmlns="http://www.w3.org/2000/svg">
<circle cx="16" cy="16" r="16" fill="#D3EDFB"/>
<path d="M11.7323 22.8389C11.4824 22.8405 11.2402 22.7525 11.0496 22.5909L6.46538 18.7667C6.11222 18.49 5.82664 18.1366 5.63024 17.7333C5.43384 17.3299 5.33179 16.8872 5.33179 16.4386C5.33179 15.99 5.43384 15.5472 5.63024 15.1439C5.82664 14.7405 6.11222 14.3871 6.46538 14.1105L11.0496 10.2862C11.1563 10.1904 11.2812 10.1171 11.4168 10.0707C11.5525 10.0243 11.6961 10.0056 11.8391 10.0159C11.9821 10.0263 12.1216 10.0653 12.2492 10.1307C12.3767 10.1962 12.4898 10.2866 12.5816 10.3967C12.6734 10.5069 12.7421 10.6344 12.7836 10.7716C12.825 10.9089 12.8384 11.0531 12.8228 11.1956C12.8073 11.3381 12.7631 11.4761 12.6931 11.6012C12.623 11.7262 12.5285 11.8359 12.415 11.9237L7.83082 15.7479C7.71806 15.8244 7.62572 15.9273 7.56192 16.0477C7.49812 16.1681 7.46478 16.3023 7.46478 16.4386C7.46478 16.5748 7.49812 16.709 7.56192 16.8294C7.62572 16.9498 7.71806 17.0528 7.83082 17.1293L12.415 20.9535C12.5831 21.0939 12.7039 21.2826 12.761 21.4941C12.8181 21.7055 12.8088 21.9294 12.7342 22.1354C12.6596 22.3413 12.5235 22.5193 12.3442 22.6452C12.165 22.7711 11.9514 22.8387 11.7323 22.8389Z" fill="#006EFB"/>
<path d="M20.2663 22.8391C20.0473 22.8389 19.8336 22.7713 19.6544 22.6454C19.4752 22.5195 19.339 22.3415 19.2644 22.1356C19.1898 21.9297 19.1805 21.7057 19.2376 21.4943C19.2947 21.2829 19.4155 21.0941 19.5836 20.9537L24.1678 17.1295C24.2805 17.053 24.3729 16.95 24.4367 16.8296C24.5005 16.7092 24.5338 16.575 24.5338 16.4388C24.5338 16.3025 24.5005 16.1683 24.4367 16.0479C24.3729 15.9275 24.2805 15.8246 24.1678 15.7481L19.5836 11.9239C19.3781 11.7394 19.2522 11.4824 19.2324 11.207C19.2125 10.9315 19.3002 10.6591 19.477 10.447C19.6539 10.235 19.9061 10.0997 20.1806 10.0698C20.4551 10.0398 20.7306 10.1175 20.949 10.2865L25.5332 14.1107C25.8864 14.3873 26.172 14.7407 26.3684 15.1441C26.5648 15.5474 26.6668 15.9902 26.6668 16.4388C26.6668 16.8874 26.5648 17.3301 26.3684 17.7335C26.172 18.1369 25.8864 18.4902 25.5332 18.7669L20.949 22.5911C20.7584 22.7527 20.5162 22.8407 20.2663 22.8391Z" fill="#006EFB"/>
<path d="M14.9325 23.9061C14.8739 23.9098 14.8151 23.9098 14.7565 23.9061C14.6184 23.8828 14.4861 23.8325 14.3674 23.7581C14.2486 23.6838 14.1457 23.5867 14.0645 23.4725C13.9833 23.3584 13.9253 23.2293 13.894 23.0928C13.8626 22.9562 13.8585 22.8148 13.8818 22.6767L16.0153 9.87596C16.0354 9.73531 16.0834 9.6001 16.1565 9.47827C16.2297 9.35644 16.3264 9.25044 16.441 9.1665C16.5556 9.08256 16.6859 9.02237 16.8241 8.98946C16.9623 8.95655 17.1058 8.95158 17.2459 8.97486C17.3861 8.99813 17.5202 9.04917 17.6403 9.12498C17.7605 9.20079 17.8643 9.29985 17.9457 9.41633C18.0271 9.53282 18.0843 9.66438 18.1141 9.8033C18.144 9.94222 18.1457 10.0857 18.1193 10.2253L15.9859 23.026C15.942 23.2732 15.8122 23.497 15.6195 23.658C15.4269 23.8189 15.1836 23.9068 14.9325 23.9061Z" fill="#006EFB"/>
</svg>
