<?xml version="1.0" encoding="utf-8"?>
<!-- Generator: Adobe Illustrator 27.0.1, SVG Export Plug-In . SVG Version: 6.00 Build 0)  -->
<svg version="1.1" id="レイヤー_1" xmlns="http://www.w3.org/2000/svg" xmlns:xlink="http://www.w3.org/1999/xlink" x="0px"
	 y="0px" viewBox="0 0 47 69" style="enable-background:new 0 0 47 69;" xml:space="preserve">
<style type="text/css">
	.st0{fill:#1FBFBF;}
	.st1{fill:#67E6E6;}
	.st2{fill:#FFFFFF;}
	.st3{fill:#231815;}
</style>
<g id="本体_xFF08_濃_xFF09__00000028313071608850357630000012563104146512230572_">
	<path id="本体_xFF08_濃_xFF09_" class="st0" d="M23.4,0C11.2,0,1.1,10.7,0,24.5C-0.1,25.9,0.8,27,1.9,27l0,0h3.6v22.5
		c0,1.8,1.5,3.3,3.3,3.3s3.3-1.5,3.3-3.3V27h2.8v38.1c0,1.8,1.5,3.3,3.3,3.3s3.3-1.5,3.3-3.3V27h2.4v34c0,1.8,1.5,3.3,3.3,3.3
		s3.3-1.5,3.3-3.3V27h2.4v28c0,1.8,1.5,3.3,3.3,3.3s3.3-1.5,3.3-3.3V27h5.7c1.1,0,2-1.2,1.9-2.6C45.7,10.7,35.6,0,23.4,0z"/>
</g>
<g id="模様_xFF08_薄_xFF09_">
	<path class="st1" d="M7,31c0.4,0,0.7-0.3,0.7-0.7c0-0.4-0.3-0.7-0.7-0.7c-0.4,0-0.7,0.3-0.7,0.7C6.4,30.7,6.7,31,7,31z"/>
	<path class="st1" d="M17.4,31.7c0.4,0,0.7-0.3,0.7-0.7s-0.3-0.7-0.7-0.7c-0.4,0-0.7,0.3-0.7,0.7S17,31.7,17.4,31.7z"/>
	<path class="st1" d="M35.2,36c0.3,0,0.5-0.2,0.5-0.5S35.4,35,35.2,35c-0.3,0-0.5,0.2-0.5,0.5S34.9,36,35.2,36z"/>
	<path class="st1" d="M27,33.3c0.3,0,0.5-0.2,0.5-0.5s-0.2-0.5-0.5-0.5s-0.5,0.2-0.5,0.5S26.7,33.3,27,33.3z"/>
	<path class="st1" d="M34.2,28.9c0.3,0,0.5-0.2,0.5-0.5s-0.2-0.5-0.5-0.5s-0.5,0.2-0.5,0.5C33.7,28.7,33.9,28.9,34.2,28.9z"/>
	<path class="st1" d="M19.8,29.6c0.4,0,0.7-0.3,0.7-0.7c0-0.4-0.3-0.7-0.7-0.7c-0.4,0-0.7,0.3-0.7,0.7
		C19.1,29.3,19.5,29.6,19.8,29.6z"/>
	<path class="st1" d="M9.5,34c0.3,0,0.6-0.3,0.6-0.6s-0.3-0.6-0.6-0.6s-0.6,0.3-0.6,0.6S9.2,34,9.5,34z"/>
	<path class="st1" d="M12.1,32.9v-1c-0.2-0.5-0.7-0.9-1.3-0.9c-0.8,0-1.4,0.6-1.4,1.4c0,0.8,0.6,1.4,1.4,1.4
		C11.4,33.8,11.9,33.4,12.1,32.9z"/>
	<path class="st1" d="M37.8,33.6c0.8,0,1.4-0.6,1.4-1.4c0-0.8-0.6-1.4-1.4-1.4c-0.8,0-1.4,0.6-1.4,1.4C36.4,33,37.1,33.6,37.8,33.6z
		"/>
	<path class="st1" d="M25.1,27.5c-0.5,0-1,0.3-1.2,0.7v1.4c0.3,0.4,0.7,0.7,1.2,0.7c0.8,0,1.4-0.6,1.4-1.4
		C26.5,28.1,25.9,27.5,25.1,27.5z"/>
	<path class="st1" d="M23.4,0C15.8,0,9.1,4.1,4.8,10.5c0.1,0.1,6.6,4.2,12.3-3.1c0,0,5.4,7.5,12.6,0c0,0,4.3,7.6,11.8,2.2
		C37.2,3.7,30.6,0,23.4,0z"/>
	<path class="st1" d="M6,15.7c0.6,0,1.1-0.5,1.1-1.1c-0.1-0.6-0.5-1-1.1-1s-1.1,0.4-1.1,1C4.9,15.2,5.4,15.7,6,15.7z"/>
	<path class="st1" d="M10.8,19.8c1,0,1.7-0.8,1.7-1.8s-0.8-1.8-1.7-1.8c-1,0-1.7,0.8-1.7,1.8S9.8,19.8,10.8,19.8z"/>
	<path class="st1" d="M32.4,13.5c1,0,1.7-0.8,1.7-1.8s-0.8-1.8-1.7-1.8c-1,0-1.7,0.8-1.7,1.8S31.5,13.5,32.4,13.5z"/>
	<path class="st1" d="M40.9,17.3c0.5,0,0.9-0.4,0.9-1c0-0.6-0.4-1-0.9-1s-0.9,0.4-0.9,1C40,16.9,40.4,17.3,40.9,17.3z"/>
	<path class="st1" d="M36.1,23.8c0.4,0,0.7-0.3,0.7-0.7s-0.3-0.7-0.7-0.7s-0.7,0.3-0.7,0.7S35.7,23.8,36.1,23.8z"/>
	<path class="st1" d="M5,24.5c0.4,0,0.7-0.3,0.7-0.7S5.3,23.1,5,23.1c-0.4,0-0.7,0.3-0.7,0.7S4.6,24.5,5,24.5z"/>
</g>
<g id="色変わらん">
	<path class="st2" d="M18.6,22.8c2.2,0,4-1.8,4-4.1s-1.8-4.1-4-4.1s-4,1.8-4,4.1S16.4,22.8,18.6,22.8z"/>
	<path class="st3" d="M18.6,21.2c1.3,0,2.4-1.1,2.4-2.4c0-1.4-1.1-2.4-2.4-2.4s-2.4,1.1-2.4,2.4S17.3,21.2,18.6,21.2z"/>
	<path class="st2" d="M26.7,22.8c2.2,0,4-1.8,4-4.1s-1.8-4.1-4-4.1s-4,1.8-4,4.1S24.5,22.8,26.7,22.8z"/>
	<path class="st3" d="M26.7,21.2c1.3,0,2.4-1.1,2.4-2.4c0-1.4-1.1-2.4-2.4-2.4s-2.4,1.1-2.4,2.4C24.3,20.1,25.4,21.2,26.7,21.2z"/>
</g>
</svg>
