<svg width="30" height="30" viewBox="0 0 30 30" fill="none" xmlns="http://www.w3.org/2000/svg">
<circle cx="15" cy="15" r="15" fill="#D3EDFB"/>
<path d="M12.2571 20.756H15.2557H15.7578C16.3101 20.756 16.7578 21.2037 16.7578 21.756V22.3138V25.5812C16.7577 25.8036 16.6977 26.0213 16.5849 26.2083C16.4721 26.3954 16.3112 26.5438 16.1215 26.6361C15.9254 26.7368 15.7063 26.7752 15.4903 26.7467C15.2743 26.7181 15.0705 26.6239 14.9034 26.4751L14.0057 25.6822C13.9953 25.6733 13.9856 25.6636 13.9766 25.6532C13.948 25.6218 13.9137 25.5969 13.8759 25.5798C13.8381 25.5628 13.7975 25.554 13.7564 25.554C13.7154 25.554 13.6747 25.5628 13.6369 25.5798C13.5991 25.5969 13.5648 25.6218 13.5362 25.6532C13.5272 25.6636 13.5175 25.6733 13.5072 25.6822L12.6094 26.4751C12.4063 26.6556 12.1504 26.7547 11.886 26.7551C11.7158 26.7548 11.5478 26.7142 11.3941 26.6361C11.2044 26.5438 11.0436 26.3954 10.9308 26.2083C10.818 26.0213 10.7579 25.8036 10.7578 25.5812V22.3138V21.756C10.7578 21.2037 11.2055 20.756 11.7578 20.756H12.2571Z" fill="#006EFB"/>
<path d="M8.80848 23.4293C8.24456 22.9726 7.78945 22.3947 7.4765 21.738C7.16356 21.0813 7.00074 20.3624 7 19.6341V9.87805C7 8.58431 7.51083 7.34354 8.4201 6.42873C9.32937 5.51392 10.5626 5 11.8485 5H19.6061C20.3776 5 21.1176 5.30834 21.6631 5.85723C22.2087 6.40612 22.5152 7.15059 22.5152 7.92683V21.5854C22.5152 22.3616 22.2087 23.106 21.6631 23.6549C21.1176 24.2038 20.3776 24.5122 19.6061 24.5122H18.6509" stroke="#006EFB" stroke-width="2" stroke-miterlimit="10" stroke-linecap="round"/>
<path d="M7 17.7217H22.5152" stroke="#006EFB" stroke-width="2" stroke-miterlimit="10" stroke-linecap="round"/>
</svg>
