<svg width="9" height="9" viewBox="0 0 9 9" fill="none" xmlns="http://www.w3.org/2000/svg">
<path d="M3.13365 8.78588C2.83354 8.78471 2.53704 8.72017 2.2636 8.59648C1.99016 8.4728 1.74594 8.29275 1.5469 8.06814C1.51183 8.03027 1.47963 7.98982 1.45062 7.94713L0.199356 6.10463C0.115594 5.98518 0.0564521 5.85026 0.0253329 5.70772C-0.00578635 5.56519 -0.00827283 5.41787 0.0180819 5.27438C0.0444366 5.13088 0.0990743 4.99408 0.178812 4.8719C0.258549 4.74972 0.361805 4.64462 0.482547 4.56273C0.60329 4.48083 0.739152 4.42378 0.882157 4.39488C1.02516 4.36598 1.17247 4.36582 1.31554 4.39441C1.4586 4.42299 1.59456 4.47975 1.71548 4.56138C1.8364 4.64301 1.93988 4.74788 2.01989 4.86988L3.18313 6.58313L6.75813 0.533129C6.83271 0.40926 6.93093 0.301298 7.04723 0.215396C7.16353 0.129494 7.29564 0.067333 7.43596 0.0324763C7.57629 -0.00238054 7.72207 -0.00926107 7.86505 0.0122339C8.00803 0.033729 8.14535 0.0831826 8.26922 0.157757C8.39309 0.232331 8.50109 0.330572 8.58699 0.446873C8.67289 0.563173 8.73502 0.695251 8.76988 0.835572C8.80473 0.975893 8.81165 1.12171 8.79015 1.26469C8.76866 1.40767 8.71917 1.54501 8.6446 1.66888L4.98715 7.71888C4.8145 8.0127 4.57517 8.26185 4.28857 8.44623C4.00197 8.63061 3.6761 8.74506 3.33715 8.78038C3.26948 8.78621 3.20153 8.78805 3.13365 8.78588Z" fill="#006EFB"/>
</svg>
