<svg width="30" height="30" viewBox="0 0 30 30" fill="none" xmlns="http://www.w3.org/2000/svg">
<circle cx="15" cy="15" r="15" fill="#D3EDFB"/>
<path d="M10.999 21.4118C10.7648 21.4133 10.5377 21.3308 10.359 21.1793L6.06128 17.5941C5.73019 17.3347 5.46246 17.0034 5.27834 16.6253C5.09421 16.2472 4.99854 15.8321 4.99854 15.4115C4.99854 14.9909 5.09421 14.5758 5.27834 14.1977C5.46246 13.8196 5.73019 13.4883 6.06128 13.2289L10.359 9.64369C10.459 9.55388 10.5761 9.48516 10.7033 9.44162C10.8304 9.39808 10.9651 9.38062 11.0991 9.39029C11.2332 9.39996 11.364 9.43656 11.4836 9.4979C11.6032 9.55924 11.7091 9.64405 11.7952 9.74728C11.8813 9.85052 11.9457 9.97005 11.9846 10.0987C12.0234 10.2274 12.036 10.3626 12.0214 10.4962C12.0068 10.6298 11.9654 10.7591 11.8997 10.8764C11.834 10.9937 11.7454 11.0965 11.6391 11.1788L7.34137 14.764C7.23567 14.8357 7.1491 14.9322 7.08929 15.0451C7.02947 15.158 6.99822 15.2838 6.99822 15.4115C6.99822 15.5392 7.02947 15.665 7.08929 15.7779C7.1491 15.8908 7.23567 15.9873 7.34137 16.059L11.6391 19.6442C11.7967 19.7759 11.9099 19.9528 11.9635 20.151C12.017 20.3493 12.0082 20.5592 11.9383 20.7523C11.8684 20.9453 11.7407 21.1122 11.5727 21.2302C11.4046 21.3482 11.2044 21.4116 10.999 21.4118Z" fill="#006EFB"/>
<path d="M18.9995 21.4118C18.7942 21.4115 18.5939 21.3481 18.4258 21.2301C18.2578 21.1121 18.1301 20.9453 18.0602 20.7522C17.9903 20.5591 17.9815 20.3492 18.0351 20.151C18.0886 19.9527 18.2018 19.7758 18.3594 19.6442L22.6572 16.059C22.7629 15.9872 22.8494 15.8907 22.9092 15.7778C22.9691 15.665 23.0003 15.5392 23.0003 15.4114C23.0003 15.2837 22.9691 15.1579 22.9092 15.045C22.8494 14.9321 22.7629 14.8356 22.6572 14.7639L18.3594 11.1787C18.1668 11.0057 18.0488 10.7648 18.0302 10.5066C18.0116 10.2484 18.0938 9.99299 18.2596 9.79416C18.4254 9.59533 18.6618 9.46855 18.9192 9.44047C19.1765 9.41239 19.4348 9.48521 19.6395 9.64361L23.9373 13.2288C24.2683 13.4882 24.5361 13.8195 24.7202 14.1976C24.9043 14.5758 25 14.9908 25 15.4114C25 15.832 24.9043 16.2471 24.7202 16.6252C24.5361 17.0034 24.2683 17.3347 23.9373 17.594L19.6395 21.1792C19.4608 21.3308 19.2338 21.4132 18.9995 21.4118Z" fill="#006EFB"/>
<path d="M13.9992 22.4119C13.9443 22.4154 13.8892 22.4154 13.8342 22.4119C13.7047 22.3901 13.5807 22.343 13.4694 22.2732C13.3581 22.2035 13.2616 22.1125 13.1855 22.0055C13.1093 21.8985 13.055 21.7775 13.0256 21.6494C12.9962 21.5214 12.9923 21.3889 13.0142 21.2593L15.0143 9.25868C15.0332 9.12682 15.0782 9.00006 15.1467 8.88585C15.2153 8.77163 15.3059 8.67226 15.4134 8.59356C15.5209 8.51487 15.643 8.45844 15.7726 8.42758C15.9022 8.39673 16.0366 8.39208 16.168 8.4139C16.2994 8.43571 16.4252 8.48356 16.5378 8.55464C16.6505 8.62571 16.7478 8.71858 16.8241 8.82778C16.9004 8.93699 16.954 9.06033 16.982 9.19057C17.0099 9.3208 17.0116 9.45531 16.9869 9.5862L14.9868 21.5869C14.9456 21.8186 14.8239 22.0284 14.6433 22.1793C14.4627 22.3302 14.2346 22.4126 13.9992 22.4119Z" fill="#006EFB"/>
</svg>
