<?xml version="1.0" encoding="utf-8"?>
<!-- Generator: Adobe Illustrator 27.0.1, SVG Export Plug-In . SVG Version: 6.00 Build 0)  -->
<svg version="1.1" id="レイヤー_1" xmlns="http://www.w3.org/2000/svg" xmlns:xlink="http://www.w3.org/1999/xlink" x="0px"
	 y="0px" viewBox="0 0 61 75" style="enable-background:new 0 0 61 75;" xml:space="preserve">
<style type="text/css">
	.st0{fill:#EA0000;}
	.st1{fill:#FF9A94;}
	.st2{fill:#F78181;}
	.st3{fill:#FFFFFF;}
</style>
<path id="本体" class="st0" d="M60.6,68.2c-8.8-11.7-14.4-31.7-14.4-31.7s-0.1-0.2-0.3-0.6c3.3-3.7,5.4-8.6,5.4-14
	c0-11.6-9.4-21.1-21-21.1c-11.6,0-21,9.4-21,21.1c0,1,0.1,2.1,0.2,3.1H4.5v9.3h8.9c0.5,0.7,1,1.3,1.6,1.9c-0.1,0.2-0.2,0.3-0.2,0.3
	s-5.5,20-14.4,31.7c-1.5,2,2.2,4,4.2,2.2c8-7.1,12.3-19.3,15.6-30.1c0.4,0.2,0.9,0.5,1.4,0.7l-4,28.9c-0.2,1.2,0.7,2.3,1.9,2.5
	l0.9,0.1c1.2,0.2,2.3-0.7,2.5-1.9l3.8-28c0.7,0.1,1.4,0.2,2,0.3v28.8c0,1.2,1,2.2,2.2,2.2h0.9c1.2,0,2.2-1,2.2-2.2V42.6
	c0.3-0.1,0.7-0.1,1-0.2L39.3,72c0.2,1.2,1.3,2,2.5,1.9l0.9-0.1c1.2-0.2,2-1.3,1.9-2.5l-4.5-30.7c0.3-0.1,0.5-0.3,0.8-0.4
	c3.3,10.9,7.6,23.2,15.6,30.3C58.5,72.2,62.2,70.2,60.6,68.2z"/>
<g id="吸盤">
	<path class="st1" d="M20.6,66.6c0.1,0,0.2,0,0.2,0.1c0.1,0.1,0.2,0.2,0.2,0.3c0,0.1,0,0.2,0,0.3c-0.1,0.1-0.2,0.2-0.4,0.2
		c-0.1,0-0.2,0-0.2-0.1c-0.1-0.1-0.2-0.2-0.2-0.3c0-0.1,0-0.2,0-0.3C20.3,66.6,20.4,66.6,20.6,66.6z M20.6,66
		c-0.3,0-0.7,0.2-0.9,0.5c-0.3,0.5-0.1,1.1,0.3,1.4c0.2,0.1,0.3,0.1,0.5,0.1c0.3,0,0.7-0.2,0.9-0.5c0.3-0.5,0.1-1.1-0.3-1.4
		C20.9,66,20.7,66,20.6,66z"/>
	<path class="st1" d="M48.8,50.7c0.3,0,0.5,0.2,0.5,0.5c0,0.3-0.2,0.5-0.5,0.5c-0.3,0-0.5-0.2-0.5-0.5
		C48.3,50.9,48.5,50.7,48.8,50.7z M48.8,50.1c-0.6,0-1.1,0.5-1.1,1.1c0,0.6,0.5,1.1,1.1,1.1s1.1-0.5,1.1-1.1
		C49.8,50.6,49.4,50.1,48.8,50.1z"/>
	<path class="st1" d="M50.6,54.3c0.3,0,0.5,0.2,0.5,0.5c0,0.3-0.2,0.5-0.5,0.5s-0.5-0.2-0.5-0.5C50.1,54.5,50.3,54.3,50.6,54.3z
		 M50.6,53.7c-0.6,0-1.1,0.5-1.1,1.1c0,0.6,0.5,1.1,1.1,1.1s1.1-0.5,1.1-1.1C51.6,54.1,51.2,53.7,50.6,53.7z"/>
	<path class="st1" d="M52.5,58.4c0.3,0,0.5,0.2,0.5,0.5c0,0.3-0.2,0.5-0.5,0.5c-0.3,0-0.5-0.2-0.5-0.5C52,58.6,52.2,58.4,52.5,58.4z
		 M52.5,57.8c-0.6,0-1.1,0.5-1.1,1.1c0,0.6,0.5,1.1,1.1,1.1s1.1-0.5,1.1-1.1C53.5,58.2,53,57.8,52.5,57.8z"/>
	<path class="st1" d="M54.7,62.5c0.3,0,0.5,0.2,0.5,0.5c0,0.3-0.2,0.5-0.5,0.5c-0.3,0-0.5-0.2-0.5-0.5
		C54.2,62.7,54.4,62.5,54.7,62.5z M54.7,61.9c-0.6,0-1.1,0.5-1.1,1.1c0,0.6,0.5,1.1,1.1,1.1c0.6,0,1.1-0.5,1.1-1.1
		C55.7,62.4,55.3,61.9,54.7,61.9z"/>
	<path class="st1" d="M57.4,66.4c0.3,0,0.5,0.2,0.5,0.5c0,0.3-0.2,0.5-0.5,0.5c-0.3,0-0.5-0.2-0.5-0.5
		C56.9,66.6,57.1,66.4,57.4,66.4z M57.4,65.8c-0.6,0-1.1,0.5-1.1,1.1c0,0.6,0.5,1.1,1.1,1.1s1.1-0.5,1.1-1.1
		C58.4,66.3,58,65.8,57.4,65.8z"/>
	<path class="st1" d="M12.2,50.7c0.3,0,0.5,0.2,0.5,0.5c0,0.3-0.2,0.5-0.5,0.5c-0.3,0-0.5-0.2-0.5-0.5C11.8,50.9,12,50.7,12.2,50.7z
		 M12.2,50.1c-0.6,0-1.1,0.5-1.1,1.1c0,0.6,0.5,1.1,1.1,1.1s1.1-0.5,1.1-1.1C13.3,50.6,12.8,50.1,12.2,50.1z"/>
	<path class="st1" d="M10.4,54.3c0.3,0,0.5,0.2,0.5,0.5c0,0.3-0.2,0.5-0.5,0.5c-0.3,0-0.5-0.2-0.5-0.5C10,54.5,10.2,54.3,10.4,54.3z
		 M10.4,53.7c-0.6,0-1.1,0.5-1.1,1.1c0,0.6,0.5,1.1,1.1,1.1c0.6,0,1.1-0.5,1.1-1.1C11.5,54.1,11,53.7,10.4,53.7z"/>
	<path class="st1" d="M8.5,58.4c0.3,0,0.5,0.2,0.5,0.5c0,0.3-0.2,0.5-0.5,0.5c-0.3,0-0.5-0.2-0.5-0.5C8.1,58.6,8.3,58.4,8.5,58.4z
		 M8.5,57.8c-0.6,0-1.1,0.5-1.1,1.1c0,0.6,0.5,1.1,1.1,1.1c0.6,0,1.1-0.5,1.1-1.1C9.6,58.2,9.1,57.8,8.5,57.8z"/>
	<path class="st1" d="M6.3,62.5c0.3,0,0.5,0.2,0.5,0.5c0,0.3-0.2,0.5-0.5,0.5c-0.3,0-0.5-0.2-0.5-0.5C5.9,62.7,6.1,62.5,6.3,62.5z
		 M6.3,61.9c-0.6,0-1.1,0.5-1.1,1.1c0,0.6,0.5,1.1,1.1,1.1c0.6,0,1.1-0.5,1.1-1.1C7.4,62.4,6.9,61.9,6.3,61.9z"/>
	<path class="st1" d="M3.6,66.4c0.3,0,0.5,0.2,0.5,0.5c0,0.3-0.2,0.5-0.5,0.5c-0.3,0-0.5-0.2-0.5-0.5C3.2,66.6,3.4,66.4,3.6,66.4z
		 M3.6,65.8c-0.6,0-1.1,0.5-1.1,1.1C2.6,67.5,3,68,3.6,68c0.6,0,1.1-0.5,1.1-1.1C4.7,66.3,4.2,65.8,3.6,65.8z"/>
	<path class="st2" d="M4.4,34.2c1.3,0,2.3-2.1,2.3-4.6c0-2.5-1-4.6-2.3-4.6c-1.3,0-2.3,2.1-2.3,4.6C2.1,32.1,3.1,34.2,4.4,34.2z"/>
	<path class="st1" d="M38.9,51.7c0,0,0.1,0,0.1,0c0.1,0,0.2,0.1,0.3,0.2c0.1,0.1,0.1,0.2,0,0.3c-0.1,0.2-0.2,0.3-0.4,0.3
		c0,0-0.1,0-0.1,0c-0.1,0-0.2-0.1-0.3-0.2c-0.1-0.1-0.1-0.2,0-0.3C38.5,51.8,38.7,51.7,38.9,51.7z M38.9,51.1c-0.4,0-0.8,0.3-1,0.7
		c-0.1,0.5,0.2,1.1,0.7,1.2c0.1,0,0.2,0,0.3,0c0.4,0,0.8-0.3,1-0.7c0.1-0.5-0.2-1.1-0.7-1.2C39,51.1,39,51.1,38.9,51.1z"/>
	<path class="st1" d="M39.5,55.7c0,0,0.1,0,0.1,0c0.2,0.1,0.4,0.3,0.3,0.5c-0.1,0.2-0.2,0.3-0.4,0.3c0,0-0.1,0-0.1,0
		c-0.1,0-0.2-0.1-0.3-0.2c-0.1-0.1-0.1-0.2,0-0.3C39.1,55.9,39.3,55.8,39.5,55.7 M39.5,55.2c-0.4,0-0.8,0.3-1,0.7
		c-0.1,0.5,0.2,1.1,0.7,1.2c0.1,0,0.2,0,0.3,0c0.4,0,0.8-0.3,1-0.7c0.1-0.5-0.2-1.1-0.7-1.2C39.6,55.2,39.5,55.2,39.5,55.2z"/>
	<path class="st1" d="M40,59.4c0,0,0.1,0,0.1,0c0.1,0,0.2,0.1,0.3,0.2c0.1,0.1,0.1,0.2,0,0.3c-0.1,0.2-0.2,0.3-0.4,0.3
		c0,0-0.1,0-0.1,0c-0.1,0-0.2-0.1-0.3-0.2c-0.1-0.1-0.1-0.2,0-0.3C39.6,59.6,39.8,59.4,40,59.4z M40,58.9c-0.4,0-0.8,0.3-1,0.7
		c-0.1,0.5,0.2,1.1,0.7,1.2c0.1,0,0.2,0,0.3,0c0.4,0,0.8-0.3,1-0.7c0.1-0.5-0.2-1.1-0.7-1.2C40.2,58.9,40.1,58.9,40,58.9z"/>
	<path class="st1" d="M40.5,63.2c0,0,0.1,0,0.1,0c0.2,0.1,0.4,0.3,0.3,0.5c-0.1,0.2-0.2,0.3-0.4,0.3c0,0-0.1,0-0.1,0
		c-0.1,0-0.2-0.1-0.3-0.2c-0.1-0.1-0.1-0.2,0-0.3C40.2,63.4,40.4,63.2,40.5,63.2z M40.5,62.6c-0.4,0-0.8,0.3-1,0.7
		c-0.1,0.5,0.2,1.1,0.7,1.2c0.1,0,0.2,0,0.3,0c0.4,0,0.8-0.3,1-0.7c0.1-0.5-0.2-1.1-0.7-1.2C40.7,62.7,40.6,62.6,40.5,62.6z"/>
	<path class="st1" d="M41.2,67.5c0,0,0.1,0,0.1,0c0.1,0,0.2,0.1,0.3,0.2c0.1,0.1,0.1,0.2,0,0.3c-0.1,0.2-0.2,0.3-0.4,0.3
		c0,0-0.1,0-0.1,0c-0.2-0.1-0.4-0.3-0.3-0.5C40.8,67.6,41,67.5,41.2,67.5z M41.2,66.9c-0.4,0-0.8,0.3-1,0.7
		c-0.1,0.5,0.2,1.1,0.7,1.2c0.1,0,0.2,0,0.3,0c0.4,0,0.8-0.3,1-0.7c0.1-0.5-0.2-1.1-0.7-1.2C41.3,66.9,41.2,66.9,41.2,66.9z"/>
	<path class="st1" d="M31,50.8c0.1,0,0.1,0,0.2,0c0.1,0,0.2,0.1,0.2,0.2c0,0.1,0,0.2,0,0.3c-0.1,0.2-0.2,0.3-0.4,0.3
		c-0.1,0-0.1,0-0.2,0c-0.1,0-0.2-0.1-0.2-0.2c0-0.1,0-0.2,0-0.3C30.7,50.9,30.9,50.8,31,50.8z M31,50.2c-0.4,0-0.8,0.2-0.9,0.6
		c-0.2,0.5,0,1.1,0.5,1.3c0.1,0.1,0.3,0.1,0.4,0.1c0.4,0,0.8-0.2,0.9-0.6c0.2-0.5,0-1.1-0.5-1.3C31.3,50.2,31.2,50.2,31,50.2z"/>
	<path class="st1" d="M31,54.9c0.1,0,0.1,0,0.2,0c0.1,0,0.2,0.1,0.2,0.2c0,0.1,0,0.2,0,0.3c-0.1,0.2-0.2,0.3-0.4,0.3
		c-0.1,0-0.1,0-0.2,0c-0.2-0.1-0.3-0.3-0.2-0.6C30.7,55,30.9,54.9,31,54.9 M31.1,54.3c-0.4,0-0.8,0.2-0.9,0.6
		c-0.2,0.5,0,1.1,0.5,1.3c0.1,0.1,0.3,0.1,0.4,0.1c0.4,0,0.8-0.2,0.9-0.6c0.2-0.5,0-1.1-0.5-1.3C31.3,54.4,31.2,54.3,31.1,54.3z"/>
	<path class="st1" d="M31,58.6c0.1,0,0.1,0,0.2,0c0.1,0,0.2,0.1,0.2,0.2c0,0.1,0,0.2,0,0.3c-0.1,0.2-0.2,0.3-0.4,0.3
		c-0.1,0-0.1,0-0.2,0c-0.2-0.1-0.3-0.3-0.2-0.6C30.7,58.7,30.9,58.6,31,58.6 M31.1,58.1c-0.4,0-0.8,0.2-0.9,0.6
		c-0.2,0.5,0,1.1,0.5,1.3c0.1,0.1,0.3,0.1,0.4,0.1c0.4,0,0.8-0.2,0.9-0.6c0.2-0.5,0-1.1-0.5-1.3C31.3,58.1,31.2,58.1,31.1,58.1z"/>
	<path class="st1" d="M31,62.5c0.1,0,0.1,0,0.2,0c0.1,0,0.2,0.1,0.2,0.2c0,0.1,0,0.2,0,0.3c-0.1,0.2-0.2,0.3-0.4,0.3
		c-0.1,0-0.1,0-0.2,0c-0.2-0.1-0.3-0.3-0.2-0.6C30.7,62.6,30.9,62.5,31,62.5 M31.1,61.9c-0.4,0-0.8,0.2-0.9,0.6
		c-0.2,0.5,0,1.1,0.5,1.3c0.1,0.1,0.3,0.1,0.4,0.1c0.4,0,0.8-0.2,0.9-0.6c0.2-0.5,0-1.1-0.5-1.3C31.3,61.9,31.2,61.9,31.1,61.9z"/>
	<path class="st1" d="M31,66.7c0.1,0,0.1,0,0.2,0c0.1,0,0.2,0.1,0.2,0.2c0,0.1,0,0.2,0,0.3c-0.1,0.2-0.2,0.3-0.4,0.3
		c-0.1,0-0.1,0-0.2,0c-0.2-0.1-0.3-0.3-0.2-0.6C30.7,66.8,30.9,66.7,31,66.7 M31.1,66.2c-0.4,0-0.8,0.2-0.9,0.6
		c-0.2,0.5,0,1.1,0.5,1.3c0.1,0.1,0.3,0.1,0.4,0.1c0.4,0,0.8-0.2,0.9-0.6c0.2-0.5,0-1.1-0.5-1.3C31.3,66.2,31.2,66.2,31.1,66.2z"/>
	<path class="st1" d="M22.7,50.8c0.1,0,0.1,0,0.2,0.1c0.2,0.1,0.3,0.4,0.1,0.6c-0.1,0.1-0.2,0.2-0.4,0.2c-0.1,0-0.1,0-0.2-0.1
		c-0.1-0.1-0.2-0.2-0.2-0.3c0-0.1,0-0.2,0-0.3C22.4,50.8,22.6,50.8,22.7,50.8 M22.7,50.2c-0.3,0-0.7,0.2-0.9,0.5
		c-0.3,0.5-0.1,1.1,0.3,1.4c0.2,0.1,0.3,0.1,0.5,0.1c0.3,0,0.7-0.2,0.9-0.5c0.3-0.5,0.1-1.1-0.3-1.4C23.1,50.2,22.9,50.2,22.7,50.2z
		"/>
	<path class="st1" d="M22.2,54.8c0.1,0,0.2,0,0.2,0.1c0.1,0.1,0.2,0.1,0.2,0.3c0,0.1,0,0.2,0,0.3c-0.1,0.1-0.2,0.2-0.4,0.2
		c-0.1,0-0.1,0-0.2-0.1c-0.2-0.1-0.3-0.4-0.1-0.6C21.9,54.9,22,54.8,22.2,54.8 M22.2,54.3c-0.3,0-0.7,0.2-0.9,0.5
		c-0.3,0.5-0.1,1.1,0.3,1.4c0.2,0.1,0.3,0.1,0.5,0.1c0.3,0,0.7-0.2,0.9-0.5c0.3-0.5,0.1-1.1-0.3-1.4C22.5,54.3,22.4,54.3,22.2,54.3z
		"/>
	<path class="st1" d="M21.7,58.5c0.1,0,0.2,0,0.2,0.1c0.1,0.1,0.2,0.2,0.2,0.3c0,0.1,0,0.2,0,0.3c-0.1,0.1-0.2,0.2-0.4,0.2
		c-0.1,0-0.1,0-0.2-0.1c-0.2-0.1-0.3-0.4-0.1-0.6C21.4,58.6,21.5,58.5,21.7,58.5 M21.7,57.9c-0.3,0-0.7,0.2-0.9,0.5
		c-0.3,0.5-0.1,1.1,0.3,1.4c0.2,0.1,0.3,0.1,0.5,0.1c0.3,0,0.7-0.2,0.9-0.5c0.3-0.5,0.1-1.1-0.3-1.4C22,58,21.8,57.9,21.7,57.9z"/>
	<path class="st1" d="M21.1,62.3c0.1,0,0.2,0,0.2,0.1c0.1,0.1,0.2,0.2,0.2,0.3c0,0.1,0,0.2,0,0.3c-0.1,0.1-0.2,0.2-0.4,0.2
		c-0.1,0-0.2,0-0.2-0.1c-0.2-0.1-0.3-0.4-0.1-0.6C20.9,62.4,21,62.3,21.1,62.3 M21.2,61.7c-0.3,0-0.7,0.2-0.9,0.5
		c-0.3,0.5-0.1,1.1,0.3,1.4c0.2,0.1,0.3,0.1,0.5,0.1c0.3,0,0.7-0.2,0.9-0.5c0.3-0.5,0.1-1.1-0.3-1.4C21.5,61.8,21.3,61.7,21.2,61.7z
		"/>
</g>
<g id="色変わらん">
	<path class="st3" d="M17.5,22.8c1.5,0,2.7-1.2,2.7-2.7c0-1.5-1.2-2.7-2.7-2.7c-1.5,0-2.7,1.2-2.7,2.7C14.8,21.6,16,22.8,17.5,22.8z
		"/>
	<path d="M17.5,21.8c0.9,0,1.6-0.7,1.6-1.6c0-0.9-0.7-1.6-1.6-1.6c-0.9,0-1.6,0.7-1.6,1.6C15.9,21,16.6,21.8,17.5,21.8z"/>
	<path class="st3" d="M22.9,22.8c1.5,0,2.7-1.2,2.7-2.7c0-1.5-1.2-2.7-2.7-2.7s-2.7,1.2-2.7,2.7C20.2,21.6,21.4,22.8,22.9,22.8z"/>
	<path d="M22.9,21.8c0.9,0,1.6-0.7,1.6-1.6c0-0.9-0.7-1.6-1.6-1.6c-0.9,0-1.6,0.7-1.6,1.6C21.3,21,22,21.8,22.9,21.8z"/>
</g>
</svg>
