<?xml version="1.0" encoding="utf-8"?>
<!-- Generator: Adobe Illustrator 27.0.1, SVG Export Plug-In . SVG Version: 6.00 Build 0)  -->
<svg version="1.1" id="レイヤー_1" xmlns="http://www.w3.org/2000/svg" xmlns:xlink="http://www.w3.org/1999/xlink" x="0px"
	 y="0px" viewBox="0 0 83 44" style="enable-background:new 0 0 83 44;" xml:space="preserve">
<style type="text/css">
	.st0{fill:#FEBC00;}
	.st1{fill:#DAAB27;}
	.st2{fill:#CD9802;}
	.st3{fill:#E2E1D4;}
	.st4{fill:#FFFFFF;}
	.st5{fill:#231815;}
</style>
<path id="尻尾_xFF08_濃_xFF09_" class="st0" d="M70.5,23.8c2.1-4.5,7-9.9,11.1-11.7c0.3-0.2,0.7,0.3,0.5,0.7
	c-1.2,3.4-6.1,18.3-0.5,29.7c0.2,0.4-0.3,0.9-0.7,0.6c-2.4-1.4-7-4.6-9.8-9.1C69.1,30.9,68.9,27.1,70.5,23.8L70.5,23.8z"/>
<g id="ひれ_xFF08_中_xFF09_">
	<path class="st1" d="M59,21.9L34,8.3c-1.1-0.6-1.2-2-0.2-2.7l8-5.3c0.6-0.4,1.4-0.4,2,0.1l18.5,20.3c0.7,0.5,0.9,1.4,0.5,2
		l-1.5-1.4C60.8,22,59.8,22.3,59,21.9z"/>
	<path class="st1" d="M60.7,39.4l-14.1,0.8c-0.1,0-0.2,0-0.3-0.1l-4.7-4.6c-0.2-0.2-0.1-0.6,0.3-0.6l16.6-1c0.2,0,0.3,0.1,0.4,0.2
		l2.2,4.7C61.2,39.1,61,39.4,60.7,39.4z"/>
</g>
<g id="模様_xFF08_濃_xFF09_">
	<path class="st2" d="M81.5,15.2h-4.4l1.6-1.3h2.9L81.5,15.2L81.5,15.2z"/>
	<path class="st2" d="M80.4,18.9h-6.8l1.1-1.3h5.8L80.4,18.9L80.4,18.9z"/>
	<path class="st2" d="M45.6,2.6L36.1,9l0.8-2.1l8-5.3L45.6,2.6z"/>
	<path class="st2" d="M48.1,5.2l-9.5,6.3l0.8-2.1l8-5.3L48.1,5.2z"/>
	<path class="st2" d="M50.4,7.8l-9.5,6.3l0.8-2.1l8-5.3L50.4,7.8z"/>
	<path class="st2" d="M59.5,39.5l-4.9-10.7L54.1,31l3.8,8.7L59.5,39.5z"/>
	<path class="st2" d="M56,39.6l-5-10.8L50.5,31l3.8,8.7L56,39.6z"/>
	<path class="st2" d="M52.4,39.7l-4.8-10.9L47.1,31l3.9,9L52.4,39.7z"/>
	<path class="st2" d="M48.9,40.1L44,28.8L43.5,31l4,9.1H48.9z"/>
	<path class="st2" d="M52.5,10.4L43,16.8l0.8-2.1l8-5.3L52.5,10.4z"/>
	<path class="st2" d="M54.7,12.9l-9.5,6.4l0.8-2.1l8-5.3L54.7,12.9z"/>
	<path class="st2" d="M57.1,15.2l-9.5,6.3l0.8-2.1l8-5.3L57.1,15.2z"/>
	<path class="st2" d="M79.3,22.6h-8.2l0.6-1.3h8.2L79.3,22.6z"/>
	<path class="st2" d="M79.3,25.1h-9.5v1.3h9.5V25.1z"/>
	<path class="st2" d="M79.1,30.1h-8.8l0.6-1.3h8.2C79.1,28.8,79.1,30.1,79.1,30.1z"/>
	<path class="st2" d="M79.1,33.8h-8.2l-0.6-1.3h8.9v1.3H79.1z"/>
	<path class="st2" d="M79.9,37.5h-6.3l-0.9-1.3h6.6L79.9,37.5z"/>
	<path class="st2" d="M81,41.2h-3l-1.8-1.3h4.2L81,41.2z"/>
</g>
<path id="本体_xFF08_薄_xFF09_" class="st0" d="M68.5,31.6c-1.8,0.7-39.9,14.1-59.1,9.7C-6.5,37.7-0.7,7.8,15.6,4
	c22.1-5.2,56.2,23.1,55.1,22.9C70.7,26.9,72.7,30.1,68.5,31.6z"/>
<g id="色変わらん">
	<path class="st3" d="M38.9,29.5C30.1,32.5,8.4,36,6.1,36c-2.2,0-4.3-0.8-4.4-0.8c1.5,3,4,5.3,7.7,6.1c19.2,4.4,57.3-9,59.1-9.7
		c0.5-0.2,1-0.4,1.3-0.7l0,0C69.8,31,47.8,26.4,38.9,29.5z"/>
	<path class="st4" d="M13.2,31.1c2.4,0,4.4-1.9,4.4-4.3s-2-4.3-4.4-4.3s-4.4,1.9-4.4,4.3S10.7,31.1,13.2,31.1z"/>
	<path class="st5" d="M13.2,29.4c1.5,0,2.6-1.2,2.6-2.6s-1.2-2.6-2.6-2.6s-2.6,1.2-2.6,2.6C10.5,28.2,11.7,29.4,13.2,29.4z"/>
</g>
<path id="ひれ_xFF08_中_xFF09__00000102533547154253612870000016449571340093733274_" class="st1" d="M25.9,29.8L25.9,29.8h11.7
	c0.2,0,0.3,0.2,0.2,0.3l-4.4,8.3c-0.1,0.1-0.3,0.2-0.4,0l-7.4-8.3C25.6,30.1,25.7,29.8,25.9,29.8L25.9,29.8z"/>
</svg>
