<svg width="25" height="25" viewBox="0 0 25 25" fill="none" xmlns="http://www.w3.org/2000/svg">
<path d="M22.5 10H15V2.5C15 1.83696 14.7366 1.20107 14.2677 0.732231C13.7989 0.26339 13.163 0 12.5 0C11.837 0 11.2011 0.26339 10.7323 0.732231C10.2634 1.20107 10 1.83696 10 2.5V10H2.5C1.83696 10 1.20111 10.2634 0.732269 10.7322C0.263428 11.2011 0 11.837 0 12.5C0 13.163 0.263428 13.7989 0.732269 14.2678C1.20111 14.7366 1.83696 15 2.5 15H10V22.5C10 23.163 10.2634 23.7989 10.7323 24.2678C11.2011 24.7366 11.837 25 12.5 25C13.163 25 13.7989 24.7366 14.2677 24.2678C14.7366 23.7989 15 23.163 15 22.5V15H22.5C23.163 15 23.7989 14.7366 24.2677 14.2678C24.7366 13.7989 25 13.163 25 12.5C25 11.837 24.7366 11.2011 24.2677 10.7322C23.7989 10.2634 23.163 10 22.5 10Z" fill="#D3EDFB"/>
</svg>
