<svg width="18" height="24" viewBox="0 0 18 24" fill="none" xmlns="http://www.w3.org/2000/svg">
<path d="M8.99979 10.6667C11.8401 10.6667 14.1426 8.27885 14.1426 5.33333C14.1426 2.38781 11.8401 0 8.99979 0C6.15947 0 3.85693 2.38781 3.85693 5.33333C3.85693 8.27885 6.15947 10.6667 8.99979 10.6667Z" fill="#D3EDFB"/>
<path d="M11.5714 12H6.42857C4.72361 12 3.08848 12.7024 1.88288 13.9526C0.677294 15.2029 0 16.8986 0 18.6667V20C0 21.0609 0.406378 22.0783 1.12973 22.8284C1.85309 23.5786 2.83416 24 3.85714 24H14.1429C15.1658 24 16.1469 23.5786 16.8703 22.8284C17.5936 22.0783 18 21.0609 18 20V18.6667C18 16.8986 17.3227 15.2029 16.1171 13.9526C14.9115 12.7024 13.2764 12 11.5714 12Z" fill="#D3EDFB"/>
</svg>
