<svg width="38" height="30" viewBox="0 0 38 30" fill="none" xmlns="http://www.w3.org/2000/svg">
<g clip-path="url(#clip0_986_3778)">
<path d="M29.6585 0.90918H7.878L9.15659 3.35829L5.26502 7.16426L2.74695 14.1046L4.6341 20.9092L9.15659 26.6419L17.6265 29.5523L25.4878 27.7274L31.8192 23.2837L34.5662 14.5523L32.506 8.28366L28.3855 3.35829L29.6585 0.90918Z" fill="#D3EDFB" stroke="#D3EDFB"/>
<path d="M28.5156 3.84974C28.4056 3.85001 28.2985 3.81485 28.2112 3.74971C28.1238 3.68457 28.061 3.59312 28.0325 3.48961C28.0041 3.38609 28.0116 3.27631 28.0538 3.17736C28.0961 3.07842 28.1708 2.99586 28.2662 2.94256C29.4596 2.27584 29.588 1.43303 29.5518 0.971543H7.67884C7.54655 0.971543 7.41969 0.920364 7.32615 0.829264C7.23261 0.738165 7.18005 0.614606 7.18005 0.485772C7.18005 0.356937 7.23261 0.233379 7.32615 0.14228C7.41969 0.0511798 7.54655 8.73679e-07 7.67884 8.73679e-07H29.9596C30.063 -0.000190037 30.1639 0.0309109 30.2483 0.0890001C30.3328 0.147089 30.3966 0.229294 30.431 0.324251C30.6941 1.05291 30.6804 2.7106 28.7613 3.78537C28.6865 3.82714 28.6018 3.84932 28.5156 3.84974Z" fill="#D3EDFB"/>
<path d="M18.6596 29.9973C9.5967 29.9973 2.22339 23.2682 2.22339 14.9967C2.22339 10.2192 4.63128 5.83752 8.8323 2.9739C8.88585 2.93566 8.9467 2.90822 9.01128 2.89319C9.07586 2.87816 9.14289 2.87583 9.2084 2.88636C9.27392 2.89688 9.33662 2.92003 9.39283 2.95447C9.44903 2.9889 9.49759 3.03392 9.5357 3.08688C9.57381 3.13984 9.60068 3.19967 9.61473 3.26288C9.62878 3.32608 9.62974 3.39139 9.61753 3.45495C9.60533 3.51852 9.5802 3.57907 9.54365 3.63306C9.50709 3.68705 9.45985 3.73339 9.40467 3.76936C5.47798 6.44839 3.22471 10.541 3.22471 14.9967C3.22471 22.7326 10.1504 29.0258 18.6634 29.0258C27.1764 29.0258 34.1008 22.7326 34.1008 14.9967C34.1008 10.5786 31.8787 6.50667 28.0044 3.824C27.9509 3.78708 27.9054 3.74027 27.8706 3.68624C27.8357 3.6322 27.8121 3.572 27.8011 3.50908C27.7901 3.44615 27.7919 3.38173 27.8064 3.31949C27.821 3.25726 27.848 3.19843 27.8859 3.14636C27.9238 3.09429 27.9719 3.05 28.0274 3.01602C28.0829 2.98204 28.1447 2.95904 28.2093 2.94832C28.2739 2.93761 28.3401 2.9394 28.404 2.95358C28.4679 2.96776 28.5283 2.99407 28.5817 3.03099C32.7229 5.89582 35.0984 10.2556 35.0984 14.9931C35.0946 23.2706 27.7213 29.9973 18.6596 29.9973Z" fill="#D3EDFB"/>
<path d="M8.65524 3.71486C8.55353 3.71463 8.45432 3.68411 8.37093 3.62742C6.90574 2.6328 7.0928 0.573133 7.10152 0.485694C7.11426 0.35686 7.17899 0.238231 7.28154 0.1559C7.38408 0.0735684 7.516 0.0342796 7.64829 0.0466799C7.78058 0.0590802 7.9024 0.122149 7.98694 0.222017C8.07148 0.321885 8.11183 0.450373 8.0991 0.579208C8.0991 0.602282 7.96564 2.15796 8.94576 2.82954C9.03335 2.88852 9.09926 2.97326 9.13384 3.07135C9.16842 3.16944 9.16986 3.27573 9.13795 3.37467C9.10604 3.47362 9.04244 3.56001 8.95648 3.62122C8.87052 3.68243 8.76672 3.71525 8.66023 3.71486H8.65524Z" fill="#D3EDFB"/>
<path d="M25.2735 3.88756H25.1488C25.0165 3.88756 24.8896 3.83638 24.7961 3.74528C24.7026 3.65418 24.65 3.53062 24.65 3.40179C24.65 3.27295 24.7026 3.14939 24.7961 3.05829C24.8896 2.96719 25.0165 2.91602 25.1488 2.91602H25.2735C25.4058 2.91602 25.5327 2.96719 25.6262 3.05829C25.7197 3.14939 25.7723 3.27295 25.7723 3.40179C25.7723 3.53062 25.7197 3.65418 25.6262 3.74528C25.5327 3.83638 25.4058 3.88756 25.2735 3.88756Z" fill="#D3EDFB"/>
<path d="M26.8297 3.88756H26.705C26.5727 3.88756 26.4458 3.83638 26.3522 3.74528C26.2587 3.65418 26.2062 3.53062 26.2062 3.40179C26.2062 3.27295 26.2587 3.14939 26.3522 3.05829C26.4458 2.96719 26.5727 2.91602 26.705 2.91602H26.8297C26.9619 2.91602 27.0888 2.96719 27.1823 3.05829C27.2759 3.14939 27.3284 3.27295 27.3284 3.40179C27.3284 3.53062 27.2759 3.65418 27.1823 3.74528C27.0888 3.83638 26.9619 3.88756 26.8297 3.88756Z" fill="#D3EDFB"/>
<path d="M23.7186 3.88756H20.7258C20.5936 3.88756 20.4667 3.83638 20.3731 3.74528C20.2796 3.65418 20.2271 3.53062 20.2271 3.40179C20.2271 3.27295 20.2796 3.14939 20.3731 3.05829C20.4667 2.96719 20.5936 2.91602 20.7258 2.91602H23.7186C23.8508 2.91602 23.9777 2.96719 24.0713 3.05829C24.1648 3.14939 24.2173 3.27295 24.2173 3.40179C24.2173 3.53062 24.1648 3.65418 24.0713 3.74528C23.9777 3.83638 23.8508 3.88756 23.7186 3.88756Z" fill="#D3EDFB"/>
<path d="M31.0844 18.7714C31.0139 18.7714 30.9442 18.757 30.8799 18.7289C30.7593 18.6759 30.6654 18.5784 30.6186 18.4579C30.5718 18.3375 30.5761 18.2038 30.6305 18.0864C31.6916 15.779 31.5607 13.2348 30.2801 11.2686C30.2127 11.16 30.1917 11.03 30.2215 10.9064C30.2513 10.7829 30.3295 10.6756 30.4395 10.6075C30.5495 10.5395 30.6824 10.516 30.8099 10.5422C30.9374 10.5684 31.0494 10.6421 31.1218 10.7476C32.5832 12.9907 32.7428 15.8822 31.5408 18.4848C31.5013 18.5704 31.4371 18.643 31.3561 18.6939C31.2751 18.7447 31.1807 18.7716 31.0844 18.7714Z" fill="#D3EDFB"/>
<path d="M8.08033 11.3915C7.96496 11.3917 7.8531 11.3529 7.76378 11.2818C7.67446 11.2107 7.6132 11.1116 7.59047 11.0014C7.56773 10.8913 7.58492 10.7768 7.63909 10.6776C7.69325 10.5784 7.78105 10.5006 7.88754 10.4573C7.99402 10.4141 8.1126 10.4081 8.22308 10.4405C8.33357 10.4728 8.42913 10.5415 8.49348 10.6347C8.55783 10.728 8.587 10.8401 8.57601 10.9519C8.56503 11.0638 8.51457 11.1685 8.43323 11.2482C8.38698 11.2935 8.33198 11.3295 8.27143 11.3541C8.21087 11.3786 8.14594 11.3914 8.08033 11.3915Z" fill="#D3EDFB"/>
<path d="M10.2749 10.3787C10.1762 10.3787 10.0797 10.3503 9.99764 10.2969C9.91554 10.2435 9.85155 10.1676 9.81376 10.0788C9.77598 9.99003 9.76608 9.8923 9.78536 9.79802C9.80464 9.70374 9.85221 9.61715 9.92205 9.54921C9.96837 9.50404 10.0234 9.46822 10.0839 9.44377C10.1445 9.41932 10.2094 9.40674 10.2749 9.40674C10.3405 9.40674 10.4054 9.41932 10.466 9.44377C10.5265 9.46822 10.5815 9.50404 10.6278 9.54921C10.6977 9.61715 10.7452 9.70374 10.7645 9.79802C10.7838 9.8923 10.7739 9.99003 10.7361 10.0788C10.6984 10.1676 10.6344 10.2435 10.5523 10.2969C10.4702 10.3503 10.3737 10.3787 10.2749 10.3787V10.3787Z" fill="#D3EDFB"/>
<path d="M7.96436 13.6404C7.83208 13.6404 7.70522 13.5892 7.61167 13.4981C7.51813 13.407 7.46558 13.2834 7.46558 13.1546C7.4655 13.0585 7.49471 12.9645 7.54951 12.8845C7.60431 12.8046 7.68223 12.7423 7.77342 12.7055C7.86461 12.6687 7.96497 12.659 8.06178 12.6778C8.15859 12.6966 8.2475 12.7429 8.31726 12.8109C8.3871 12.8789 8.43465 12.9654 8.45392 13.0597C8.4732 13.154 8.46333 13.2517 8.42555 13.3406C8.38777 13.4294 8.32377 13.5053 8.24167 13.5586C8.15957 13.612 8.06307 13.6405 7.96436 13.6404V13.6404Z" fill="#D3EDFB"/>
<path d="M3.26338 25.6257C3.14944 25.6256 3.03898 25.5874 2.95039 25.5176C1.63484 24.4781 0.67217 22.9601 0.376639 21.4566C0.35167 21.33 0.379353 21.199 0.453601 21.0923C0.527848 20.9856 0.642586 20.912 0.772557 20.8876C0.902528 20.8633 1.03709 20.8903 1.14665 20.9626C1.25621 21.0349 1.3318 21.1466 1.35677 21.2732C1.60616 22.5399 2.4566 23.877 3.57887 24.7635C3.65868 24.8269 3.71637 24.9127 3.74405 25.0094C3.77174 25.106 3.76806 25.2085 3.73349 25.303C3.69892 25.3975 3.63518 25.4792 3.55101 25.537C3.46684 25.5948 3.36636 25.6258 3.26338 25.6257V25.6257Z" fill="#D3EDFB"/>
<path d="M0.498894 20.0878C0.383449 20.0879 0.271505 20.0491 0.18216 19.9779C0.0928148 19.9067 0.0316193 19.8075 0.00896706 19.6973C-0.0136851 19.5871 0.00361805 19.4726 0.0579506 19.3734C0.112283 19.2742 0.200285 19.1964 0.306917 19.1533C0.413549 19.1102 0.532225 19.1045 0.642709 19.1371C0.753193 19.1697 0.848634 19.2386 0.912773 19.3321C0.976912 19.4256 1.00577 19.5378 0.994422 19.6497C0.983076 19.7616 0.932224 19.8662 0.850546 19.9457C0.757232 20.0364 0.630788 20.0875 0.498894 20.0878Z" fill="#D3EDFB"/>
<path d="M37.389 14.3167C37.3585 14.3166 37.3281 14.3142 37.298 14.3094C37.2335 14.2979 37.172 14.2741 37.117 14.2394C37.062 14.2047 37.0146 14.1598 36.9774 14.1072C36.9403 14.0547 36.9141 13.9955 36.9004 13.9331C36.8867 13.8707 36.8858 13.8063 36.8977 13.7435C37.1596 12.3603 36.9151 10.8046 36.2605 9.68488C36.2277 9.62946 36.2065 9.5683 36.198 9.50489C36.1896 9.44149 36.194 9.37707 36.211 9.31533C36.2281 9.25359 36.2575 9.19573 36.2976 9.14505C36.3376 9.09437 36.3875 9.05188 36.4444 9.01998C36.5013 8.98809 36.5641 8.96742 36.6292 8.95916C36.6943 8.9509 36.7605 8.95521 36.8239 8.97184C36.8873 8.98847 36.9467 9.01711 36.9987 9.0561C37.0507 9.0951 37.0944 9.14369 37.1271 9.19911C37.904 10.535 38.1858 12.2923 37.8753 13.9147C37.8552 14.0265 37.7956 14.1279 37.7068 14.2013C37.6179 14.2747 37.5055 14.3156 37.389 14.3167V14.3167Z" fill="#D3EDFB"/>
<path d="M35.7954 8.35425C35.6631 8.35425 35.5363 8.30307 35.4427 8.21197C35.3492 8.12087 35.2966 7.99732 35.2966 7.86848C35.2966 7.77235 35.3258 7.67836 35.3806 7.5984C35.4354 7.51845 35.5133 7.45612 35.6045 7.41932C35.6957 7.38252 35.796 7.3729 35.8928 7.39168C35.9896 7.41046 36.0786 7.45678 36.1483 7.5248C36.2182 7.59273 36.2657 7.67932 36.285 7.77361C36.3043 7.86789 36.2944 7.96562 36.2566 8.05443C36.2188 8.14324 36.1548 8.21913 36.0727 8.2725C35.9906 8.32588 35.8941 8.35433 35.7954 8.35425V8.35425Z" fill="#D3EDFB"/>
<path d="M25.3005 14.6299L23.6635 15.7424C23.1443 15.0595 21.8006 14.1265 20.079 13.6919L19.8789 12.4452C19.8427 12.2169 19.5753 12.1012 19.3752 12.227L17.3812 13.4922C14.5953 13.7842 12.4478 15.5495 12.4478 16.2576C12.4478 16.9657 14.4039 18.8333 17.0069 19.3031L16.9827 19.3266C16.9085 19.3988 16.9258 19.5213 17.0155 19.5716L18.6559 20.4928C18.7732 20.5583 18.9147 20.4626 18.894 20.3334L18.7405 19.382C21.0157 19.179 22.8976 17.8164 23.5997 16.8885L24.7485 17.9138C24.8417 17.9977 24.9935 17.9473 25.0159 17.8248L25.5472 14.786C25.5713 14.65 25.4144 14.5527 25.2971 14.6316L25.3005 14.6299Z" fill="#006EFB" stroke="#29C8A0" stroke-width="0.179921" stroke-miterlimit="10"/>
<path d="M16.8826 19.2794L16.1892 19.1435L16.4255 13.5944L17.1276 13.5088L16.8826 19.2794Z" fill="#006EFB"/>
<path d="M16.5715 13.6617L16.2164 13.6475L15.9867 19.0695L16.3418 19.0837L16.5715 13.6617Z" fill="#006EFB"/>
<path d="M19.5064 19.2175L18.7267 19.3718L18.9837 13.4888L19.7617 13.6717L19.5064 19.2175Z" fill="#006EFB"/>
<path d="M20.4016 19.0243L19.4529 19.2173L19.703 13.6128L20.6569 13.8578L20.4016 19.0243Z" fill="#006EFB"/>
<path d="M22.4595 18.0314L21.5953 18.5012L21.8834 14.375L22.6476 14.8314L22.4595 18.0314Z" fill="#006EFB"/>
<path d="M25.0177 17.8232L24.7504 17.9122L24.8763 14.9169L25.3127 14.6283C25.4128 14.5612 25.549 14.6333 25.5473 14.7508L25.016 17.8232H25.0177Z" fill="#006EFB"/>
<path d="M20.055 13.6809L19.7617 12.1841L19.1166 12.3905L19.4598 13.508L20.055 13.6809Z" fill="#006EFB"/>
<path d="M23.6014 16.8866L22.4595 18.031L22.6475 14.8311L23.6635 15.7405L23.6014 16.8866Z" fill="#006EFB"/>
<path d="M14.5696 16.8765C15.0192 16.8765 15.3837 16.5219 15.3837 16.0845C15.3837 15.6471 15.0192 15.2925 14.5696 15.2925C14.1199 15.2925 13.7554 15.6471 13.7554 16.0845C13.7554 16.5219 14.1199 16.8765 14.5696 16.8765Z" fill="#006EFB"/>
<path d="M14.5696 16.5577C14.8382 16.5577 15.056 16.3459 15.056 16.0845C15.056 15.8232 14.8382 15.6113 14.5696 15.6113C14.3009 15.6113 14.0831 15.8232 14.0831 16.0845C14.0831 16.3459 14.3009 16.5577 14.5696 16.5577Z" fill="#006EFB"/>
<path d="M25.3005 14.6198L23.6635 15.7323C22.9632 14.8128 20.7707 13.4385 18.1729 13.4385C15.0111 13.4368 12.4478 15.4739 12.4478 16.2475C12.4478 17.021 15.0111 19.3987 18.1729 19.3987C20.7 19.3987 22.8424 17.8818 23.6014 16.8767L24.7503 17.902C24.8434 17.9859 24.9952 17.9355 25.0176 17.813L25.5489 14.7742C25.5731 14.6382 25.4161 14.5409 25.2988 14.6198H25.3005Z" stroke="#29C8A0" stroke-width="0.179921" stroke-miterlimit="10"/>
<path d="M18.2455 18.0159L16.9552 19.2761C16.881 19.3482 16.8983 19.4707 16.988 19.521L18.6284 20.4423C18.7457 20.5077 18.8871 20.4121 18.8664 20.2829L18.5163 18.1015C18.4956 17.9756 18.3369 17.9253 18.2437 18.0159H18.2455Z" fill="#006EFB" stroke="#29C8A0" stroke-width="0.179921" stroke-miterlimit="10"/>
<path d="M16.9087 19.4524L17.1398 19.1738L18.7941 19.8635L18.9166 20.3635C18.9442 20.4793 18.8286 20.5766 18.7147 20.533L16.9087 19.4541V19.4524Z" fill="#006EFB"/>
</g>
<defs>
<clipPath id="clip0_986_3778">
<rect width="38" height="30" fill="white"/>
</clipPath>
</defs>
</svg>
