<svg width="19" height="18" viewBox="0 0 19 18" fill="none" xmlns="http://www.w3.org/2000/svg">
<mask id="mask0_1153_1926" style="mask-type:alpha" maskUnits="userSpaceOnUse" x="0" y="0" width="19" height="18">
<rect width="19" height="18" fill="#D9D9D9"/>
</mask>
<g mask="url(#mask0_1153_1926)">
<mask id="path-2-outside-1_1153_1926" maskUnits="userSpaceOnUse" x="-105" y="-175" width="230" height="193" fill="black">
<rect fill="white" x="-105" y="-175" width="230" height="193"/>
<path fill-rule="evenodd" clip-rule="evenodd" d="M-72 -172C-88.5685 -172 -102 -158.569 -102 -142V-26C-102 -9.43146 -88.5685 4 -72 4H2.65285L9.5 14.4644L16.3471 4H92C108.569 4 122 -9.43146 122 -26V-142C122 -158.569 108.569 -172 92 -172H-72Z"/>
</mask>
<path fill-rule="evenodd" clip-rule="evenodd" d="M-72 -172C-88.5685 -172 -102 -158.569 -102 -142V-26C-102 -9.43146 -88.5685 4 -72 4H2.65285L9.5 14.4644L16.3471 4H92C108.569 4 122 -9.43146 122 -26V-142C122 -158.569 108.569 -172 92 -172H-72Z" fill="#0E2144"/>
<path d="M2.65285 4L5.16321 2.3574C4.609 1.51041 3.66505 1 2.65285 1V4ZM9.5 14.4644L6.98965 16.107C7.54386 16.9539 8.48781 17.4644 9.5 17.4644C10.5122 17.4644 11.4561 16.9539 12.0104 16.107L9.5 14.4644ZM16.3471 4V1C15.335 1 14.391 1.51041 13.8368 2.3574L16.3471 4ZM-99 -142C-99 -156.912 -86.9117 -169 -72 -169V-175C-90.2254 -175 -105 -160.225 -105 -142H-99ZM-99 -26V-142H-105V-26H-99ZM-72 1C-86.9117 1 -99 -11.0883 -99 -26H-105C-105 -7.7746 -90.2254 7 -72 7V1ZM2.65285 1H-72V7H2.65285V1ZM12.0104 12.8218L5.16321 2.3574L0.142503 5.6426L6.98965 16.107L12.0104 12.8218ZM13.8368 2.3574L6.98965 12.8218L12.0104 16.107L18.8575 5.6426L13.8368 2.3574ZM92 1H16.3471V7H92V1ZM119 -26C119 -11.0883 106.912 1 92 1V7C110.225 7 125 -7.7746 125 -26H119ZM119 -142V-26H125V-142H119ZM92 -169C106.912 -169 119 -156.912 119 -142H125C125 -160.225 110.225 -175 92 -175V-169ZM-72 -169H92V-175H-72V-169Z" fill="#D3EDFB" mask="url(#path-2-outside-1_1153_1926)"/>
</g>
</svg>
