<svg width="173" height="53" viewBox="0 0 173 53" fill="none" xmlns="http://www.w3.org/2000/svg">
<path d="M32.5311 35.7755C33.6993 35.7376 34.6286 36.784 34.4162 37.9366C33.1228 44.9509 25.9126 51.4343 17.3105 51.4343C7.73738 51.4343 0 43.6314 0 34.13C0 29.5157 1.76367 25.1025 5.02551 21.8456C7.84738 19.0247 11.4847 17.3223 15.452 16.9166C16.4495 16.8143 17.3143 17.6067 17.3143 18.6114C17.3143 19.4797 16.6581 20.2076 15.7972 20.2986C12.6339 20.6323 9.69828 22.0048 7.47188 24.2911C4.82449 26.8731 3.39838 30.403 3.39838 34.1376C3.39838 41.5689 9.39485 47.7755 16.8288 48.0372C23.6142 48.2722 29.3641 43.5556 30.7902 37.2352C30.9761 36.4087 31.6891 35.8058 32.5387 35.7793L32.5311 35.7755Z" fill="#D3EDFB"/>
<path d="M41.9414 17.2274C42.8782 17.2274 43.6406 17.9857 43.6406 18.926V50.2816C43.6406 51.2181 42.882 51.9802 41.9414 51.9802C41.0045 51.9802 40.2422 51.2219 40.2422 50.2816V18.9222C40.2422 17.9857 41.0008 17.2236 41.9414 17.2236V17.2274Z" fill="#D3EDFB"/>
<path d="M67.8882 20.6212H63.3937C62.9575 20.6212 62.6009 20.9738 62.6009 21.4136V50.282C62.6009 51.2185 61.8424 51.9806 60.9018 51.9806C59.9649 51.9806 59.2026 51.2223 59.2026 50.282V21.4098C59.2026 20.9738 58.8498 20.6174 58.4099 20.6174H49.6977C48.7609 20.6174 47.9985 19.8591 47.9985 18.9188C47.9985 17.9823 48.7571 17.2202 49.6977 17.2202H67.8806C68.8174 17.2202 69.5798 17.9785 69.5798 18.9188C69.5798 19.8553 68.8212 20.6174 67.8806 20.6174L67.8882 20.6212Z" fill="#D3EDFB"/>
<path d="M84.6943 37.1897V51.1689C84.6943 52.1054 83.9357 52.8675 82.9951 52.8675C82.0583 52.8675 81.2959 52.1092 81.2959 51.1689V25.9214C81.2959 23.8171 82.0431 21.8494 83.5375 20.4238C85.0318 18.9299 87.0003 18.1147 89.0371 18.1147H98.3068C99.2436 18.1147 100.006 18.873 100.006 19.8133C100.006 20.7498 99.2474 21.5119 98.3068 21.5119H89.0371C87.884 21.5119 86.7955 21.9859 85.9156 22.801C85.1001 23.6162 84.6943 24.7006 84.6943 25.9214V33.7925" fill="#D3EDFB"/>
<path d="M112.579 18.1185C113.516 18.1185 114.278 18.8768 114.278 19.8171V51.1727C114.278 52.1092 113.52 52.8713 112.579 52.8713C111.642 52.8713 110.88 52.113 110.88 51.1727V19.8133C110.88 18.8768 111.638 18.1147 112.579 18.1147V18.1185Z" fill="#D3EDFB"/>
<path d="M137.923 22.0769C137.366 22.6342 136.49 22.7366 135.83 22.3044C134.586 21.4816 133.046 21.038 131.426 21.038C127.489 21.038 124.299 23.821 124.299 27.2144C124.299 28.7082 124.91 30.1338 125.995 31.2182C127.353 32.5755 129.321 33.3907 131.426 33.3907C134.415 33.3907 137.263 34.5433 139.232 36.5111C140.995 38.2741 142.016 40.5831 142.016 42.9566C142.016 48.2495 137.263 52.5263 131.426 52.5263C128.437 52.5263 125.589 51.442 123.62 49.4059C122.376 48.1623 121.534 46.6457 121.148 45.0268C120.897 43.9689 121.713 42.9604 122.801 42.9604H122.813C123.594 42.9604 124.269 43.4988 124.455 44.2571C124.701 45.2694 125.229 46.2173 125.995 47.0325C127.353 48.3898 129.321 49.1367 131.426 49.1367C135.363 49.1367 138.621 46.3538 138.621 42.9604C138.621 41.4666 138.01 40.041 136.857 38.9566C135.5 37.5992 133.531 36.7841 131.426 36.7841C128.437 36.7841 125.589 35.6315 123.62 33.6637C121.857 31.9006 120.905 29.5916 120.905 27.2182C120.905 21.9252 125.589 17.6484 131.43 17.6484C133.69 17.6484 135.875 18.3082 137.658 19.4835C138.549 20.0712 138.682 21.3262 137.927 22.0807L137.923 22.0769Z" fill="#D3EDFB"/>
<path d="M168.835 32.0977V19.8133C168.835 18.8768 169.593 18.1147 170.534 18.1147C171.471 18.1147 172.233 18.873 172.233 19.8133V51.1689C172.233 52.1054 171.474 52.8675 170.534 52.8675C169.597 52.8675 168.835 52.1092 168.835 51.1689V32.0977ZM150.91 38.8845V51.1689C150.91 52.1054 150.151 52.8675 149.21 52.8675C148.274 52.8675 147.511 52.1092 147.511 51.1689V19.8133C147.511 18.8768 148.27 18.1147 149.21 18.1147C150.147 18.1147 150.91 18.873 150.91 19.8133V38.8845Z" fill="#D3EDFB"/>
<path d="M101.314 35.4948C104.235 33.364 82.2706 27.7298 74.4801 34.4635C74.0136 34.8654 73.7519 35.5896 74.3132 36.0673C75.2159 36.8332 76.3727 37.5043 78.4171 38.0086C81.3376 38.7252 94.8059 40.2455 101.318 35.4948H101.314Z" fill="#006EFB"/>
<path d="M103.996 30.9604L100.7 35.0856H103.996V30.9604Z" fill="#006EFB"/>
<path d="M103.996 39.2068L100.7 35.0854H103.996V39.2068Z" fill="#006EFB"/>
<path d="M77.5599 35.3927C78.0312 35.3927 78.4133 35.0108 78.4133 34.5396C78.4133 34.0685 78.0312 33.6865 77.5599 33.6865C77.0886 33.6865 76.7065 34.0685 76.7065 34.5396C76.7065 35.0108 77.0886 35.3927 77.5599 35.3927Z" fill="#D0E9F7"/>
<path d="M17.1512 36.7538C18.4625 36.7538 19.5255 35.6911 19.5255 34.3803C19.5255 33.0695 18.4625 32.0068 17.1512 32.0068C15.8399 32.0068 14.7769 33.0695 14.7769 34.3803C14.7769 35.6911 15.8399 36.7538 17.1512 36.7538Z" fill="#D3EDFB"/>
<path d="M160.278 37.1633C161.363 37.1633 162.242 36.284 162.242 35.1993C162.242 34.1147 161.363 33.2354 160.278 33.2354C159.193 33.2354 158.313 34.1147 158.313 35.1993C158.313 36.284 159.193 37.1633 160.278 37.1633Z" fill="#D3EDFB"/>
<path d="M142.137 26.0427C143.222 26.0427 144.101 25.1634 144.101 24.0787C144.101 22.9941 143.222 22.1147 142.137 22.1147C141.052 22.1147 140.172 22.9941 140.172 24.0787C140.172 25.1634 141.052 26.0427 142.137 26.0427Z" fill="#D3EDFB"/>
<path d="M104.694 22.1414C105.779 22.1414 106.658 21.2621 106.658 20.1774C106.658 19.0927 105.779 18.2134 104.694 18.2134C103.609 18.2134 102.729 19.0927 102.729 20.1774C102.729 21.2621 103.609 22.1414 104.694 22.1414Z" fill="#D3EDFB"/>
<path d="M74.2674 21.0042C75.3525 21.0042 76.2321 20.1248 76.2321 19.0402C76.2321 17.9555 75.3525 17.0762 74.2674 17.0762C73.1824 17.0762 72.3027 17.9555 72.3027 19.0402C72.3027 20.1248 73.1824 21.0042 74.2674 21.0042Z" fill="#D3EDFB"/>
<path d="M29.6792 1C36.6808 1 41.7746 6.75927 50.0505 6.75927C58.3265 6.75927 62.73 1 70.3687 1" stroke="#D3EDFB" stroke-width="2" stroke-miterlimit="10" stroke-linecap="round"/>
<path d="M70.3687 1C77.3702 1 82.464 6.75927 90.74 6.75927C99.0159 6.75927 103.419 1 111.058 1" stroke="#D3EDFB" stroke-width="2" stroke-miterlimit="10" stroke-linecap="round"/>
<path d="M111.058 1C118.06 1 123.153 6.75927 131.429 6.75927C139.705 6.75927 144.109 1 151.748 1" stroke="#D3EDFB" stroke-width="2" stroke-miterlimit="10" stroke-linecap="round"/>
</svg>
