<svg width="16" height="14" viewBox="0 0 16 14" fill="none" xmlns="http://www.w3.org/2000/svg">
<g clip-path="url(#clip0_265_719)">
<path d="M15.4045 6.73716L15.4061 6.73925C15.4586 6.80638 15.492 6.89864 15.492 6.99998C15.492 7.10132 15.4586 7.19358 15.4061 7.26071L15.4045 7.26281L14.4066 8.55295C13.6047 9.56057 12.6175 10.3651 11.5132 10.9154C10.4082 11.466 9.21033 11.7499 7.99998 11.7499C6.78962 11.7499 5.59177 11.466 4.48676 10.9154C3.38249 10.3651 2.39522 9.56057 1.59339 8.55295L0.59547 7.26281L0.595475 7.26281L0.59384 7.26072C0.541343 7.19358 0.507935 7.10132 0.507935 6.99998C0.507935 6.89864 0.541343 6.80638 0.59384 6.73925L0.593846 6.73925L0.59547 6.73715L1.59339 5.44703C2.39521 4.4394 3.38249 3.63482 4.48676 3.08457C5.59177 2.53396 6.78962 2.25006 7.99998 2.25006C9.21033 2.25006 10.4082 2.53396 11.5132 3.08457C12.6175 3.63482 13.6047 4.43939 14.4066 5.44701L15.4045 6.73716Z" stroke="#D3EDFB"/>
<path d="M7.99998 9.625C9.32546 9.625 10.4 8.44975 10.4 7C10.4 5.55025 9.32546 4.375 7.99998 4.375C6.67449 4.375 5.59998 5.55025 5.59998 7C5.59998 8.44975 6.67449 9.625 7.99998 9.625Z" fill="#D3EDFB"/>
<path d="M13.6 14C13.495 14.0001 13.3909 13.9775 13.2938 13.9336C13.1967 13.8897 13.1084 13.8253 13.0341 13.744L1.83406 1.49405C1.68395 1.32986 1.59961 1.10719 1.59961 0.874992C1.59961 0.642799 1.68395 0.420125 1.83406 0.255939C1.98417 0.0917539 2.18776 -0.000488281 2.40005 -0.000488281C2.61234 -0.000488281 2.81593 0.0917539 2.96604 0.255939L14.166 12.5059C14.278 12.6283 14.3544 12.7843 14.3853 12.9541C14.4162 13.1239 14.4003 13.3 14.3397 13.4599C14.2791 13.6199 14.1765 13.7566 14.0448 13.8528C13.9131 13.9489 13.7584 14.0001 13.6 14Z" fill="#D3EDFB"/>
</g>
<defs>
<clipPath id="clip0_265_719">
<rect width="16" height="14" fill="white"/>
</clipPath>
</defs>
</svg>
