<svg width="20" height="24" viewBox="0 0 20 24" fill="none" xmlns="http://www.w3.org/2000/svg">
<path d="M15.8928 10.8C15.5802 10.8 15.2805 10.6736 15.0595 10.4485C14.8384 10.2235 14.7142 9.91826 14.7142 9.6V6C14.7142 5.04522 14.3418 4.12956 13.6787 3.45443C13.0156 2.7793 12.1163 2.4 11.1785 2.4H8.82139C7.88366 2.4 6.98431 2.7793 6.32124 3.45443C5.65816 4.12956 5.28567 5.04522 5.28567 6V9.6C5.28567 9.91826 5.16148 10.2235 4.94046 10.4485C4.71943 10.6736 4.41968 10.8 4.1071 10.8C3.79452 10.8 3.49477 10.6736 3.27374 10.4485C3.05272 10.2235 2.92853 9.91826 2.92853 9.6V6C2.92853 4.4087 3.54939 2.88259 4.65452 1.75737C5.75965 0.632155 7.2585 0 8.82139 0H11.1785C12.7414 0 14.2403 0.632155 15.3454 1.75737C16.4505 2.88259 17.0714 4.4087 17.0714 6V9.6C17.0714 9.91826 16.9472 10.2235 16.7262 10.4485C16.5052 10.6736 16.2054 10.8 15.8928 10.8Z" fill="#D3EDFB"/>
<path d="M15.8928 8.40002H4.10713C2.1544 8.40002 0.571411 10.0118 0.571411 12V20.4C0.571411 22.3883 2.1544 24 4.10713 24H15.8928C17.8456 24 19.4286 22.3883 19.4286 20.4V12C19.4286 10.0118 17.8456 8.40002 15.8928 8.40002Z" fill="#9AADB8"/>
<path d="M11.1785 13.2H8.82139C8.50882 13.2 8.20906 13.3265 7.98804 13.5515C7.76701 13.7765 7.64282 14.0818 7.64282 14.4C7.64282 14.7183 7.76701 15.0235 7.98804 15.2485C8.20906 15.4736 8.50882 15.6 8.82139 15.6V18C8.82139 18.3183 8.94558 18.6235 9.16661 18.8485C9.38763 19.0736 9.68739 19.2 9.99997 19.2C10.3125 19.2 10.6123 19.0736 10.8333 18.8485C11.0544 18.6235 11.1785 18.3183 11.1785 18V15.6C11.4911 15.6 11.7909 15.4736 12.0119 15.2485C12.2329 15.0235 12.3571 14.7183 12.3571 14.4C12.3571 14.0818 12.2329 13.7765 12.0119 13.5515C11.7909 13.3265 11.4911 13.2 11.1785 13.2Z" fill="#D3EDFB"/>
</svg>
