<?xml version="1.0" encoding="utf-8"?>
<!-- Generator: Adobe Illustrator 27.0.1, SVG Export Plug-In . SVG Version: 6.00 Build 0)  -->
<svg version="1.1" id="レイヤー_1" xmlns="http://www.w3.org/2000/svg" xmlns:xlink="http://www.w3.org/1999/xlink" x="0px"
	 y="0px" viewBox="0 0 122 80" style="enable-background:new 0 0 122 80;" xml:space="preserve">
<style type="text/css">
	.st0{fill:#14A7FF;}
	.st1{fill:#E2E1D4;}
	.st2{fill:#CDC9C3;}
	.st3{fill:#FFFFFF;}
	.st4{fill:#231815;}
	.st5{fill:#0E72A2;}
</style>
<g id="本体_xFF08_薄_xFF09_">
	<path class="st0" d="M95.9,26.1c0.1,0,0.2,0,0.2,0.1c0.3,1.3,2.4,12.2-7.8,12.4c-10.9,0.2-77.2,0-77.2,0s-6.9-0.7,0,11.6
		c16.7,29.9,92.9,24,92.9-9.5c0,0,0.1-8.3-3-14.5c-0.1-0.1,0-0.3,0.2-0.3c2.1,0.1,13.5,0,13.6-15.8c0-0.1-0.1-0.2-0.2-0.2
		c-1.7,0.4-11.9,3-15.2,7.4c-0.5,0.7-1.6,0.6-2-0.2c-1.6-2.9-6.1-7.2-14.5-7.3c-0.1,0-0.2,0.1-0.2,0.2C82.4,11.8,80.8,26,95.9,26.1z
		"/>
</g>
<g id="色変わらんとこ">
	<path class="st1" d="M9.3,46.8h47.4c0,0,7.2,0,7.2,10.9c0,7.7,0,11.5,0,11.5C62,70.3,18.9,72.4,9.3,46.8L9.3,46.8z"/>
	<path class="st2" d="M18.9,59.4l-1.8-1.5l-0.8-0.7l-0.8-0.8v-9.5H19v12.5H18.9z"/>
	<path class="st2" d="M28.6,64.8l-3.5-1.6V46.8h3.5V64.8z"/>
	<path class="st2" d="M39,67.9l-1.4-0.3l-2.1-0.5V46.8H39V67.9z"/>
	<path class="st2" d="M50,69.5l-3.5-0.4V46.8H50V69.5z"/>
	<path class="st2" d="M59.9,69.7h-1.7h-1.7V46.8h0.3c1.6,0,3.1,1,3.1,1S59.9,69.7,59.9,69.7z"/>
	<path class="st3" d="M38.9,50.9c2.8,0,5.1-2.2,5.1-5s-2.3-5-5.1-5s-5.1,2.2-5.1,5C33.8,48.7,36.1,50.9,38.9,50.9z"/>
	<path class="st4" d="M38.9,48.9c1.7,0,3-1.3,3-3c0-1.6-1.4-3-3-3c-1.7,0-3,1.3-3,3C35.9,47.6,37.2,48.9,38.9,48.9z"/>
	<path class="st3" d="M30.5,50.9c2.8,0,5.1-2.2,5.1-5s-2.3-5-5.1-5s-5.1,2.2-5.1,5C25.4,48.7,27.7,50.9,30.5,50.9z"/>
	<path class="st4" d="M30.5,48.9c1.7,0,3-1.3,3-3c0-1.6-1.4-3-3-3s-3,1.3-3,3C27.5,47.6,28.8,48.9,30.5,48.9z"/>
</g>
<g id="ひれ_xFF08_濃_xFF09_">
	<path class="st5" d="M81.1,59.8c0.3-0.2,0.3-0.7,0-0.9c-2.2-1.1-8.1-4.1-10.2-6.7c-2.1-2.7-8.4-5.5-9.4,0.3
		c-0.5,3.1,0.8,6.2,3.3,8.1C68,62.9,73.4,64.8,81.1,59.8L81.1,59.8z"/>
</g>
</svg>
