<?xml version="1.0" encoding="utf-8"?>
<!-- Generator: Adobe Illustrator 27.0.1, SVG Export Plug-In . SVG Version: 6.00 Build 0)  -->
<svg version="1.1" id="レイヤー_1" xmlns="http://www.w3.org/2000/svg" xmlns:xlink="http://www.w3.org/1999/xlink" x="0px"
	 y="0px" viewBox="0 0 74 54" style="enable-background:new 0 0 74 54;" xml:space="preserve">
<style type="text/css">
	.st0{fill:#F1652A;}
	.st1{fill:#E54D26;}
	.st2{fill:#FFFFFF;}
	.st3{fill:#231815;}
</style>
<g id="ひれ_xFF08_薄_xFF09_">
	<path class="st0" d="M53.3,49.9c0.6-1.9-1.3-4.3-4.3-5.3s-6-0.2-6.6,1.7s1.3,4.3,4.3,5.3S52.6,51.8,53.3,49.9z"/>
	<path class="st0" d="M45.8,5.1c-1.1-1.9-3-3.4-5.1-3.1c-0.8,0.1-2.3,0.4-3.1,0.4c-1,0-1.9-0.1-2.8-0.4L30,0.5
		c-0.7-0.2-1.3-0.4-2-0.5c-0.8-0.1-1.6,0-2.3,0.3c-0.7,0.3-1.4,0.7-2,1.2c-1.7,1.7-1.9,4.2-2.1,6.6c0,0.3,0,0.7,0.1,0.9
		c0.2,0.2,0.4,0.4,0.7,0.5c2.4,0.9,5,0.3,7.6,0.3c4.4,0,8.7,1.7,13,1.6C47.1,11.2,47.5,8,45.8,5.1z"/>
</g>
<path id="本体_xFF08_濃_xFF09_" class="st1" d="M71.9,21.5c-0.1,0-0.2,0-0.3,0c-3.1,0.8-6.1,1.8-9.1,2.9
	c-3.1-11-17-19.3-33.8-19.3C9.6,5.1,0,15.8,0,29s9.6,24,28.7,24c15.4,0,28.4-7,32.8-16.6c0.2,0.1,0.4,0.3,0.6,0.4l7.9,4.6
	c0.3,0.2,0.6,0.4,1,0.3c0.7-0.1,1-1,1-1.7c0.6-5.2,1.1-10.4,1.2-15.6C73.3,23.4,73.3,21.3,71.9,21.5z"/>
<g id="ひれ_xFF08_薄_xFF09__00000023977639366560864690000016415775854832945067_">
	<path class="st0" d="M23.1,42.4c1.1-4.2,1-8.4,0.6-12.7s-1.1-8.6-2.7-12.6c-1.4-3.5-3.4-6.7-6-9.5c-9.9,3.8-15,12-15,21.6
		c0,10.5,6.2,19.4,18.3,22.6C20.6,49.1,22.2,45.9,23.1,42.4z"/>
	<path class="st0" d="M26.4,40.3c0.6,0.5,1.3,0.7,2,1c2.1,0.7,4.2,1.5,6.4,1.6c0.2,0,0.4,0,0.6,0c0.2-0.1,0.4-0.2,0.5-0.4
		c0.6-0.7,0.6-1.6,0.6-2.5c0-1.8,0.1-3.6,0.1-5.4c0-0.2,0-0.4-0.1-0.6c-0.1-0.3-0.3-0.5-0.6-0.6c-0.6-0.4-1.4-0.6-2.1-0.5
		c-0.7,0-1.4,0.3-2,0.5C30,34.1,27.5,35,26,36.2C24.8,37.3,25.1,39.4,26.4,40.3z"/>
</g>
<g id="色変わらん">
	<path class="st2" d="M11.6,31.3c2.2,0,4-1.8,4-4s-1.8-4-4-4s-4,1.8-4,4C7.6,29.5,9.4,31.3,11.6,31.3z"/>
	<path class="st3" d="M12.1,28.9c1.3,0,2.4-1.1,2.4-2.4s-1.1-2.4-2.4-2.4s-2.4,1.1-2.4,2.4C9.6,27.8,10.7,28.9,12.1,28.9z"/>
</g>
</svg>
