<svg width="122" height="80" viewBox="0 0 122 80" fill="none" xmlns="http://www.w3.org/2000/svg">
<g clip-path="url(#clip0_1049_2066)">
<path d="M85.1479 73.926C86.0367 71.1112 83.2219 67.5556 78.7775 66.0742C74.333 64.5927 69.8886 65.7779 68.9997 68.5927C68.1108 71.4075 70.9256 74.963 75.3701 76.4445C79.8145 77.926 84.1108 76.7408 85.1479 73.926Z" fill="#F1652A"/>
<path d="M74.0369 7.55545C72.4073 4.74063 69.5925 2.51841 66.4814 2.96285C65.2962 3.111 63.0739 3.55545 61.8888 3.55545C60.4073 3.55545 59.0739 3.4073 57.7406 2.96285L50.6295 0.740632C49.5925 0.444336 48.7036 0.14804 47.6665 -0.000108502C46.4814 -0.148257 45.2962 -0.000108513 44.2591 0.444336C43.2221 0.88878 42.1851 1.48137 41.2962 2.22211C38.7777 4.74063 38.4814 8.44434 38.1851 11.9999C38.1851 12.4443 38.1851 13.0369 38.3332 13.3332C38.6295 13.6295 38.9258 13.9258 39.3702 14.074C42.9258 15.4073 46.7777 14.5184 50.6295 14.5184C57.148 14.5184 63.5184 17.0369 69.8888 16.8888C75.9628 16.5925 76.5554 11.8517 74.0369 7.55545Z" fill="#F1652A"/>
<path d="M112.704 31.852C112.555 31.852 112.407 31.852 112.259 31.852C107.667 33.0371 103.222 34.5186 98.7776 36.1483C94.1851 19.852 73.5925 7.55566 48.7036 7.55566C20.4073 7.55566 6.18506 23.4075 6.18506 42.9631C6.18506 62.5186 20.4073 78.5186 48.7036 78.5186C71.5184 78.5186 90.7776 68.1483 97.2962 53.926C97.5925 54.0742 97.8888 54.3705 98.1851 54.5186L109.889 61.3334C110.333 61.6297 110.778 61.926 111.37 61.7779C112.407 61.6297 112.852 60.2964 112.852 59.2594C113.741 51.5557 114.481 43.852 114.629 36.1483C114.778 34.6668 114.778 31.5557 112.704 31.852Z" fill="#E54D26"/>
<path d="M40.4073 62.8148C42.0369 56.5926 41.8888 50.3704 41.2962 44C40.7036 37.6296 39.6665 31.2593 37.2962 25.3334C35.2221 20.1482 32.2591 15.4074 28.4073 11.2593C13.7406 16.8889 6.18506 29.0371 6.18506 43.2593C6.18506 58.8148 15.3702 72 33.2962 76.7408C36.7036 72.7408 39.0739 68 40.4073 62.8148Z" fill="#F1652A"/>
<path d="M45.2961 59.7038C46.185 60.4446 47.2221 60.7409 48.2591 61.1853C51.3702 62.2224 54.4813 63.4075 57.7406 63.5557C58.0369 63.5557 58.3332 63.5557 58.6295 63.5557C58.9258 63.4075 59.2221 63.2594 59.3702 62.9631C60.2591 61.9261 60.2591 60.5927 60.2591 59.2594C60.2591 56.5927 60.4073 53.9261 60.4073 51.2594C60.4073 50.9631 60.4073 50.6668 60.2591 50.3705C60.111 49.9261 59.8147 49.6298 59.3702 49.4816C58.4813 48.889 57.2961 48.5927 56.2591 48.7409C55.2221 48.7409 54.185 49.1853 53.2961 49.4816C50.6295 50.5187 46.9258 51.852 44.7036 53.6298C42.9258 55.2594 43.3702 58.3705 45.2961 59.7038Z" fill="#F1652A"/>
<path d="M23.3703 46.3704C26.6295 46.3704 29.2962 43.7037 29.2962 40.4445C29.2962 37.1852 26.6295 34.5186 23.3703 34.5186C20.111 34.5186 17.4443 37.1852 17.4443 40.4445C17.4443 43.7037 20.111 46.3704 23.3703 46.3704Z" fill="white"/>
<path d="M24.1108 42.8147C26.0367 42.8147 27.6664 41.1851 27.6664 39.2592C27.6664 37.3332 26.0367 35.7036 24.1108 35.7036C22.1849 35.7036 20.5553 37.3332 20.5553 39.2592C20.4071 41.1851 22.0367 42.8147 24.1108 42.8147Z" fill="#231815"/>
</g>
<defs>
<clipPath id="clip0_1049_2066">
<rect width="109.63" height="80" fill="white" transform="translate(6.18506)"/>
</clipPath>
</defs>
</svg>
