<svg width="122" height="80" viewBox="0 0 122 80" fill="none" xmlns="http://www.w3.org/2000/svg">
<g clip-path="url(#clip0_1049_2078)">
<path d="M85.1479 73.926C86.0367 71.1112 83.2219 67.5556 78.7775 66.0742C74.333 64.5927 69.8886 65.7779 68.9997 68.5927C68.1108 71.4075 70.9256 74.963 75.3701 76.4445C79.8145 77.926 84.1108 76.7408 85.1479 73.926Z" fill="#B53300"/>
<path d="M74.0369 7.55545C72.4073 4.74063 69.5925 2.51841 66.4814 2.96285C65.2962 3.111 63.0739 3.55545 61.8888 3.55545C60.4073 3.55545 59.0739 3.4073 57.7406 2.96285L50.6295 0.740632C49.5925 0.444336 48.7036 0.14804 47.6665 -0.000108502C46.4814 -0.148257 45.2962 -0.000108513 44.2591 0.444336C43.2221 0.88878 42.1851 1.48137 41.2962 2.22211C38.7777 4.74063 38.4814 8.44434 38.1851 11.9999C38.1851 12.4443 38.1851 13.0369 38.3332 13.3332C38.6295 13.6295 38.9258 13.9258 39.3702 14.074C42.9258 15.4073 46.7777 14.5184 50.6295 14.5184C57.148 14.5184 63.5184 17.0369 69.8888 16.8888C75.9628 16.5925 76.5554 11.8517 74.0369 7.55545Z" fill="#B53300"/>
<path d="M112.704 31.852C112.555 31.852 112.407 31.852 112.259 31.852C107.667 33.0371 103.222 34.5186 98.7776 36.1483C94.1851 19.852 73.5925 7.55566 48.7036 7.55566C20.4073 7.55566 6.18506 23.4075 6.18506 42.9631C6.18506 62.5186 20.4073 78.5186 48.7036 78.5186C71.5184 78.5186 90.7776 68.1483 97.2962 53.926C97.5925 54.0742 97.8888 54.3705 98.1851 54.5186L109.889 61.3334C110.333 61.6297 110.778 61.926 111.37 61.7779C112.407 61.6297 112.852 60.2964 112.852 59.2594C113.741 51.5557 114.481 43.852 114.629 36.1483C114.778 34.6668 114.778 31.5557 112.704 31.852Z" fill="#E54D26"/>
<path d="M45.2961 59.7038C46.185 60.4446 47.2221 60.7409 48.2591 61.1853C51.3702 62.2224 54.4813 63.4075 57.7406 63.5557C58.0369 63.5557 58.3332 63.5557 58.6295 63.5557C58.9258 63.4075 59.2221 63.2594 59.3702 62.9631C60.2591 61.9261 60.2591 60.5927 60.2591 59.2594C60.2591 56.5927 60.4073 53.9261 60.4073 51.2594C60.4073 50.9631 60.4073 50.6668 60.2591 50.3705C60.111 49.9261 59.8147 49.6298 59.3702 49.4816C58.4813 48.889 57.2961 48.5927 56.2591 48.7409C55.2221 48.7409 54.185 49.1853 53.2961 49.4816C50.6295 50.5187 46.9258 51.852 44.7036 53.6298C42.9258 55.2594 43.3702 58.3705 45.2961 59.7038Z" fill="#B53300"/>
<path d="M71.9629 63.852C70.7777 56.1483 69.4444 46.2224 71.2222 31.8521C72.5555 21.6298 71.5185 14.5187 70.9259 11.1113C65.8889 9.33353 60.2592 8.2965 54.4814 7.85205C57.4444 13.778 62.9259 25.9261 62.4814 35.5558C61.8889 47.8521 55.3703 70.2224 57.4444 78.0743C63.9629 77.3335 69.8889 75.7039 75.3703 73.4817C73.7407 70.6669 72.4074 67.2595 71.9629 63.852Z" fill="#FFB596"/>
<path d="M29.1481 75.4077C31.3703 76.1484 33.7407 76.8892 36.1111 77.3336C39.2222 71.1114 49.7407 48.2966 42.7777 32.1484C37.8888 20.8892 36.8518 13.1855 35.8148 8.88916C32.7036 9.48175 29.7407 10.3706 27.2222 11.5558C30.7777 17.1855 43.8148 41.6299 29.1481 75.4077Z" fill="#FFB596"/>
<path d="M98.7778 36.1481C97.1482 30.3704 93.4445 25.1852 88.4075 20.7407C87.963 26.0741 86.7778 48.2963 90.4815 63.5555C93.4445 60.5926 95.8149 57.4815 97.2964 53.9259C97.5927 54.0741 97.7408 54.2222 98.0371 54.3704C98.0371 51.4074 98.1852 47.5555 99.0741 42.5185C99.5186 39.7037 99.963 37.3333 100.407 35.4074C99.963 35.7037 99.3704 36 98.7778 36.1481Z" fill="#FFB596"/>
<path d="M23.3703 46.3704C26.6295 46.3704 29.2962 43.7037 29.2962 40.4445C29.2962 37.1852 26.6295 34.5186 23.3703 34.5186C20.111 34.5186 17.4443 37.1852 17.4443 40.4445C17.4443 43.7037 20.111 46.3704 23.3703 46.3704Z" fill="white"/>
<path d="M24.1108 42.8147C26.0367 42.8147 27.6664 41.1851 27.6664 39.2592C27.6664 37.3332 26.0367 35.7036 24.1108 35.7036C22.1849 35.7036 20.5553 37.3332 20.5553 39.2592C20.4071 41.1851 22.0367 42.8147 24.1108 42.8147Z" fill="#231815"/>
<path d="M114.63 36.1481C114.778 34.6666 114.778 31.5555 112.704 31.8518C112.556 31.8518 112.407 31.8518 112.259 31.8518C111.815 31.9999 111.37 32.1481 110.778 32.2962C111.519 35.7036 113.296 47.1111 109.296 61.037L109.741 61.3333C110.185 61.6296 110.63 61.9259 111.222 61.7777C112.259 61.6296 112.704 60.2962 112.704 59.2592C113.741 51.5555 114.482 43.8518 114.63 36.1481Z" fill="black"/>
<path d="M66.4816 2.96285C65.2964 3.111 63.0742 3.55545 61.889 3.55545C60.4075 3.55545 59.0742 3.4073 57.7408 2.96285L50.6297 0.740632C49.5927 0.444336 48.7038 0.14804 47.6668 -0.000108502C46.4816 -0.148257 45.2964 -0.000108513 44.2594 0.444336C43.2223 0.88878 42.1853 1.48137 41.2964 2.22211C41.0001 2.51841 40.852 2.81471 40.5557 3.111C40.7038 3.111 40.852 3.111 40.852 2.96285C43.9631 1.92582 47.3705 2.07397 50.4816 3.25915C52.5557 3.99989 55.0742 4.74063 58.0371 5.18508C58.7779 5.33322 59.5186 5.33322 60.2594 5.18508C61.2964 5.03693 62.4816 4.88878 63.2223 4.74063C66.0371 4.14804 67.6668 4.44434 70.3334 5.62952C71.3705 6.07397 72.2594 6.22211 73.2964 6.37026C71.6668 4.14804 69.1483 2.51841 66.4816 2.96285Z" fill="black"/>
<path d="M85.148 73.9256C85.2961 73.1849 85.2961 72.5923 85.148 71.8516C83.8146 75.7034 79.222 76.5923 76.4072 76.7405C80.4072 77.7775 84.2591 76.5923 85.148 73.9256Z" fill="black"/>
<path d="M36.1112 77.3331C36.4075 75.8516 49.889 48.2961 42.9261 32.1479C37.889 20.8887 36.852 13.185 35.8149 8.88867" stroke="black" stroke-miterlimit="10"/>
<path d="M27.0737 11.5557C30.6293 17.3334 43.6663 41.6297 28.9997 75.4075" stroke="black" stroke-miterlimit="10"/>
<path d="M98.0371 54.3702C98.4816 53.6295 98.1853 47.5554 99.0741 42.5183C99.5186 39.7035 100.704 36.2961 100.407 35.4072" stroke="black" stroke-miterlimit="10"/>
<path d="M88.4072 20.7407C86.9257 22.0741 87.0739 59.8518 90.4813 63.5555" stroke="black" stroke-miterlimit="10"/>
<path d="M75.222 73.3334C73.8886 70.5185 72.4071 67.1111 71.9627 63.8519C70.7775 56.1482 69.4442 46.2222 71.222 31.8519C72.5553 21.6296 70.3331 13.3334 71.0738 11.2593" stroke="black" stroke-miterlimit="10"/>
<path d="M54.4815 7.85156C54.1852 8.5923 62.9259 25.9256 62.4815 35.5553C61.8889 47.8516 55.3704 70.2219 57.4445 78.0738" stroke="black" stroke-miterlimit="10"/>
<path d="M59.2223 49.4816C58.1852 48.889 56.8519 48.5927 55.6667 48.7409H55.5186C57.1482 51.1112 60.2593 57.1853 56.5556 63.4075C56.8519 63.4075 57.1482 63.4075 57.2963 63.4075C57.5926 63.4075 58.0371 63.4075 58.3334 63.4075C58.6297 63.2594 59.0741 63.1112 59.2223 62.815C60.2593 61.7779 60.2593 60.4446 60.2593 59.1112C60.2593 56.4446 60.4074 53.7779 60.4074 51.1112C60.4074 50.815 60.4074 50.5187 60.2593 50.2224C60.1111 49.9261 59.6667 49.6298 59.2223 49.4816Z" fill="black"/>
</g>
<defs>
<clipPath id="clip0_1049_2078">
<rect width="109.63" height="80" fill="white" transform="translate(6.18506)"/>
</clipPath>
</defs>
</svg>
