<svg width="122" height="80" viewBox="0 0 122 80" fill="none" xmlns="http://www.w3.org/2000/svg">
<g clip-path="url(#clip0_1049_2103)">
<path d="M87.9206 15.365H52.2381C50.7143 15.365 49.6984 13.7142 50.3333 12.3173L55.7937 1.14274C56.1746 0.253852 57.0635 -0.1271 58.0794 -0.000116256L90.7143 11.9364C91.7302 12.0634 92.4921 12.9523 92.4921 13.9681L90.0794 13.3332C90.0794 14.4761 89.0635 15.365 87.9206 15.365Z" fill="#0E72A2"/>
<path d="M107.984 43.9366L89.5713 54.6033C89.3174 54.7303 89.3174 55.1112 89.5713 55.3652L107.984 66.0318C108.238 66.1588 108.619 66.0318 108.619 65.6509V44.3176C108.619 44.0636 108.238 43.8096 107.984 43.9366Z" fill="#0E72A2"/>
<path d="M96.0475 12.0635V72.7619H13.3809V66.2857C13.3809 66.2857 30.2697 68.4444 30.2697 53.9682C30.2697 39.492 28.238 12.0635 43.984 12.0635C44.238 12.0635 49.9523 12.0635 57.5713 12.0635C73.0634 12.0635 96.0475 12.0635 96.0475 12.0635Z" fill="#14A7FF"/>
<path d="M57.8253 12.0635V72.7619H13.3809V66.2857C13.3809 66.2857 30.2697 68.4444 30.2697 53.9682C30.2697 39.492 28.111 12.0635 43.984 12.0635H57.8253Z" fill="#07324B"/>
<path d="M78.9046 79.492H51.8569C51.603 79.492 51.476 79.365 51.349 79.238L42.9681 69.7142C42.5871 69.2062 42.8411 68.4443 43.476 68.4443H75.349C75.603 68.4443 75.9839 68.5713 75.9839 68.9523L79.6665 78.4761C79.7934 78.984 79.4125 79.492 78.9046 79.492Z" fill="#0E72A2"/>
<path d="M40.0474 63.873C43.3489 63.873 46.0156 61.2064 46.0156 57.9048C46.0156 54.6032 43.3489 51.9365 40.0474 51.9365C36.7458 51.9365 34.0791 54.6032 34.0791 57.9048C34.0791 61.2064 36.7458 63.873 40.0474 63.873Z" fill="white"/>
<path d="M40.0473 61.4602C42.079 61.4602 43.6028 59.8094 43.6028 57.9047C43.6028 55.8729 41.952 54.3491 40.0473 54.3491C38.0155 54.3491 36.4917 55.9999 36.4917 57.9047C36.4917 59.9364 38.1425 61.4602 40.0473 61.4602Z" fill="#231815"/>
</g>
<defs>
<clipPath id="clip0_1049_2103">
<rect width="95.2381" height="80" fill="white" transform="translate(13.3809)"/>
</clipPath>
</defs>
</svg>
