<svg width="122" height="80" viewBox="0 0 122 80" fill="none" xmlns="http://www.w3.org/2000/svg">
<g clip-path="url(#clip0_1049_1903)">
<path d="M60.8839 0C46.739 0 35.0288 12.4058 33.7534 28.4058C33.6375 30.029 34.681 31.3044 35.9563 31.3044H40.1303V57.3913C40.1303 59.4783 41.8694 61.2174 43.9563 61.2174C46.0433 61.2174 47.7824 59.4783 47.7824 57.3913V31.3044H51.0288V75.4783C51.0288 77.5652 52.7679 79.3044 54.8549 79.3044C56.9418 79.3044 58.681 77.5652 58.681 75.4783V31.3044H61.4636V70.7246C61.4636 72.8116 63.2027 74.5507 65.2897 74.5507C67.3766 74.5507 69.1158 72.8116 69.1158 70.7246V31.3044H71.8984V63.7681C71.8984 65.8551 73.6375 67.5942 75.7245 67.5942C77.8114 67.5942 79.5505 65.8551 79.5505 63.7681V31.3044H86.1592C87.4346 31.3044 88.4781 29.913 88.3621 28.2899C86.7389 12.4058 75.0288 0 60.8839 0Z" fill="#1FBFBF"/>
<path d="M41.8692 35.942C42.333 35.942 42.6808 35.5942 42.6808 35.1304C42.6808 34.6667 42.333 34.3188 41.8692 34.3188C41.4054 34.3188 41.0576 34.6667 41.0576 35.1304C41.1736 35.5942 41.5214 35.942 41.8692 35.942Z" fill="#67E6E6"/>
<path d="M53.9273 36.7536C54.3911 36.7536 54.7389 36.4057 54.7389 35.942C54.7389 35.4782 54.3911 35.1304 53.9273 35.1304C53.4635 35.1304 53.1157 35.4782 53.1157 35.942C53.1157 36.4057 53.4635 36.7536 53.9273 36.7536Z" fill="#67E6E6"/>
<path d="M74.5651 41.739C74.9129 41.739 75.1448 41.5071 75.1448 41.1593C75.1448 40.8115 74.7969 40.5796 74.5651 40.5796C74.2172 40.5796 73.9854 40.8115 73.9854 41.1593C73.9854 41.5071 74.2172 41.739 74.5651 41.739Z" fill="#67E6E6"/>
<path d="M65.0577 38.6086C65.4056 38.6086 65.6374 38.3768 65.6374 38.0289C65.6374 37.6811 65.4056 37.4492 65.0577 37.4492C64.7099 37.4492 64.478 37.6811 64.478 38.0289C64.478 38.3768 64.7099 38.6086 65.0577 38.6086Z" fill="#67E6E6"/>
<path d="M73.4054 33.5071C73.7532 33.5071 73.9851 33.2752 73.9851 32.9274C73.9851 32.5795 73.7532 32.3477 73.4054 32.3477C73.0576 32.3477 72.8257 32.5795 72.8257 32.9274C72.8257 33.2752 73.0576 33.5071 73.4054 33.5071Z" fill="#67E6E6"/>
<path d="M56.7095 34.319C57.1733 34.319 57.5211 33.9712 57.5211 33.5074C57.5211 33.0436 57.1733 32.6958 56.7095 32.6958C56.2458 32.6958 55.8979 33.0436 55.8979 33.5074C55.8979 33.9712 56.3617 34.319 56.7095 34.319Z" fill="#67E6E6"/>
<path d="M44.7679 39.4201C45.1157 39.4201 45.4636 39.0723 45.4636 38.7245C45.4636 38.3766 45.1157 38.0288 44.7679 38.0288C44.4201 38.0288 44.0723 38.3766 44.0723 38.7245C44.0723 39.0723 44.4201 39.4201 44.7679 39.4201Z" fill="#67E6E6"/>
<path d="M47.7823 38.1448V36.9854C47.5504 36.4057 46.9707 35.9419 46.275 35.9419C45.3475 35.9419 44.6519 36.6375 44.6519 37.5651C44.6519 38.4926 45.3475 39.1883 46.275 39.1883C46.9707 39.1883 47.5504 38.7245 47.7823 38.1448Z" fill="#67E6E6"/>
<path d="M77.5792 38.9563C78.5068 38.9563 79.2024 38.2607 79.2024 37.3332C79.2024 36.4056 78.5068 35.71 77.5792 35.71C76.6517 35.71 75.9561 36.4056 75.9561 37.3332C75.9561 38.2607 76.7676 38.9563 77.5792 38.9563Z" fill="#67E6E6"/>
<path d="M62.8547 31.8843C62.275 31.8843 61.6953 32.2321 61.4634 32.6959V34.3191C61.8112 34.7828 62.275 35.1307 62.8547 35.1307C63.7822 35.1307 64.4779 34.435 64.4779 33.5075C64.4779 32.5799 63.7822 31.8843 62.8547 31.8843Z" fill="#67E6E6"/>
<path d="M60.8836 0C52.072 0 44.3039 4.75362 39.3184 12.1739C39.4343 12.2899 46.9705 17.0435 53.5792 8.57971C53.5792 8.57971 59.8401 17.2754 68.1879 8.57971C68.1879 8.57971 73.1734 17.3913 81.8691 11.1304C76.8836 4.28986 69.2314 0 60.8836 0Z" fill="#67E6E6"/>
<path d="M40.7099 18.2028C41.4056 18.2028 41.9853 17.6231 41.9853 16.9275C41.8694 16.2318 41.4056 15.7681 40.7099 15.7681C40.0143 15.7681 39.4346 16.2318 39.4346 16.9275C39.4346 17.6231 40.0143 18.2028 40.7099 18.2028Z" fill="#67E6E6"/>
<path d="M46.2752 22.9566C47.4346 22.9566 48.2462 22.0291 48.2462 20.8697C48.2462 19.7103 47.3187 18.7827 46.2752 18.7827C45.1158 18.7827 44.3042 19.7103 44.3042 20.8697C44.3042 22.0291 45.1158 22.9566 46.2752 22.9566Z" fill="#67E6E6"/>
<path d="M71.3187 15.6519C72.4781 15.6519 73.2897 14.7244 73.2897 13.565C73.2897 12.4056 72.3621 11.478 71.3187 11.478C70.1593 11.478 69.3477 12.4056 69.3477 13.565C69.3477 14.7244 70.2752 15.6519 71.3187 15.6519Z" fill="#67E6E6"/>
<path d="M81.1734 20.0581C81.7531 20.0581 82.2168 19.5943 82.2168 18.8987C82.2168 18.203 81.7531 17.7393 81.1734 17.7393C80.5937 17.7393 80.1299 18.203 80.1299 18.8987C80.1299 19.5943 80.5937 20.0581 81.1734 20.0581Z" fill="#67E6E6"/>
<path d="M75.6085 27.5944C76.0722 27.5944 76.4201 27.2466 76.4201 26.7828C76.4201 26.319 76.0722 25.9712 75.6085 25.9712C75.1447 25.9712 74.7969 26.319 74.7969 26.7828C74.7969 27.2466 75.1447 27.5944 75.6085 27.5944Z" fill="#67E6E6"/>
<path d="M39.5504 28.4059C40.0141 28.4059 40.362 28.0581 40.362 27.5943C40.362 27.1305 39.8982 26.7827 39.5504 26.7827C39.0866 26.7827 38.7388 27.1305 38.7388 27.5943C38.7388 28.0581 39.0866 28.4059 39.5504 28.4059Z" fill="#67E6E6"/>
<path d="M55.3188 26.435C57.8696 26.435 59.9565 24.348 59.9565 21.6814C59.9565 19.0147 57.8696 16.9277 55.3188 16.9277C52.7681 16.9277 50.6812 19.0147 50.6812 21.6814C50.6812 24.348 52.7681 26.435 55.3188 26.435Z" fill="white"/>
<path d="M55.3187 24.5799C56.826 24.5799 58.1013 23.3045 58.1013 21.7973C58.1013 20.1741 56.826 19.0146 55.3187 19.0146C53.8115 19.0146 52.5361 20.29 52.5361 21.7973C52.5361 23.3045 53.8115 24.5799 55.3187 24.5799Z" fill="#231815"/>
<path d="M64.7099 26.435C67.2607 26.435 69.3476 24.348 69.3476 21.6814C69.3476 19.0147 67.2607 16.9277 64.7099 16.9277C62.1592 16.9277 60.0723 19.0147 60.0723 21.6814C60.0723 24.348 62.1592 26.435 64.7099 26.435Z" fill="white"/>
<path d="M64.7103 24.5799C66.2176 24.5799 67.493 23.3045 67.493 21.7973C67.493 20.1741 66.2176 19.0146 64.7103 19.0146C63.2031 19.0146 61.9277 20.29 61.9277 21.7973C61.9277 23.3045 63.2031 24.5799 64.7103 24.5799Z" fill="#231815"/>
</g>
<defs>
<clipPath id="clip0_1049_1903">
<rect width="54.4928" height="80" fill="white" transform="translate(33.7534)"/>
</clipPath>
</defs>
</svg>
