<svg width="122" height="80" viewBox="0 0 122 80" fill="none" xmlns="http://www.w3.org/2000/svg">
<g clip-path="url(#clip0_1049_1930)">
<path d="M93.107 72.7468C83.7203 60.2668 77.747 38.9335 77.747 38.9335C77.747 38.9335 77.6403 38.7202 77.427 38.2935C80.947 34.3468 83.187 29.1202 83.187 23.3602C83.187 10.9868 73.1603 0.853516 60.787 0.853516C48.4137 0.853516 38.387 10.8802 38.387 23.3602C38.387 24.4268 38.4937 25.6002 38.6003 26.6668H33.267V36.5868H42.7603C43.2937 37.3335 43.827 37.9735 44.467 38.6135C44.3603 38.8268 44.2537 38.9335 44.2537 38.9335C44.2537 38.9335 38.387 60.2668 28.8937 72.7468C27.2937 74.8802 31.2403 77.0135 33.3737 75.0935C41.907 67.5202 46.4937 54.5068 50.0137 42.9868C50.4403 43.2002 50.9737 43.5202 51.507 43.7335L47.2403 74.5602C47.027 75.8402 47.987 77.0135 49.267 77.2268L50.227 77.3335C51.507 77.5468 52.6803 76.5868 52.8937 75.3068L56.947 45.4402C57.6937 45.5468 58.4403 45.6535 59.0803 45.7602V76.4802C59.0803 77.7602 60.147 78.8268 61.427 78.8268H62.387C63.667 78.8268 64.7337 77.7602 64.7337 76.4802V45.4402C65.0537 45.3335 65.4803 45.3335 65.8003 45.2268L70.387 76.8002C70.6003 78.0802 71.7737 78.9335 73.0537 78.8268L74.0137 78.7202C75.2937 78.5068 76.147 77.3335 76.0403 76.0535L71.2403 43.3068C71.5603 43.2002 71.7737 42.9868 72.0937 42.8802C75.6137 54.5068 80.2003 67.6268 88.7337 75.2002C90.867 77.0135 94.8137 74.8802 93.107 72.7468Z" fill="#EA0000"/>
<path d="M50.4402 71.0399C50.5469 71.0399 50.6536 71.0399 50.6536 71.1466C50.7602 71.2532 50.8669 71.3599 50.8669 71.4666C50.8669 71.5732 50.8669 71.6799 50.8669 71.7866C50.7602 71.8932 50.6536 71.9999 50.4402 71.9999C50.3336 71.9999 50.2269 71.9999 50.2269 71.8932C50.1202 71.7866 50.0136 71.6799 50.0136 71.5732C50.0136 71.4666 50.0136 71.3599 50.0136 71.2532C50.1202 71.0399 50.2269 71.0399 50.4402 71.0399ZM50.4402 70.3999C50.1202 70.3999 49.6936 70.6132 49.4802 70.9332C49.1602 71.4666 49.3736 72.1066 49.8002 72.4266C50.0136 72.5332 50.1202 72.5332 50.3336 72.5332C50.6536 72.5332 51.0802 72.3199 51.2936 71.9999C51.6136 71.4666 51.4002 70.8266 50.9736 70.5066C50.7602 70.3999 50.5469 70.3999 50.4402 70.3999Z" fill="#FF9A94"/>
<path d="M80.5205 54.0799C80.8405 54.0799 81.0538 54.2933 81.0538 54.6133C81.0538 54.9333 80.8405 55.1466 80.5205 55.1466C80.2005 55.1466 79.9872 54.9333 79.9872 54.6133C79.9872 54.2933 80.2005 54.0799 80.5205 54.0799ZM80.5205 53.4399C79.8805 53.4399 79.3472 53.9733 79.3472 54.6133C79.3472 55.2533 79.8805 55.7866 80.5205 55.7866C81.1605 55.7866 81.6938 55.2533 81.6938 54.6133C81.5872 53.9733 81.1605 53.4399 80.5205 53.4399Z" fill="#FF9A94"/>
<path d="M82.4404 57.9198C82.7604 57.9198 82.9738 58.1331 82.9738 58.4531C82.9738 58.7731 82.7604 58.9865 82.4404 58.9865C82.1204 58.9865 81.9071 58.7731 81.9071 58.4531C81.9071 58.1331 82.1204 57.9198 82.4404 57.9198ZM82.4404 57.2798C81.8004 57.2798 81.2671 57.8131 81.2671 58.4531C81.2671 59.0931 81.8004 59.6265 82.4404 59.6265C83.0804 59.6265 83.6138 59.0931 83.6138 58.4531C83.5071 57.7065 83.0804 57.2798 82.4404 57.2798Z" fill="#FF9A94"/>
<path d="M84.4673 62.2933C84.7873 62.2933 85.0006 62.5067 85.0006 62.8267C85.0006 63.1467 84.7873 63.36 84.4673 63.36C84.1473 63.36 83.9339 63.1467 83.9339 62.8267C83.9339 62.5067 84.1473 62.2933 84.4673 62.2933ZM84.4673 61.6533C83.8273 61.6533 83.2939 62.1867 83.2939 62.8267C83.2939 63.4667 83.8273 64 84.4673 64C85.1073 64 85.6406 63.4667 85.6406 62.8267C85.5339 62.08 85.0006 61.6533 84.4673 61.6533Z" fill="#FF9A94"/>
<path d="M86.8135 66.6664C87.1335 66.6664 87.3468 66.8797 87.3468 67.1997C87.3468 67.5197 87.1335 67.733 86.8135 67.733C86.4935 67.733 86.2801 67.5197 86.2801 67.1997C86.2801 66.8797 86.4935 66.6664 86.8135 66.6664ZM86.8135 66.0264C86.1735 66.0264 85.6401 66.5597 85.6401 67.1997C85.6401 67.8397 86.1735 68.373 86.8135 68.373C87.4535 68.373 87.9868 67.8397 87.9868 67.1997C87.8801 66.5597 87.4535 66.0264 86.8135 66.0264Z" fill="#FF9A94"/>
<path d="M89.6938 70.8265C90.0138 70.8265 90.2272 71.0399 90.2272 71.3599C90.2272 71.6799 90.0138 71.8932 89.6938 71.8932C89.3738 71.8932 89.1605 71.6799 89.1605 71.3599C89.1605 71.0399 89.3738 70.8265 89.6938 70.8265ZM89.6938 70.1865C89.0538 70.1865 88.5205 70.7199 88.5205 71.3599C88.5205 71.9999 89.0538 72.5332 89.6938 72.5332C90.3338 72.5332 90.8672 71.9999 90.8672 71.3599C90.7605 70.7199 90.3338 70.1865 89.6938 70.1865Z" fill="#FF9A94"/>
<path d="M41.4805 54.0799C41.8005 54.0799 42.0138 54.2933 42.0138 54.6133C42.0138 54.9333 41.8005 55.1466 41.4805 55.1466C41.1605 55.1466 40.9471 54.9333 40.9471 54.6133C41.0538 54.2933 41.2671 54.0799 41.4805 54.0799ZM41.4805 53.4399C40.8405 53.4399 40.3071 53.9733 40.3071 54.6133C40.3071 55.2533 40.8405 55.7866 41.4805 55.7866C42.1205 55.7866 42.6538 55.2533 42.6538 54.6133C42.6538 53.9733 42.1205 53.4399 41.4805 53.4399Z" fill="#FF9A94"/>
<path d="M39.5605 57.9198C39.8805 57.9198 40.0939 58.1331 40.0939 58.4531C40.0939 58.7731 39.8805 58.9865 39.5605 58.9865C39.2405 58.9865 39.0272 58.7731 39.0272 58.4531C39.1339 58.1331 39.3472 57.9198 39.5605 57.9198ZM39.5605 57.2798C38.9205 57.2798 38.3872 57.8131 38.3872 58.4531C38.3872 59.0931 38.9205 59.6265 39.5605 59.6265C40.2005 59.6265 40.7339 59.0931 40.7339 58.4531C40.7339 57.7065 40.2005 57.2798 39.5605 57.2798Z" fill="#FF9A94"/>
<path d="M37.5337 62.2933C37.8537 62.2933 38.067 62.5067 38.067 62.8267C38.067 63.1467 37.8537 63.36 37.5337 63.36C37.2137 63.36 37.0004 63.1467 37.0004 62.8267C37.107 62.5067 37.3204 62.2933 37.5337 62.2933ZM37.5337 61.6533C36.8937 61.6533 36.3604 62.1867 36.3604 62.8267C36.3604 63.4667 36.8937 64 37.5337 64C38.1737 64 38.707 63.4667 38.707 62.8267C38.707 62.08 38.1737 61.6533 37.5337 61.6533Z" fill="#FF9A94"/>
<path d="M35.187 66.6664C35.507 66.6664 35.7203 66.8797 35.7203 67.1997C35.7203 67.5197 35.507 67.733 35.187 67.733C34.867 67.733 34.6537 67.5197 34.6537 67.1997C34.7603 66.8797 34.9737 66.6664 35.187 66.6664ZM35.187 66.0264C34.547 66.0264 34.0137 66.5597 34.0137 67.1997C34.0137 67.8397 34.547 68.373 35.187 68.373C35.827 68.373 36.3603 67.8397 36.3603 67.1997C36.3603 66.5597 35.827 66.0264 35.187 66.0264Z" fill="#FF9A94"/>
<path d="M32.3071 70.8265C32.6271 70.8265 32.8405 71.0399 32.8405 71.3599C32.8405 71.6799 32.6271 71.8932 32.3071 71.8932C31.9871 71.8932 31.7738 71.6799 31.7738 71.3599C31.8805 71.0399 32.0938 70.8265 32.3071 70.8265ZM32.3071 70.1865C31.6671 70.1865 31.1338 70.7199 31.1338 71.3599C31.2405 71.9999 31.6671 72.5332 32.3071 72.5332C32.9471 72.5332 33.4805 71.9999 33.4805 71.3599C33.4805 70.7199 32.9471 70.1865 32.3071 70.1865Z" fill="#FF9A94"/>
<path d="M33.1604 36.4798C34.547 36.4798 35.6137 34.2398 35.6137 31.5732C35.6137 28.9065 34.547 26.6665 33.1604 26.6665C31.7737 26.6665 30.707 28.9065 30.707 31.5732C30.707 34.2398 31.7737 36.4798 33.1604 36.4798Z" fill="#F78181"/>
<path d="M69.9602 55.1464H70.0668C70.1735 55.1464 70.2801 55.253 70.3868 55.3597C70.4935 55.4664 70.4935 55.573 70.3868 55.6797C70.2801 55.893 70.1735 55.9997 69.9602 55.9997H69.8535C69.7468 55.9997 69.6401 55.893 69.5335 55.7863C69.4268 55.6797 69.4268 55.573 69.5335 55.4663C69.5335 55.253 69.7468 55.1464 69.9602 55.1464ZM69.9602 54.5063C69.5335 54.5063 69.1068 54.8263 68.8935 55.253C68.7868 55.7863 69.1068 56.4263 69.6401 56.533C69.7468 56.533 69.8535 56.533 69.9602 56.533C70.3868 56.533 70.8135 56.213 71.0268 55.7863C71.1335 55.253 70.8135 54.613 70.2802 54.5063C70.0668 54.5063 70.0668 54.5063 69.9602 54.5063Z" fill="#FF9A94"/>
<path d="M70.6003 59.4132H70.707C70.9203 59.5199 71.1336 59.7332 71.027 59.9465C70.9203 60.1599 70.8136 60.2665 70.6003 60.2665H70.4936C70.387 60.2665 70.2803 60.1599 70.1736 60.0532C70.067 59.9465 70.067 59.8399 70.1736 59.7332C70.1736 59.6265 70.387 59.5199 70.6003 59.4132ZM70.6003 58.8799C70.1736 58.8799 69.747 59.1999 69.5336 59.6266C69.427 60.1599 69.747 60.7999 70.2803 60.9065C70.387 60.9065 70.4936 60.9065 70.6003 60.9065C71.027 60.9065 71.4536 60.5866 71.667 60.1599C71.7736 59.6266 71.4536 58.9865 70.9203 58.8799C70.707 58.8799 70.6003 58.8799 70.6003 58.8799Z" fill="#FF9A94"/>
<path d="M71.1335 63.36H71.2402C71.3468 63.36 71.4535 63.4667 71.5602 63.5733C71.6668 63.68 71.6668 63.7867 71.5602 63.8933C71.4535 64.1067 71.3468 64.2133 71.1335 64.2133H71.0268C70.9202 64.2133 70.8135 64.1067 70.7068 64C70.6002 63.8933 70.6002 63.7867 70.7068 63.68C70.7068 63.5733 70.9202 63.36 71.1335 63.36ZM71.1335 62.8267C70.7068 62.8267 70.2802 63.1467 70.0668 63.5733C69.9602 64.1067 70.2802 64.7467 70.8135 64.8533C70.9202 64.8533 71.0268 64.8533 71.1335 64.8533C71.5602 64.8533 71.9868 64.5333 72.2002 64.1067C72.3068 63.5733 71.9868 62.9333 71.4535 62.8267C71.3468 62.8267 71.2402 62.8267 71.1335 62.8267Z" fill="#FF9A94"/>
<path d="M71.6672 67.413H71.7738C71.9872 67.5196 72.2005 67.733 72.0939 67.9463C71.9872 68.1596 71.8805 68.2663 71.6672 68.2663H71.5605C71.4539 68.2663 71.3472 68.1596 71.2405 68.053C71.1338 67.9463 71.1338 67.8396 71.2405 67.733C71.3472 67.6263 71.5605 67.413 71.6672 67.413ZM71.6672 66.7729C71.2405 66.7729 70.8138 67.093 70.6005 67.5196C70.4938 68.053 70.8138 68.693 71.3472 68.7996C71.4538 68.7996 71.5605 68.7996 71.6672 68.7996C72.0938 68.7996 72.5205 68.4796 72.7338 68.053C72.8405 67.5196 72.5205 66.8796 71.9872 66.7729C71.8805 66.8796 71.7738 66.7729 71.6672 66.7729Z" fill="#FF9A94"/>
<path d="M72.4138 71.9999H72.5204C72.6271 71.9999 72.7338 72.1065 72.8404 72.2132C72.9471 72.3199 72.9471 72.4265 72.8404 72.5332C72.7338 72.7465 72.6271 72.8532 72.4138 72.8532H72.3071C72.0938 72.7465 71.8804 72.5332 71.9871 72.3199C71.9871 72.1065 72.2004 71.9999 72.4138 71.9999ZM72.4138 71.3599C71.9871 71.3599 71.5604 71.6799 71.3471 72.1065C71.2404 72.6399 71.5604 73.2799 72.0938 73.3865C72.2004 73.3865 72.3071 73.3865 72.4138 73.3865C72.8404 73.3865 73.2671 73.0665 73.4804 72.6399C73.5871 72.1065 73.2671 71.4665 72.7338 71.3599C72.5204 71.3599 72.4138 71.3599 72.4138 71.3599Z" fill="#FF9A94"/>
<path d="M61.5339 54.1864C61.6406 54.1864 61.6406 54.1864 61.7473 54.1864C61.8539 54.1864 61.9606 54.2931 61.9606 54.3997C61.9606 54.5064 61.9606 54.6131 61.9606 54.7197C61.8539 54.9331 61.7473 55.0397 61.5339 55.0397C61.4273 55.0397 61.4273 55.0397 61.3206 55.0397C61.2139 55.0397 61.1073 54.9331 61.1073 54.8264C61.1073 54.7197 61.1073 54.6131 61.1073 54.5064C61.2139 54.2931 61.4273 54.1864 61.5339 54.1864ZM61.5339 53.5464C61.1073 53.5464 60.6806 53.7597 60.5739 54.1864C60.3606 54.7197 60.5739 55.3597 61.1073 55.5731C61.2139 55.6797 61.4273 55.6797 61.5339 55.6797C61.9606 55.6797 62.3873 55.4664 62.4939 55.0397C62.7073 54.5064 62.4939 53.8664 61.9606 53.6531C61.8539 53.5464 61.7473 53.5464 61.5339 53.5464Z" fill="#FF9A94"/>
<path d="M61.5337 58.5599C61.6404 58.5599 61.6404 58.5599 61.747 58.5599C61.8537 58.5599 61.9604 58.6666 61.9604 58.7733C61.9604 58.8799 61.9604 58.9866 61.9604 59.0933C61.8537 59.3066 61.747 59.4133 61.5337 59.4133C61.427 59.4133 61.427 59.4133 61.3204 59.4133C61.107 59.3066 61.0004 59.0933 61.107 58.7733C61.2137 58.6666 61.427 58.5599 61.5337 58.5599ZM61.6404 57.9199C61.2137 57.9199 60.787 58.1333 60.6804 58.5599C60.467 59.0933 60.6804 59.7333 61.2137 59.9466C61.3204 60.0533 61.5337 60.0533 61.6404 60.0533C62.067 60.0533 62.4937 59.8399 62.6004 59.4133C62.8137 58.8799 62.6004 58.2399 62.067 58.0266C61.8537 58.0266 61.747 57.9199 61.6404 57.9199Z" fill="#FF9A94"/>
<path d="M61.5337 62.5065C61.6404 62.5065 61.6404 62.5065 61.747 62.5065C61.8537 62.5065 61.9604 62.6131 61.9604 62.7198C61.9604 62.8265 61.9604 62.9331 61.9604 63.0398C61.8537 63.2531 61.747 63.3598 61.5337 63.3598C61.427 63.3598 61.427 63.3598 61.3204 63.3598C61.107 63.2531 61.0004 63.0398 61.107 62.7198C61.2137 62.6131 61.427 62.5065 61.5337 62.5065ZM61.6404 61.9731C61.2137 61.9731 60.787 62.1865 60.6804 62.6131C60.467 63.1465 60.6804 63.7865 61.2137 63.9998C61.3204 64.1065 61.5337 64.1065 61.6404 64.1065C62.067 64.1065 62.4937 63.8931 62.6004 63.4665C62.8137 62.9331 62.6004 62.2931 62.067 62.0798C61.8537 61.9731 61.747 61.9731 61.6404 61.9731Z" fill="#FF9A94"/>
<path d="M61.5337 66.6664C61.6404 66.6664 61.6404 66.6664 61.747 66.6664C61.8537 66.6664 61.9604 66.773 61.9604 66.8797C61.9604 66.9864 61.9604 67.093 61.9604 67.1997C61.8537 67.413 61.747 67.5197 61.5337 67.5197C61.427 67.5197 61.427 67.5197 61.3204 67.5197C61.107 67.413 61.0004 67.1997 61.107 66.8797C61.2137 66.773 61.427 66.6664 61.5337 66.6664ZM61.6404 66.0264C61.2137 66.0264 60.787 66.2397 60.6804 66.6664C60.467 67.1997 60.6804 67.8397 61.2137 68.053C61.3204 68.1597 61.5337 68.1597 61.6404 68.1597C62.067 68.1597 62.4937 67.9464 62.6004 67.5197C62.8137 66.9864 62.6004 66.3464 62.067 66.133C61.8537 66.0264 61.747 66.0264 61.6404 66.0264Z" fill="#FF9A94"/>
<path d="M61.5337 71.1466C61.6404 71.1466 61.6404 71.1466 61.747 71.1466C61.8537 71.1466 61.9604 71.2533 61.9604 71.36C61.9604 71.4666 61.9604 71.5733 61.9604 71.6799C61.8537 71.8933 61.747 72 61.5337 72C61.427 72 61.427 72 61.3204 72C61.107 71.8933 61.0004 71.68 61.107 71.36C61.2137 71.2533 61.427 71.1466 61.5337 71.1466ZM61.6404 70.6133C61.2137 70.6133 60.787 70.8266 60.6804 71.2533C60.467 71.7866 60.6804 72.4266 61.2137 72.6399C61.3204 72.7466 61.5337 72.7466 61.6404 72.7466C62.067 72.7466 62.4937 72.5333 62.6004 72.1066C62.8137 71.5733 62.6004 70.9333 62.067 70.72C61.8537 70.6133 61.747 70.6133 61.6404 70.6133Z" fill="#FF9A94"/>
<path d="M52.6805 54.1864C52.7871 54.1864 52.7871 54.1864 52.8938 54.2931C53.1071 54.3997 53.2138 54.7197 53.0005 54.9331C52.8938 55.0397 52.7871 55.1464 52.5738 55.1464C52.4671 55.1464 52.4671 55.1464 52.3605 55.0397C52.2538 54.9331 52.1471 54.8264 52.1471 54.7197C52.1471 54.6131 52.1471 54.5064 52.1471 54.3997C52.3605 54.1864 52.5738 54.1864 52.6805 54.1864ZM52.6805 53.5464C52.3605 53.5464 51.9338 53.7597 51.7205 54.0797C51.4005 54.6131 51.6138 55.2531 52.0405 55.5731C52.2538 55.6797 52.3605 55.6797 52.5738 55.6797C52.8938 55.6797 53.3205 55.4664 53.5338 55.1464C53.8538 54.6131 53.6405 53.9731 53.2138 53.6531C53.1071 53.5464 52.8938 53.5464 52.6805 53.5464Z" fill="#FF9A94"/>
<path d="M52.1468 58.4533C52.2535 58.4533 52.3601 58.4533 52.3601 58.5599C52.4668 58.6666 52.5735 58.6666 52.5735 58.8799C52.5735 58.9866 52.5735 59.0933 52.5735 59.1999C52.4668 59.3066 52.3601 59.4133 52.1468 59.4133C52.0401 59.4133 52.0401 59.4133 51.9335 59.3066C51.7201 59.1999 51.6135 58.8799 51.8268 58.6666C51.8268 58.5599 51.9335 58.4533 52.1468 58.4533ZM52.1468 57.9199C51.8268 57.9199 51.4001 58.1333 51.1868 58.4533C50.8668 58.9866 51.0801 59.6266 51.5068 59.9466C51.7201 60.0533 51.8268 60.0533 52.0401 60.0533C52.3601 60.0533 52.7868 59.8399 53.0001 59.5199C53.3201 58.9866 53.1068 58.3466 52.6801 58.0266C52.4668 57.9199 52.3601 57.9199 52.1468 57.9199Z" fill="#FF9A94"/>
<path d="M51.6136 62.3998C51.7203 62.3998 51.8269 62.3998 51.8269 62.5064C51.9336 62.6131 52.0403 62.7198 52.0403 62.8264C52.0403 62.9331 52.0403 63.0398 52.0403 63.1464C51.9336 63.2531 51.8269 63.3598 51.6136 63.3598C51.5069 63.3598 51.5069 63.3598 51.4003 63.2531C51.1869 63.1464 51.0803 62.8264 51.2936 62.6131C51.2936 62.5064 51.4003 62.3998 51.6136 62.3998ZM51.6136 61.7598C51.2936 61.7598 50.8669 61.9731 50.6536 62.2931C50.3336 62.8264 50.5469 63.4664 50.9736 63.7864C51.1869 63.8931 51.2936 63.8931 51.5069 63.8931C51.8269 63.8931 52.2536 63.6798 52.4669 63.3598C52.7869 62.8264 52.5736 62.1864 52.1469 61.8664C51.9336 61.8664 51.7203 61.7598 51.6136 61.7598Z" fill="#FF9A94"/>
<path d="M50.9737 66.453C51.0804 66.453 51.187 66.453 51.187 66.5597C51.2937 66.6663 51.4004 66.773 51.4004 66.8797C51.4004 66.9863 51.4004 67.093 51.4004 67.1997C51.2937 67.3063 51.1871 67.413 50.9737 67.413C50.8671 67.413 50.7604 67.413 50.7604 67.3063C50.547 67.1997 50.4404 66.8797 50.6537 66.6663C50.7604 66.5597 50.8671 66.453 50.9737 66.453ZM51.0804 65.813C50.7604 65.813 50.3337 66.0263 50.1204 66.3463C49.8004 66.8797 50.0137 67.5197 50.4404 67.8397C50.6537 67.9463 50.7604 67.9463 50.9737 67.9463C51.2937 67.9463 51.7204 67.733 51.9337 67.413C52.2537 66.8797 52.0404 66.2397 51.6137 65.9197C51.4004 65.9197 51.1871 65.813 51.0804 65.813Z" fill="#FF9A94"/>
<path d="M47.1334 24.3201C48.7334 24.3201 50.0134 23.0401 50.0134 21.4401C50.0134 19.8401 48.7334 18.5601 47.1334 18.5601C45.5334 18.5601 44.2534 19.8401 44.2534 21.4401C44.2534 23.0401 45.5334 24.3201 47.1334 24.3201Z" fill="white"/>
<path d="M47.1334 23.2532C48.0934 23.2532 48.8401 22.5065 48.8401 21.5465C48.8401 20.5865 48.0934 19.8398 47.1334 19.8398C46.1734 19.8398 45.4268 20.5865 45.4268 21.5465C45.4268 22.3998 46.1734 23.2532 47.1334 23.2532Z" fill="black"/>
<path d="M52.8932 24.3201C54.4932 24.3201 55.7732 23.0401 55.7732 21.4401C55.7732 19.8401 54.4932 18.5601 52.8932 18.5601C51.2932 18.5601 50.0132 19.8401 50.0132 21.4401C50.0132 23.0401 51.2932 24.3201 52.8932 24.3201Z" fill="white"/>
<path d="M52.8932 23.2532C53.8532 23.2532 54.5999 22.5065 54.5999 21.5465C54.5999 20.5865 53.8532 19.8398 52.8932 19.8398C51.9332 19.8398 51.1865 20.5865 51.1865 21.5465C51.1865 22.3998 51.9332 23.2532 52.8932 23.2532Z" fill="black"/>
</g>
<defs>
<clipPath id="clip0_1049_1930">
<rect width="65.0667" height="80" fill="white" transform="translate(28.4668)"/>
</clipPath>
</defs>
</svg>
