<svg width="122" height="80" viewBox="0 0 122 80" fill="none" xmlns="http://www.w3.org/2000/svg">
<g clip-path="url(#clip0_1049_2114)">
<path d="M84.9282 38.7025L97.3246 33.5133C98.5498 33.0088 99.9913 33.6575 100.063 34.7386L101 52.0359C101.072 53.1169 99.7751 53.9097 98.5498 53.6214L85.8652 50.6665C85.1444 50.5224 84.5679 49.9458 84.5679 49.2971L83.9192 40.144C83.8471 39.5674 84.2075 38.9908 84.9282 38.7025Z" fill="#055403"/>
<path d="M95.6667 36.3965H89.5405C88.8198 30.1983 86.3694 24.5046 82.6216 19.892L86.946 15.5677C87.3784 15.1352 87.3784 14.4145 86.946 14.0541L83.1261 10.3064C82.6937 9.87396 81.973 9.87396 81.5405 10.3064L77.2162 14.6307C72.5315 10.955 66.8378 8.50459 60.5676 7.78387V1.65774C60.5676 1.08116 60.0631 0.57666 59.4865 0.57666H54.0811C53.5045 0.57666 53 1.08116 53 1.65774V7.78387C46.7297 8.50459 41.036 10.955 36.3514 14.6307L32.027 10.3064C31.5946 9.87396 30.8739 9.87396 30.4414 10.3064L26.6216 14.0541C26.1892 14.4866 26.1892 15.2073 26.6216 15.5677L30.9459 19.892C27.1982 24.5767 24.7478 30.1983 24.027 36.3965H17.9009C17.3243 36.3965 16.8198 36.901 16.8198 37.4776V42.8109C16.8198 43.3875 17.3243 43.892 17.9009 43.892H24.027C24.7478 50.0902 27.1982 55.7839 30.9459 60.4685L26.6216 64.7208C26.1892 65.1532 26.1892 65.874 26.6216 66.2343L30.4414 69.9821C30.8739 70.4145 31.5946 70.4145 32.027 69.9821L36.3514 65.7298C41.036 69.4055 46.8018 71.928 53.0721 72.5767V78.6307C53.0721 79.2073 53.5766 79.7118 54.1532 79.7118H59.5586C60.1351 79.7118 60.6396 79.2073 60.6396 78.6307V72.5767C66.9099 71.8559 72.6757 69.4055 77.3604 65.7298L81.6847 69.9821C82.1171 70.4145 82.8378 70.4145 83.2703 69.9821L87.0901 66.2343C87.5225 65.8019 87.5225 65.0812 87.0901 64.7208L82.6216 60.5406C86.3694 55.8559 88.8198 50.1622 89.5405 43.964H95.6667C96.2432 43.964 96.7478 43.4595 96.7478 42.883V37.5496C96.7478 36.901 96.2432 36.3965 95.6667 36.3965Z" fill="#29A04A"/>
<path d="M82.6936 60.5402C85.2161 57.369 87.09 53.7654 88.3152 49.8735H25.3242C26.5494 53.7654 28.4954 57.4411 30.9458 60.5402L26.6215 64.7925C26.1891 65.2249 26.1891 65.9456 26.6215 66.306L30.4413 70.0537C30.8738 70.4861 31.5945 70.4861 32.0269 70.0537L36.3512 65.8015C41.0359 69.4771 46.8017 71.9997 53.072 72.6483V78.7024C53.072 79.2789 53.5765 79.7834 54.153 79.7834H59.5585C60.135 79.7834 60.6395 79.2789 60.6395 78.7024V72.6483C66.9098 71.9276 72.6756 69.4771 77.3603 65.8015L81.6846 70.0537C82.117 70.4861 82.8377 70.4861 83.2702 70.0537L87.09 66.306C87.5224 65.8735 87.5224 65.1528 87.09 64.7925L82.6936 60.5402Z" fill="#E2E1D4"/>
<path d="M32.3151 42.09C34.9097 42.09 36.9277 39.9999 36.9277 37.4774C36.9277 34.9548 34.8376 32.8647 32.3151 32.8647C29.7205 32.8647 27.7025 34.9548 27.7025 37.4774C27.6304 39.9999 29.7205 42.09 32.3151 42.09Z" fill="white"/>
<path d="M32.3152 40.2162C33.8287 40.2162 35.126 38.991 35.126 37.4775C35.126 35.964 33.9008 34.7388 32.3152 34.7388C30.8017 34.7388 29.5044 35.964 29.5044 37.4775C29.5044 38.991 30.8017 40.2162 32.3152 40.2162Z" fill="#231815"/>
<path d="M41.6125 42.09C44.2071 42.09 46.2251 39.9999 46.2251 37.4774C46.2251 34.9548 44.135 32.8647 41.6125 32.8647C39.0179 32.8647 36.9999 34.9548 36.9999 37.4774C36.9278 39.9999 39.0179 42.09 41.6125 42.09Z" fill="white"/>
<path d="M41.6126 40.2162C43.1261 40.2162 44.4234 38.991 44.4234 37.4775C44.4234 35.964 43.1982 34.7388 41.6126 34.7388C40.0991 34.7388 38.8018 35.964 38.8018 37.4775C38.8018 38.991 40.0991 40.2162 41.6126 40.2162Z" fill="#231815"/>
<path d="M37.1442 41.0811C34.4054 41.0811 32.0991 43.3153 32.0991 46.054C32.0991 48.7928 34.3334 51.027 37.1442 51.027C39.8829 51.027 42.1892 48.7928 42.1892 46.054C42.1171 43.3153 39.8829 41.0811 37.1442 41.0811ZM37.1442 46.8468C36.7117 46.8468 36.3514 46.4865 36.3514 46.054C36.3514 45.6216 36.7117 45.2612 37.1442 45.2612C37.5766 45.2612 37.937 45.6216 37.937 46.054C37.937 46.4865 37.5766 46.8468 37.1442 46.8468Z" fill="#055403"/>
<path d="M63.0181 40L69.1442 40.5766C69.7208 40.6486 70.1532 41.1532 70.0091 41.7297L67.919 53.7658C67.8469 54.3423 67.2704 54.7027 66.6938 54.5586L60.5676 53.045L57.7568 45.5496L63.0181 40Z" fill="#055403"/>
</g>
<defs>
<clipPath id="clip0_1049_2114">
<rect width="89.3694" height="80" fill="white" transform="translate(16.3154)"/>
</clipPath>
</defs>
</svg>
