<?xml version="1.0" encoding="utf-8"?>
<!-- Generator: Adobe Illustrator 27.0.1, SVG Export Plug-In . SVG Version: 6.00 Build 0)  -->
<svg version="1.1" id="レイヤー_1" xmlns="http://www.w3.org/2000/svg" xmlns:xlink="http://www.w3.org/1999/xlink" x="0px"
	 y="0px" viewBox="0 0 124 111" style="enable-background:new 0 0 124 111;" xml:space="preserve">
<style type="text/css">
	.st0{fill:#055403;}
	.st1{fill:#29A04A;}
	.st2{fill:#E2E1D4;}
	.st3{fill:#FFFFFF;}
	.st4{fill:#231815;}
</style>
<path id="尻尾_xFF08_濃_xFF09_" class="st0" d="M95.2,53.7l17.2-7.2c1.7-0.7,3.7,0.2,3.8,1.7l1.3,24c0.1,1.5-1.7,2.6-3.4,2.2
	l-17.6-4.1c-1-0.2-1.8-1-1.8-1.9l-0.9-12.7C93.7,54.9,94.2,54.1,95.2,53.7z"/>
<path id="本体_xFF08_薄_xFF09_" class="st1" d="M110.1,50.5h-8.5c-1-8.6-4.4-16.5-9.6-22.9l6-6c0.6-0.6,0.6-1.6,0-2.1l-5.3-5.2
	c-0.6-0.6-1.6-0.6-2.2,0l-6,6c-6.5-5.1-14.4-8.5-23.1-9.5V2.3c0-0.8-0.7-1.5-1.5-1.5h-7.5c-0.8,0-1.5,0.7-1.5,1.5v8.5
	c-8.7,1-16.6,4.4-23.1,9.5l-6-6c-0.6-0.6-1.6-0.6-2.2,0l-5.3,5.2c-0.6,0.6-0.6,1.6,0,2.1l6,6c-5.2,6.5-8.6,14.3-9.6,22.9H2.2
	c-0.8,0-1.5,0.7-1.5,1.5v7.4c0,0.8,0.7,1.5,1.5,1.5h8.5c1,8.6,4.4,16.5,9.6,23l-6,5.9c-0.6,0.6-0.6,1.6,0,2.1l5.3,5.2
	c0.6,0.6,1.6,0.6,2.2,0l6-5.9c6.5,5.1,14.5,8.6,23.2,9.5v8.4c0,0.8,0.7,1.5,1.5,1.5h7.5c0.8,0,1.5-0.7,1.5-1.5v-8.4
	c8.7-1,16.7-4.4,23.2-9.5l6,5.9c0.6,0.6,1.6,0.6,2.2,0l5.3-5.2c0.6-0.6,0.6-1.6,0-2.1L92,84c5.2-6.5,8.6-14.4,9.6-23h8.5
	c0.8,0,1.5-0.7,1.5-1.5v-7.4C111.6,51.2,110.9,50.5,110.1,50.5L110.1,50.5z"/>
<g id="色変わらん">
	<path class="st2" d="M92.1,84c3.5-4.4,6.1-9.4,7.8-14.8H12.5c1.7,5.4,4.4,10.5,7.8,14.8l-6,5.9c-0.6,0.6-0.6,1.6,0,2.1l5.3,5.2
		c0.6,0.6,1.6,0.6,2.2,0l6-5.9c6.5,5.1,14.5,8.6,23.2,9.5v8.4c0,0.8,0.7,1.5,1.5,1.5h7.5c0.8,0,1.5-0.7,1.5-1.5v-8.4
		c8.7-1,16.7-4.4,23.2-9.5l6,5.9c0.6,0.6,1.6,0.6,2.2,0l5.3-5.2c0.6-0.6,0.6-1.6,0-2.1L92.1,84L92.1,84z"/>
	<path class="st3" d="M22.2,58.4c3.6,0,6.4-2.9,6.4-6.4c0-3.5-2.9-6.4-6.4-6.4c-3.6,0-6.4,2.9-6.4,6.4
		C15.7,55.5,18.6,58.4,22.2,58.4z"/>
	<path class="st4" d="M22.2,55.8c2.1,0,3.9-1.7,3.9-3.8s-1.7-3.8-3.9-3.8c-2.1,0-3.9,1.7-3.9,3.8S20.1,55.8,22.2,55.8z"/>
	<path class="st3" d="M35.1,58.4c3.6,0,6.4-2.9,6.4-6.4c0-3.5-2.9-6.4-6.4-6.4c-3.6,0-6.4,2.9-6.4,6.4
		C28.6,55.5,31.5,58.4,35.1,58.4z"/>
	<path class="st4" d="M35.1,55.8c2.1,0,3.9-1.7,3.9-3.8s-1.7-3.8-3.9-3.8c-2.1,0-3.9,1.7-3.9,3.8S33,55.8,35.1,55.8z"/>
</g>
<g id="パーツ_xFF08_濃_xFF09_">
	<path class="st0" d="M28.9,57c-3.8,0-7,3.1-7,6.9c0,3.8,3.1,6.9,7,6.9c3.8,0,7-3.1,7-6.9C35.8,60.1,32.7,57,28.9,57z M28.9,65
		c-0.6,0-1.1-0.5-1.1-1.1c0-0.6,0.5-1.1,1.1-1.1c0.6,0,1.1,0.5,1.1,1.1C30,64.5,29.5,65,28.9,65z"/>
	<path class="st0" d="M64.8,55.5l8.5,0.8c0.8,0.1,1.4,0.8,1.2,1.6l-2.9,16.7c-0.1,0.8-0.9,1.3-1.7,1.1l-8.5-2.1l-3.9-10.4L64.8,55.5
		L64.8,55.5z"/>
</g>
</svg>
