<svg width="122" height="80" viewBox="0 0 122 80" fill="none" xmlns="http://www.w3.org/2000/svg">
<g clip-path="url(#clip0_1049_1980)">
<path d="M103.626 42.6459C106.713 36.0314 113.916 28.0941 119.942 25.4483C120.383 25.1543 120.971 25.8892 120.677 26.4772C118.913 31.4748 111.711 53.376 119.942 70.1326C120.236 70.7206 119.501 71.4555 118.913 71.0145C115.386 68.9567 108.624 64.2531 104.508 57.6386C101.569 53.082 101.275 47.4965 103.626 42.6459Z" fill="#FEBC00"/>
<path d="M86.7229 39.8527L49.9759 19.8624C48.3591 18.9804 48.2121 16.9226 49.682 15.8937L61.441 8.10332C62.3229 7.51537 63.4988 7.51537 64.3808 8.25031L91.5735 38.0889C92.6024 38.8238 92.8964 40.1467 92.3085 41.0286L90.1037 38.9708C89.3687 39.9997 87.8988 40.4407 86.7229 39.8527Z" fill="#DAAB27"/>
<path d="M89.2217 65.5755L68.4964 66.7515C68.3494 66.7515 68.2024 66.7514 68.0554 66.6045L61.147 59.843C60.853 59.549 61 58.9611 61.588 58.9611L85.988 57.4912C86.2819 57.4912 86.4289 57.6382 86.5759 57.7852L89.8096 64.6936C89.9566 65.1346 89.6627 65.5755 89.2217 65.5755Z" fill="#DAAB27"/>
<path d="M119.795 30.0051H113.328L115.679 28.0942H119.942L119.795 30.0051Z" fill="#CD9802"/>
<path d="M118.178 35.4436H108.183L109.8 33.5327H118.325L118.178 35.4436Z" fill="#CD9802"/>
<path d="M67.0264 11.4845L53.0625 20.8918L54.2384 17.805L65.9974 10.0146L67.0264 11.4845Z" fill="#CD9802"/>
<path d="M70.7012 15.3063L56.7373 24.5666L57.9132 21.4798L69.6722 13.6895L70.7012 15.3063Z" fill="#CD9802"/>
<path d="M74.082 19.1281L60.1182 28.3883L61.2941 25.3016L73.0531 17.5112L74.082 19.1281Z" fill="#CD9802"/>
<path d="M87.4579 65.7233L80.2554 49.9956L79.5205 53.2293L85.1061 66.0173L87.4579 65.7233Z" fill="#CD9802"/>
<path d="M82.3133 65.8703L74.9639 49.9956L74.229 53.2293L79.8145 66.0173L82.3133 65.8703Z" fill="#CD9802"/>
<path d="M77.0213 66.0173L69.9659 49.9956L69.231 53.2293L74.9635 66.4583L77.0213 66.0173Z" fill="#CD9802"/>
<path d="M71.8768 66.6052L64.6744 49.9956L63.9395 53.2293L69.819 66.6052H71.8768Z" fill="#CD9802"/>
<path d="M77.1684 22.9494L63.2046 32.3566L64.3805 29.2699L76.1395 21.4795L77.1684 22.9494Z" fill="#CD9802"/>
<path d="M80.4023 26.6242L66.4385 36.0314L67.6144 32.9447L79.3734 25.1543L80.4023 26.6242Z" fill="#CD9802"/>
<path d="M83.9302 30.0051L69.9663 39.2653L71.1422 36.1785L82.9013 28.3882L83.9302 30.0051Z" fill="#CD9802"/>
<path d="M116.561 40.882H104.508L105.39 38.9712H117.443L116.561 40.882Z" fill="#CD9802"/>
<path d="M116.562 44.5566H102.598V46.4675H116.562V44.5566Z" fill="#CD9802"/>
<path d="M116.267 51.9065H103.333L104.214 49.9956H116.267V51.9065Z" fill="#CD9802"/>
<path d="M116.267 57.3449H104.214L103.333 55.4341H116.414V57.3449H116.267Z" fill="#CD9802"/>
<path d="M117.443 62.7834H108.183L106.86 60.8726H116.561L117.443 62.7834Z" fill="#CD9802"/>
<path d="M119.06 68.2219H114.651L112.005 66.311H118.178L119.06 68.2219Z" fill="#CD9802"/>
<path d="M100.687 54.111C98.0408 55.1399 42.0384 74.8363 13.8167 68.3688C-9.55437 63.0772 -1.02907 19.1278 22.93 13.5423C55.4143 5.89893 105.537 47.4965 103.92 47.2025C103.92 47.2025 106.86 51.9062 100.687 54.111Z" fill="#FEBC00"/>
<path d="M57.1785 51.0241C44.2436 55.4338 12.3472 60.5783 8.96649 60.5783C5.73276 60.5783 2.64601 59.4024 2.49902 59.4024C4.70384 63.8121 8.37854 67.1928 13.8171 68.3687C42.0388 74.8362 98.0412 55.1398 100.687 54.1109C101.422 53.8169 102.157 53.5229 102.598 53.0819C102.598 53.2289 70.2605 46.4675 57.1785 51.0241Z" fill="#E2E1D4"/>
<path d="M19.4025 53.3758C22.9302 53.3758 25.87 50.5831 25.87 47.0553C25.87 43.5276 22.9302 40.7349 19.4025 40.7349C15.8748 40.7349 12.9351 43.5276 12.9351 47.0553C12.9351 50.5831 15.7278 53.3758 19.4025 53.3758Z" fill="white"/>
<path d="M19.4025 50.8773C21.6073 50.8773 23.2242 49.1134 23.2242 47.0556C23.2242 44.9977 21.4603 43.2339 19.4025 43.2339C17.3447 43.2339 15.5808 44.9977 15.5808 47.0556C15.4338 49.1134 17.1977 50.8773 19.4025 50.8773Z" fill="#231815"/>
<path d="M38.0699 51.4648H55.2675C55.5614 51.4648 55.7084 51.7588 55.5614 51.9058L49.094 64.1058C48.947 64.2528 48.653 64.3998 48.506 64.1058L37.6289 51.9058C37.6289 51.9058 37.7759 51.4648 38.0699 51.4648Z" fill="#DAAB27"/>
</g>
<defs>
<clipPath id="clip0_1049_1980">
<rect width="122" height="64.6747" fill="white" transform="translate(0 7.6626)"/>
</clipPath>
</defs>
</svg>
