<svg width="122" height="80" viewBox="0 0 122 80" fill="none" xmlns="http://www.w3.org/2000/svg">
<g clip-path="url(#clip0_1049_1965)">
<path d="M66.1019 12.1618L65.6582 27.0236C65.6582 27.5781 65.3255 27.9108 64.9928 27.9108L48.3564 26.9127C48.2455 26.9127 54.5673 11.1636 65.4364 11.1636C65.7691 11.1636 66.1019 11.6072 66.1019 12.1618Z" fill="#A02A37"/>
<path d="M112.129 41.9963C112.129 34.8981 116.344 28.909 122 27.3563C122.111 27.3563 122.111 27.2454 122 27.2454C120.114 26.1363 117.896 25.4708 115.678 25.4708C108.691 25.4708 103.034 31.349 101.814 39.1126C101.814 39.2236 101.703 39.2236 101.703 39.1126C96.0471 34.7872 76.1944 26.3581 52.349 24.8054C24.0671 22.9199 0.998047 37.2272 0.998047 41.9963C0.998047 46.7654 24.0671 63.7345 52.238 61.2945C75.418 59.2981 95.4926 49.9817 101.593 44.9908H101.703C102.923 52.6436 108.691 58.5217 115.567 58.5217C117.896 58.5217 120.004 57.8563 121.889 56.7472C122 56.7472 121.889 56.6363 121.889 56.6363C116.344 55.0836 112.129 49.0945 112.129 41.9963Z" fill="#E03C4E"/>
<path d="M25.2869 46.9873C27.2832 46.9873 28.836 45.4346 28.836 43.4383C28.836 41.4419 27.2832 39.8892 25.2869 39.8892C23.2905 39.8892 21.7378 41.4419 21.7378 43.4383C21.7378 45.4346 23.4014 46.9873 25.2869 46.9873Z" fill="white"/>
<path d="M25.287 45.5456C26.3961 45.5456 27.3942 44.6583 27.3942 43.4383C27.3942 42.3292 26.507 41.3311 25.287 41.3311C24.1779 41.3311 23.1797 42.2183 23.1797 43.4383C23.1797 44.6583 24.1779 45.5456 25.287 45.5456Z" fill="#231815"/>
<path d="M100.816 45.6563C98.9307 45.989 42.9216 55.749 18.8543 49.5381C4.54707 45.989 1.66343 43.3272 1.2198 42.4399H1.10889C2.32889 47.5418 24.9543 64.1781 52.238 61.2945C73.4216 59.0763 89.8362 52.7545 97.5998 47.7636L100.816 45.6563Z" fill="#E2E1D4"/>
<path d="M12.4215 48.2076L14.0852 51.7567H14.1961L16.6361 49.2058V49.0948L12.4215 47.7639C12.3106 47.7639 12.1997 47.653 12.4215 48.2076Z" fill="#B1B1B1"/>
<path d="M18.4106 49.5381L20.407 53.7526C20.407 53.7526 20.407 53.7526 20.5179 53.7526L23.4016 50.4254L18.9652 49.5381H18.4106Z" fill="#B1B1B1"/>
<path d="M55.5656 67.5053L55.122 51.2017C55.122 50.6472 55.0111 50.7581 54.6784 50.7581L38.042 51.2017C38.042 51.2017 44.0311 67.949 54.9002 68.5035C55.2329 68.6144 55.5656 68.0599 55.5656 67.5053Z" fill="#E03C4E"/>
<path d="M34.3818 36.229C36.0455 39.4454 35.7127 45.6563 34.3818 48.6508" stroke="#9E0C0C" stroke-width="0.75" stroke-miterlimit="10" stroke-linecap="round"/>
<path d="M36.2671 36.229C37.9307 39.4454 37.598 45.6563 36.2671 48.6508" stroke="#9E0C0C" stroke-width="0.75" stroke-miterlimit="10" stroke-linecap="round"/>
<path d="M38.7075 36.229C40.3712 39.4454 40.0384 45.6563 38.7075 48.6508" stroke="#9E0C0C" stroke-width="0.75" stroke-miterlimit="10" stroke-linecap="round"/>
</g>
<defs>
<clipPath id="clip0_1049_1965">
<rect width="122" height="57.6727" fill="white" transform="translate(0 11.1636)"/>
</clipPath>
</defs>
</svg>
