<?xml version="1.0" encoding="utf-8"?>
<!-- Generator: Adobe Illustrator 27.0.1, SVG Export Plug-In . SVG Version: 6.00 Build 0)  -->
<svg version="1.1" id="レイヤー_1" xmlns="http://www.w3.org/2000/svg" xmlns:xlink="http://www.w3.org/1999/xlink" x="0px"
	 y="0px" viewBox="0 0 110 52" style="enable-background:new 0 0 110 52;" xml:space="preserve">
<style type="text/css">
	.st0{fill:#A02A37;}
	.st1{fill:#E03C4E;}
	.st2{fill:#FFFFFF;}
	.st3{fill:#231815;}
	.st4{fill:#E2E1D4;}
	.st5{fill:#B1B1B1;}
	.st6{fill:none;stroke:#9E0C0C;stroke-width:0.75;stroke-linecap:round;stroke-miterlimit:10;}
</style>
<path id="ひれ_xFF08_濃_xFF09_" class="st0" d="M59.6,0.9l-0.4,13.4c0,0.5-0.3,0.8-0.6,0.8l-15-0.9C43.5,14.2,49.2,0,59,0
	C59.3,0,59.6,0.4,59.6,0.9z"/>
<path id="本体_xFF08_薄_xFF09_" class="st1" d="M101.1,27.8c0-6.4,3.8-11.8,8.9-13.2c0.1,0,0.1-0.1,0-0.1c-1.7-1-3.7-1.6-5.7-1.6
	c-6.3,0-11.4,5.3-12.5,12.3c0,0.1-0.1,0.1-0.1,0c-5.1-3.9-23-11.5-44.5-12.9C21.7,10.6,0.9,23.5,0.9,27.8s20.8,19.6,46.2,17.4
	C68,43.4,86.1,35,91.6,30.5h0.1c1.1,6.9,6.3,12.2,12.5,12.2c2.1,0,4-0.6,5.7-1.6c0.1,0,0-0.1,0-0.1
	C104.9,39.6,101.1,34.2,101.1,27.8L101.1,27.8z"/>
<g id="色変わらん">
	<path class="st2" d="M22.8,32.3c1.8,0,3.2-1.4,3.2-3.2c0-1.8-1.4-3.2-3.2-3.2c-1.8,0-3.2,1.4-3.2,3.2
		C19.6,30.9,21.1,32.3,22.8,32.3z"/>
	<path class="st3" d="M22.8,31c1,0,1.9-0.8,1.9-1.9c0-1-0.8-1.9-1.9-1.9c-1,0-1.9,0.8-1.9,1.9S21.8,31,22.8,31z"/>
	<path class="st4" d="M90.9,31.1L90.9,31.1c-1.7,0.3-52.2,9.1-73.9,3.5C4.1,31.4,1.5,29,1.1,28.2H1c1.1,4.6,21.5,19.6,46.1,17
		C66.2,43.2,81,37.5,88,33L90.9,31.1L90.9,31.1z"/>
	<path class="st5" d="M11.2,33.4l1.5,3.2h0.1l2.2-2.3v-0.1L11.2,33C11.1,33,11,32.9,11.2,33.4L11.2,33.4z"/>
	<path class="st5" d="M16.6,34.6l1.8,3.8c0,0,0,0,0.1,0l2.6-3l0,0l-4-0.8H16.6L16.6,34.6z"/>
</g>
<path id="ひれ_xFF08_薄_xFF09_" class="st1" d="M50.1,50.8l-0.4-14.7c0-0.5-0.1-0.4-0.4-0.4l-15,0.4c0,0,5.4,15.1,15.2,15.6
	C49.8,51.8,50.1,51.3,50.1,50.8z"/>
<g id="えら_xFF08_濃_xFF09_">
	<path class="st6" d="M31,22.6c1.5,2.9,1.2,8.5,0,11.2"/>
	<path class="st6" d="M32.7,22.6c1.5,2.9,1.2,8.5,0,11.2"/>
	<path class="st6" d="M34.9,22.6c1.5,2.9,1.2,8.5,0,11.2"/>
</g>
</svg>
