<?xml version="1.0" encoding="utf-8"?>
<!-- Generator: Adobe Illustrator 27.0.1, SVG Export Plug-In . SVG Version: 6.00 Build 0)  -->
<svg version="1.1" id="レイヤー_1" xmlns="http://www.w3.org/2000/svg" xmlns:xlink="http://www.w3.org/1999/xlink" x="0px"
	 y="0px" viewBox="0 0 103 59" style="enable-background:new 0 0 103 59;" xml:space="preserve">
<style type="text/css">
	.st0{fill:#E1E0D3;}
	.st1{fill:#3B9BD7;}
	.st2{fill:#146D99;}
	.st3{fill:#095F7A;}
	.st4{fill:#FFFFFF;}
</style>
<path id="色変わらん_00000180358139386611497380000011177640352250941107_" class="st0" d="M88,39.6C87.4,19.3,71.6,3,52.3,3
	S17.7,17.2,17,37.5c0,0.3,6.1-4.3,0,2.8c0,0,3.8-2.4,3.8-2.3c0,3.6,12.1,9,31.7,9s35-3,35.4-6.6C87.9,40.4,88,39.8,88,39.6z"/>
<g id="顔_xFF08_薄_xFF09_">
	<path class="st1" d="M29.5,41l-10.2,0.4c-3.7,0.2-7.4-0.6-10.8-2.3C8.3,39,8.1,38.9,8,38.8l-4-2.2c-3.1-1.7-4.7-5.3-3.6-8.8
		c1.3-4.7,6.7-7,11-4.7l3,1.6c1,0.5,2.8,1.9,3.9,2.2l14,6.4c4,1.2,4.2,1.6,3,5.7l-0.1,0.3C33.9,43.5,33.5,42.2,29.5,41z"/>
	<path class="st1" d="M30.4,31.7c-0.5-0.5-1.3-0.5-1.9-0.1c-2.9,2.6-11.2,10.5-9.4,16c1.8,5.7,18,10.5,27.4,11.3
		c1.3,0.1,2-1.6,0.9-2.4C41.9,52.3,35,47,34.7,45.2c-0.2-1.6,0.9-4.7,1.6-6.2c0.2-0.5,0.1-1.1-0.2-1.5L30.4,31.7z"/>
	<path class="st1" d="M72.1,45l6.5,8c0.8,0.9,2,1.6,3.3,1.6l3.2,0.1c2.5,0.1,4.5-1.9,4.3-4.3l-0.2-2c-0.1-1.2-0.8-2.4-1.9-3.1
		l-9.5-6c-1.4-0.9-3.2-0.9-4.6-0.1l-0.1,0.1C71.1,40.4,70.5,43.1,72.1,45z"/>
	<path class="st1" d="M87.9,32.6c0.2-0.2,0.5-0.3,0.8-0.2c1.6,0.4,7.2,1.6,11.5,0.9c0.8-0.1,1.4,0.5,0.8,1.1
		c-2.4,2.6-8.4,6.2-13.6,4.9C82,37.9,86.5,33.8,87.9,32.6z"/>
</g>
<path id="甲羅_xFF08_中_xFF09__00000116939304435419716270000009820636946381116314_" class="st2" d="M89.8,36.1
	C89.2,15.8,72.5-0.4,52-0.4c-16.8,0-31,10.9-35.9,26c-0.1,0.2,0,0.5,0.2,0.6C19.5,28.7,27.7,35,30,40.7c0.4,1.1,1.4,1.9,2.6,2
	c5.7,0.6,12,0.9,19.5,0.9c20.7,0,37.4-2.9,37.6-6.5C89.7,37.1,89.8,36.7,89.8,36.1z"/>
<g id="網_xFF08_濃_xFF09_">
	<g>
		<path class="st3" d="M62,30.9l-7.6-4.4v-14L62,8.1l7.6,4.3v14L62,30.9z M55.2,26l6.8,4l6.8-4v-13L62,9.1l-6.8,3.9V26z"/>
		<polygon class="st3" points="69.3,13.1 61.7,8.6 61.7,0.9 62.5,1.1 62.5,8.2 69.3,12.1 76.1,8.2 76.7,8.7 		"/>
		<polygon class="st3" points="54.8,13.1 47.2,8.6 47.2,-0.1 48,-0.2 48,8.2 54.8,12.1 61.6,8.2 61.6,0.8 62.4,1 62.4,8.6 		"/>
		<path class="st3" d="M47.5,30.9l-7.6-4.4v-14l7.6-4.3l7.6,4.3v14L47.5,30.9z M40.7,26l6.8,4l6.8-4v-13l-6.8-3.9l-6.8,3.9V26z"/>
		<polygon class="st3" points="62.2,43.4 61.4,43.4 61.4,30.7 61.6,30.4 68.8,26.2 69.2,26.2 76.3,30.1 83.3,26.1 83.7,26.1 
			88.9,29.1 89.2,30.2 83.5,26.9 76.5,30.9 76.1,30.9 69,27 62.2,30.9 		"/>
		<polygon class="st3" points="33.2,42.7 32.5,42.6 32.5,30.8 25.7,26.8 20.6,29.7 19.9,29.1 25.7,25.9 33.2,30.3 		"/>
		<polygon class="st3" points="20.5,29.6 19.9,29 25.2,26 25.2,12.9 23.8,12.2 24.4,11.6 26,12.5 26,26.4 		"/>
		<polygon class="st3" points="47.7,43.5 46.9,43.5 46.9,30.4 54.5,25.9 61.9,30.3 61.5,30.9 54.5,26.9 47.7,30.8 		"/>
		<polygon class="st3" points="76.4,30.9 68.8,26.4 68.8,12.5 76.2,8.3 76.8,8.8 69.6,12.9 69.6,26 76.4,29.9 83.4,25.9 83.8,26.5 
					"/>
		<polygon class="st3" points="47.7,43.6 46.9,43.5 46.9,30.8 40.1,26.9 33.1,30.9 32.7,30.3 40.1,25.9 47.7,30.4 		"/>
		<polygon class="st3" points="25.9,13.1 24,12 24.5,11.4 25.9,12.1 32.7,8.2 32.7,4.9 33.5,4.5 33.5,8.6 		"/>
		<path class="st3" d="M33.1,30.9l-7.6-4.4v-14l7.6-4.3l7.6,4.3v14L33.1,30.9z M26.3,26l6.8,4l6.8-4v-13l-6.8-3.9l-6.8,3.9V26z"/>
	</g>
	<polygon class="st3" points="76.6,42 75.8,42.1 75.8,30.6 76.6,30.6 	"/>
	<polygon class="st3" points="83.8,26.5 83,26.5 83,15.7 83.8,16.8 	"/>
</g>
<g id="斑点_xFF08_中_xFF09_">
	<path class="st2" d="M25.7,41.9c-0.4,0.2-0.9-0.2-1.1-1.1c-0.2-0.9,0.4-1.6,1.2-1.6c0.8,0,1.3,0.5,1.1,1.1S26,41.7,25.7,41.9z"/>
	<path class="st2" d="M22.9,41.5c-0.3-0.3-0.8,0-1.2,0.8c-0.3,0.8-0.2,1.6,0.4,1.8c0.5,0.2,1.1-0.2,1.2-0.8
		C23.4,42.6,23.3,41.9,22.9,41.5z"/>
	<path class="st2" d="M21.2,48.1c-0.7-0.7-0.9-1.8-0.4-2.6c0.5-0.7,1.4-0.5,1.9,0.4s0.8,2.1,0.4,2.6C22.8,48.9,21.9,48.8,21.2,48.1z
		"/>
	<path class="st2" d="M24,50.1c-0.2-0.9,0.3-1.2,1.2-0.6c0.9,0.5,1.5,1.5,1.4,2.2s-0.6,0.9-1.2,0.6C24.9,51.9,24.3,50.9,24,50.1z"/>
	<path class="st2" d="M24.2,45.4c0-1,0.5-1.2,1.1-0.5c0.6,0.8,0.9,1.9,0.8,2.6c-0.2,0.7-0.7,0.9-1.1,0.5
		C24.5,47.6,24.2,46.4,24.2,45.4z"/>
	<path class="st2" d="M27.8,52.5c0.3-0.2,1.1,0,1.9,0.5c0.7,0.5,0.5,0.8-0.5,0.5C28.1,53.2,27.5,52.7,27.8,52.5z"/>
	<path class="st2" d="M79.2,47.7c-0.2-0.9,0.2-1.1,0.9-0.6c0.7,0.5,1.2,1.4,1.2,2.1s-0.4,0.9-0.9,0.6C79.9,49.4,79.4,48.5,79.2,47.7
		z"/>
	<path class="st2" d="M79.4,51.4c-0.2-0.8,0.2-1.1,1-0.7c0.8,0.4,1.5,1.2,1.5,1.9c0,0.6-0.5,0.9-1,0.7C80.3,53,79.6,52.1,79.4,51.4z
		"/>
	<path class="st2" d="M76,48.6c-0.6-0.5-0.8-1.6-0.3-2.2c0.5-0.6,1.2-0.5,1.7,0.4s0.6,1.8,0.3,2.2C77.4,49.3,76.6,49.2,76,48.6z"/>
</g>
<g id="色変わらん">
	<path class="st4" d="M9.3,33.7c2.4,0,4.3-1.9,4.3-4.3s-1.9-4.3-4.3-4.3C6.9,25,5,26.9,5,29.3S6.9,33.7,9.3,33.7z"/>
	<path d="M9.3,32c1.5,0,2.6-1.2,2.6-2.6c0-1.5-1.2-2.6-2.6-2.6c-1.5,0-2.6,1.2-2.6,2.6C6.7,30.8,7.9,32,9.3,32z"/>
</g>
</svg>
