<svg width="122" height="80" viewBox="0 0 122 80" fill="none" xmlns="http://www.w3.org/2000/svg">
<g clip-path="url(#clip0_1049_2011)">
<path d="M104.233 51.9628C103.522 27.9181 84.8076 8.61133 61.9474 8.61133C39.0872 8.61133 20.9649 25.4307 20.1357 49.4754C20.1357 49.8307 27.361 44.3822 20.1357 52.7919C20.1357 52.7919 24.6367 49.9492 24.6367 50.0676C24.6367 54.3317 38.9688 60.7278 62.1843 60.7278C85.3998 60.7278 103.641 57.1744 104.114 52.9104C104.114 52.9104 104.233 52.1997 104.233 51.9628Z" fill="#E1E0D3"/>
<path d="M34.942 53.6214L22.8604 54.0952C18.4779 54.3321 14.0954 53.3846 10.0682 51.371C9.83129 51.2525 9.5944 51.1341 9.47595 51.0156L4.73809 48.4098C1.06625 46.3962 -0.828899 42.1321 0.474013 37.9865C2.01382 32.4195 8.40993 29.6952 13.5031 32.4195L17.0565 34.3147C18.241 34.9069 20.373 36.5651 21.676 36.9205L38.2585 44.5011C42.9963 45.9224 43.2332 46.3962 41.8119 51.2525L41.6934 51.6079C40.1536 56.5826 39.6798 55.0428 34.942 53.6214Z" fill="#3B9BD7"/>
<path d="M36.0082 42.6057C35.416 42.0135 34.4684 42.0135 33.7577 42.4873C30.3228 45.5669 20.4917 54.9242 22.6237 61.4387C24.7558 68.1902 43.9441 73.8756 55.0781 74.8232C56.6179 74.9416 57.447 72.9281 56.1441 71.9805C49.6296 67.0057 41.4567 60.7281 41.1014 58.596C40.8645 56.7009 42.1674 53.029 42.9965 51.2523C43.2334 50.6601 43.115 49.9494 42.7597 49.4756L36.0082 42.6057Z" fill="#3B9BD7"/>
<path d="M85.4004 58.3594L93.0995 67.8351C94.047 68.9011 95.4684 69.7303 97.0082 69.7303L100.798 69.8487C103.76 69.9672 106.129 67.5982 105.892 64.7555L105.655 62.3866C105.536 60.9652 104.707 59.5439 103.404 58.7147L92.1519 51.6079C90.4936 50.5419 88.3616 50.5419 86.7033 51.4895L86.5849 51.6079C84.216 52.9109 83.5053 56.1089 85.4004 58.3594Z" fill="#3B9BD7"/>
<path d="M104.115 43.672C104.352 43.4351 104.707 43.3167 105.062 43.4351C106.957 43.9089 113.59 45.3303 118.684 44.5012C119.631 44.3827 120.342 45.0934 119.631 45.8041C116.788 48.8837 109.682 53.1478 103.522 51.608C97.1263 49.9497 102.456 45.0934 104.115 43.672Z" fill="#3B9BD7"/>
<path d="M106.365 47.8175C105.654 23.7728 85.8738 4.58447 61.5922 4.58447C41.6932 4.58447 24.8738 17.4952 19.0699 35.3806C18.9515 35.6175 19.0699 35.9728 19.3068 36.0913C23.0971 39.0524 32.8097 46.5146 35.534 53.266C36.0078 54.5689 37.1922 55.5165 38.6136 55.635C45.365 56.3456 52.8272 56.701 61.7107 56.701C86.2291 56.701 106.01 53.266 106.247 49.0019C106.247 49.0019 106.365 48.5282 106.365 47.8175Z" fill="#146D99"/>
<path d="M73.437 41.6582L64.4351 36.4465V19.864L73.437 14.6523L82.4389 19.7455V36.3281L73.437 41.6582ZM65.3826 35.8543L73.437 40.5921L81.4914 35.8543V20.4562L73.437 15.8368L65.3826 20.4562V35.8543Z" fill="#095F7A"/>
<path d="M82.0835 20.5745L73.0815 15.2444V6.12402L74.0291 6.36092V14.7706L82.0835 19.39L90.1379 14.7706L90.8485 15.3629L82.0835 20.5745Z" fill="#095F7A"/>
<path d="M64.9087 20.5747L55.9067 15.2446V4.93974L56.8543 4.82129V14.7708L64.9087 19.3902L72.963 14.7708V6.00576L73.9106 6.24265V15.2446L64.9087 20.5747Z" fill="#095F7A"/>
<path d="M56.2622 41.6584L47.2603 36.4467V19.8642L56.2622 14.771L65.2641 19.8642V36.4467L56.2622 41.6584ZM48.2078 35.8545L56.2622 40.5924L64.3166 35.8545V20.4564L56.2622 15.837L48.2078 20.4564V35.8545Z" fill="#095F7A"/>
<path d="M73.6736 56.4639H72.7261V41.4212L72.963 41.0659L81.4911 36.0911H81.9649L90.3746 40.7105L98.6659 35.9727H99.1397L105.299 39.5261L105.654 40.829L98.9028 36.9202L90.6115 41.6581H90.1377L81.728 37.0387L73.6736 41.6581V56.4639Z" fill="#095F7A"/>
<path d="M39.3242 55.6349L38.4951 55.5164V41.5397L30.4407 36.8019L24.3999 40.2368L23.5708 39.5261L30.4407 35.7358L39.3242 40.9475V55.6349Z" fill="#095F7A"/>
<path d="M24.2815 40.1182L23.5708 39.4076L29.8485 35.8542V20.3377L28.1902 19.5085L28.9009 18.7979L30.796 19.8639V36.3279L24.2815 40.1182Z" fill="#095F7A"/>
<path d="M56.4988 56.5824H55.5513V41.0659L64.5532 35.7358L73.3183 40.9475L72.8445 41.6582L64.5532 36.9203L56.4988 41.5397V56.5824Z" fill="#095F7A"/>
<path d="M90.4932 41.6581L81.4912 36.328V19.8639L90.2563 14.8892L90.9669 15.4814L82.4388 20.3377V35.8542L90.4932 40.4736L98.7844 35.7358L99.2582 36.4464L90.4932 41.6581Z" fill="#095F7A"/>
<path d="M56.4989 56.7009L55.5514 56.5824V41.5397L47.497 36.9203L39.2057 41.6582L38.7319 40.9475L47.497 35.7358L56.4989 41.0659V56.7009Z" fill="#095F7A"/>
<path d="M30.6777 20.5746L28.4272 19.2717L29.0195 18.561L30.6777 19.3901L38.7321 14.7707V10.862L39.6797 10.3882V15.2445L30.6777 20.5746Z" fill="#095F7A"/>
<path d="M39.2056 41.6584L30.2036 36.4467V19.8642L39.2056 14.771L48.2075 19.8642V36.4467L39.2056 41.6584ZM31.1512 35.8545L39.2056 40.5924L47.2599 35.8545V20.4564L39.2056 15.837L31.1512 20.4564V35.8545Z" fill="#095F7A"/>
<path d="M90.7298 54.8056L89.7822 54.9241V41.3027H90.7298V54.8056Z" fill="#095F7A"/>
<path d="M99.2581 36.4465H98.3105V23.6543L99.2581 24.9572V36.4465Z" fill="#095F7A"/>
<path d="M30.4411 54.6873C29.9673 54.9242 29.3751 54.4504 29.1382 53.3844C28.9013 52.3184 29.612 51.4893 30.5596 51.4893C31.5071 51.4893 32.0994 52.0815 31.8625 52.7922C31.6256 53.5028 30.7965 54.4504 30.4411 54.6873Z" fill="#146D99"/>
<path d="M27.1247 54.2133C26.7693 53.8579 26.1771 54.2133 25.7033 55.1609C25.348 56.1084 25.4664 57.056 26.1771 57.2929C26.7693 57.5298 27.48 57.056 27.5985 56.3453C27.7169 55.5162 27.5985 54.6871 27.1247 54.2133Z" fill="#146D99"/>
<path d="M25.1109 62.0308C24.2817 61.2017 24.0449 59.8988 24.6371 58.9512C25.2293 58.1221 26.2953 58.359 26.8876 59.425C27.4798 60.491 27.8351 61.9124 27.3614 62.5046C27.006 62.9784 25.94 62.86 25.1109 62.0308Z" fill="#146D99"/>
<path d="M28.4273 64.3998C28.1904 63.3337 28.7827 62.9784 29.8487 63.6891C30.9147 64.2813 31.6254 65.4658 31.5069 66.2949C31.3885 67.124 30.7963 67.3609 30.0856 67.0056C29.4934 66.5318 28.7827 65.3473 28.4273 64.3998Z" fill="#146D99"/>
<path d="M28.6641 58.8331C28.6641 57.6486 29.2563 57.4117 29.967 58.2409C30.6777 59.1884 31.033 60.4913 30.9145 61.3205C30.6777 62.1496 30.0854 62.3865 29.6116 61.9127C29.0194 61.4389 28.6641 60.0176 28.6641 58.8331Z" fill="#146D99"/>
<path d="M32.9286 67.2426C33.2839 67.0057 34.2315 67.2426 35.179 67.8349C36.0082 68.4271 35.7713 68.7824 34.5868 68.4271C33.2839 68.0718 32.5732 67.4795 32.9286 67.2426Z" fill="#146D99"/>
<path d="M93.81 61.5572C93.5731 60.4912 94.0469 60.2543 94.876 60.8466C95.7052 61.4388 96.2974 62.5048 96.2974 63.3339C96.2974 64.1631 95.8236 64.4 95.2314 64.0446C94.6391 63.5708 94.0469 62.5048 93.81 61.5572Z" fill="#146D99"/>
<path d="M94.0467 65.9399C93.8098 64.9924 94.2836 64.637 95.2312 65.1108C96.1787 65.5846 97.0079 66.5322 97.0079 67.3613C97.0079 68.072 96.4156 68.4273 95.8234 68.1904C95.1127 67.8351 94.2836 66.7691 94.0467 65.9399Z" fill="#146D99"/>
<path d="M90.0196 62.6231C89.3089 62.0309 89.072 60.728 89.6643 60.0173C90.2565 59.3066 91.0856 59.425 91.6779 60.4911C92.2701 61.5571 92.3885 62.6231 92.0332 63.0969C91.6779 63.4522 90.7303 63.3338 90.0196 62.6231Z" fill="#146D99"/>
<path d="M11.0156 44.9746C13.8583 44.9746 16.1088 42.7241 16.1088 39.8814C16.1088 37.0386 13.8583 34.7882 11.0156 34.7882C8.17285 34.6697 5.92236 36.9202 5.92236 39.7629C5.92236 42.6056 8.17285 44.9746 11.0156 44.9746Z" fill="white"/>
<path d="M11.0156 42.961C12.7923 42.961 14.0953 41.5396 14.0953 39.8814C14.0953 38.1047 12.6739 36.8018 11.0156 36.8018C9.23895 36.8018 7.93604 38.2231 7.93604 39.8814C7.93604 41.5396 9.35739 42.961 11.0156 42.961Z" fill="black"/>
</g>
<defs>
<clipPath id="clip0_1049_2011">
<rect width="122" height="69.8835" fill="white" transform="translate(0 5.05811)"/>
</clipPath>
</defs>
</svg>
